<?xml version="1.0" encoding="iso-8859-1"?>
<!-- Generator: Adobe Illustrator 22.0.1, SVG Export Plug-In . SVG Version: 6.00 Build 0)  -->
<svg version="1.1" id="Layer_1" xmlns="http://www.w3.org/2000/svg" xmlns:xlink="http://www.w3.org/1999/xlink" x="0px" y="0px"
	 viewBox="0 0 50 54" style="enable-background:new 0 0 50 54;" xml:space="preserve">
<path style="fill:#A0CD4E;" d="M25,3.979c-12.794,0-23.167,10.372-23.167,23.167c0,12.794,10.372,23.167,23.166,23.167
	c12.795,0,23.167-10.373,23.167-23.167S37.794,3.979,25,3.979L25,3.979z M38.23,30.053c-1.044,6.63-6.786,11.377-13.298,11.377
	c-0.692,0-1.394-0.054-2.099-0.165C15.496,40.108,10.467,33.2,11.62,25.865c0.559-3.553,2.468-6.677,5.376-8.794
	c2.504-1.823,5.489-2.71,8.539-2.565l-2.244-2.136l1.471-1.544l3.443,3.28h0.001l1.54,1.469l-1.47,1.543l-0.001-0.002l-3.28,3.443
	l-1.542-1.471l2.078-2.18c-2.541-0.144-5.036,0.585-7.121,2.103c-2.389,1.74-3.958,4.306-4.418,7.226
	c-0.947,6.026,3.185,11.702,9.212,12.651c6.026,0.947,11.702-3.184,12.65-9.211c0.626-3.979-0.962-7.988-4.144-10.464l1.476-1.897
	C37.059,20.331,38.991,25.211,38.23,30.053L38.23,30.053z M20.536,31.075l-0.079-0.185l1.981-0.84l0.078,0.186
	c0.315,0.747,1.403,1.311,2.532,1.311c0.507,0,2.161-0.092,2.161-1.287c0-0.627-0.707-1.002-2.226-1.18
	c-1.705-0.192-4.041-0.453-4.041-3.026c0-1.578,1.18-2.68,3.167-2.974v-1.213h2.134v1.218c0.923,0.162,2.14,0.564,2.819,1.952
	l0.091,0.184l-1.824,0.843l-0.092-0.153c-0.319-0.527-1.259-0.941-2.137-0.941c-0.593,0-1.97,0.106-1.97,1.083
	c0,0.702,0.887,0.864,2.048,1.003c1.815,0.223,4.3,0.529,4.3,3.202c0,1.967-1.596,3.002-3.235,3.186v1.382H24.11v-1.316
	C22.388,33.308,21.122,32.448,20.536,31.075L20.536,31.075z M20.536,31.075"/>
</svg>
