<?xml version="1.0" encoding="utf-8"?>
<!-- Generator: Adobe Illustrator 22.0.1, SVG Export Plug-In . SVG Version: 6.00 Build 0)  -->
<svg version="1.1" id="Layer_1" xmlns="http://www.w3.org/2000/svg" xmlns:xlink="http://www.w3.org/1999/xlink" x="0px" y="0px"
	 viewBox="0 0 28 28" style="enable-background:new 0 0 28 28;" xml:space="preserve">
<style type="text/css">
	.st0{fill:#A0CD4E;}
</style>
<g id="Layer_2_1_">
	<g id="Layer_1-2">
		<path class="st0" d="M16.9,5.2h1.4c0.2,0,0.3-0.1,0.3-0.3V3.9c-0.5,0.2-1,0-1.4-0.3h-0.1c-0.1,0.3-0.3,0.5-0.5,0.7v0.5
			C16.6,5,16.7,5.2,16.9,5.2L16.9,5.2z M18,4.1c0.2,0,0.2,0.3,0.2,0.3h-0.4C17.8,4.4,17.8,4.1,18,4.1z M18,4.7c0,0,0.1,0,0.1,0
			C18.1,4.8,18.1,4.8,18,4.7c-0.1,0.2-0.2,0.2-0.4,0.2c-0.1,0-0.3,0-0.4-0.1c0,0,0-0.1,0-0.1c0,0,0,0,0,0c0,0,0.1,0,0.1,0
			C17.3,4.7,17.5,4.9,18,4.7L18,4.7z M17.1,4.1c0.2,0,0.2,0.3,0.2,0.3h-0.4C16.9,4.4,16.9,4.1,17.1,4.1z"/>
		<path class="st0" d="M15.3,11.1l1.1,0.6c0.3,0.2,0.6,0.2,0.6,0v-0.3h2.2c0.4,0,0.6-0.4,0.6-0.7c0-0.3-0.3-0.5-0.6-0.6H17V9.9
			c0-0.2-0.2-0.2-0.6,0l-1.1,0.6c-0.2,0.1-0.3,0.2-0.2,0.4C15.1,11,15.2,11.1,15.3,11.1z"/>
		<path class="st0" d="M3.2,26.6h21.6c1.7,0,3-1.3,3-3V4c0-1.7-1.3-3-3-3H3.2c-1.7,0-3,1.3-3,3v19.6C0.2,25.3,1.5,26.6,3.2,26.6
			L3.2,26.6z M11.8,11.3c0.2,0,0.2,0.2,0,0.6L11.2,13c-0.1,0.2-0.2,0.3-0.4,0.2c-0.1,0-0.2-0.1-0.2-0.2l-0.7-1.1
			c-0.2-0.3-0.2-0.6,0-0.6h0.3V9.1c0-0.4,0.3-0.6,0.6-0.6c0.4,0,0.7,0.3,0.7,0.6v2.2H11.8z M14,14.1v5.3H7.3v-5.3H14z M20.6,25.6H14
			v-5.5h6.6V25.6z M26.8,19.5h-6.2v-5.3h6.2V19.5z M20.6,2h4.2c1.1,0,2,0.9,2,2v3.5h-6.2V2z M20.6,13.5H14V8.1h6.6V13.5z M17.5,2.4
			c0.7,0,1.2,0.4,1.3,1.1c0,0.1,0,0.3,0,0.4l0,0v1c0,0.3-0.2,0.5-0.5,0.5h-1.4c-0.3,0-0.5-0.2-0.5-0.5V4.4h-0.1
			C16.3,4.4,15.9,2.4,17.5,2.4z M17.4,5.6l0.2-0.1l0.2,0.1l-0.1,0.1l0.2,0.2l-0.1,0.3c0,0.1-0.1,0.1-0.1,0l-0.1-0.3l0.2-0.2
			L17.4,5.6z M15.2,6.4c0-0.2,0.1-0.4,0.2-0.6c0.2-0.1,0.4-0.2,0.6-0.2h0.9l0.5,0.8c0,0.1,0.1,0.1,0.2,0.1c0.1,0,0.1,0,0.2-0.1
			l0.5-0.8h0.9c0.2,0,0.4,0.1,0.6,0.2c0.1,0.2,0.2,0.4,0.2,0.6v0.3c0,0.2-0.2,0.4-0.5,0.4l0,0h-3.8c-0.2,0-0.4-0.2-0.5-0.4V6.4z
			 M7.3,2H14v5.5H7.3V2z M1.2,8.1h6.1v5.3H1.2V8.1z M1.2,20.1h6.1v5.5H3.2c-1.1,0-2-0.9-2-2V20.1z"/>
	</g>
</g>
</svg>
