<?xml version="1.0" encoding="utf-8"?>
<!-- Generator: Adobe Illustrator 22.0.1, SVG Export Plug-In . SVG Version: 6.00 Build 0)  -->
<svg version="1.1" id="Layer_1" xmlns="http://www.w3.org/2000/svg" xmlns:xlink="http://www.w3.org/1999/xlink" x="0px" y="0px"
	 viewBox="0 0 28 28" style="enable-background:new 0 0 28 28;" xml:space="preserve">
<style type="text/css">
	.st0{fill:#A0CE4E;}
</style>
<g id="Layer_2_1_">
	<g id="Layer_1-2">
		<path class="st0" d="M14.9,13.9c0.1,0.5-0.3,0.9-0.8,1s-0.9-0.3-1-0.8c0-0.1,0-0.1,0-0.2c0.1-0.5,0.5-0.8,1-0.8
			C14.5,13.2,14.8,13.5,14.9,13.9z"/>
		<path class="st0" d="M14,0.7C6.7,0.7,0.7,6.7,0.7,14S6.7,27.3,14,27.3c7.3,0,13.3-5.9,13.3-13.3c0,0,0,0,0,0
			C27.3,6.7,21.3,0.7,14,0.7z M13.6,4.2c0-0.2,0.3-0.4,0.5-0.4c0.2,0,0.3,0.2,0.4,0.4v0.5c0,0.2-0.3,0.4-0.5,0.4
			c-0.2,0-0.3-0.2-0.4-0.4V4.2z M4.7,14.4H4.3c-0.2,0-0.4-0.2-0.4-0.4c0-0.2,0.2-0.4,0.4-0.4h0.5c0.2,0,0.4,0.2,0.4,0.4
			C5.2,14.2,5,14.4,4.7,14.4z M7.7,20.8l-0.3,0.3c-0.1,0.1-0.2,0.1-0.3,0.1c-0.2,0-0.4-0.2-0.4-0.4c0-0.1,0-0.2,0.1-0.3l0.3-0.3
			c0.2-0.2,0.5-0.1,0.6,0.1C7.9,20.4,7.9,20.7,7.7,20.8z M7.7,7.7C7.7,7.8,7.5,7.9,7.4,7.9c-0.1,0-0.2,0-0.3-0.1L6.8,7.4
			C6.6,7.3,6.6,7,6.8,6.8c0.2-0.2,0.5-0.2,0.7,0l0.3,0.3C7.9,7.2,7.9,7.5,7.7,7.7C7.8,7.7,7.8,7.7,7.7,7.7z M14.4,23.7
			c0,0.2-0.3,0.4-0.5,0.4c-0.2,0-0.3-0.2-0.4-0.4v-0.5c0-0.2,0.1-0.5,0.4-0.5s0.5,0.1,0.5,0.4c0,0,0,0.1,0,0.1V23.7z M14,15.7
			c-0.8,0-1.5-0.6-1.7-1.3H9.1c-0.2,0-0.4-0.2-0.4-0.4c0-0.2,0.2-0.4,0.4-0.4h3.2c0.2-0.6,0.6-1.1,1.3-1.3V7.7
			c0-0.2,0.3-0.4,0.5-0.4c0.2,0,0.3,0.2,0.4,0.4v4.5c1,0.2,1.6,1.1,1.4,2.1C15.6,15.2,14.9,15.8,14,15.7L14,15.7z M21.2,21.2
			c-0.1,0.1-0.2,0.1-0.3,0.1c-0.1,0-0.2,0-0.3-0.1l-0.3-0.3c-0.2-0.2-0.1-0.5,0.1-0.6c0.2-0.1,0.4-0.1,0.6,0l0.3,0.3
			C21.4,20.7,21.4,21,21.2,21.2z M21.2,7.4l-0.3,0.3c-0.2,0.2-0.4,0.2-0.6,0c0,0,0,0,0,0c-0.2-0.2-0.2-0.4,0-0.6c0,0,0,0,0,0
			l0.3-0.4c0.2-0.1,0.5-0.1,0.6,0.1C21.3,7,21.3,7.2,21.2,7.4L21.2,7.4z M23.7,14.4h-0.4c-0.2,0-0.4-0.2-0.4-0.4
			c0-0.2,0.2-0.4,0.4-0.4h0.5c0.2,0,0.4,0.2,0.4,0.4C24.2,14.2,24,14.4,23.7,14.4L23.7,14.4z"/>
	</g>
</g>
</svg>
