<?xml version="1.0" encoding="iso-8859-1"?>
<!-- Generator: Adobe Illustrator 22.0.1, SVG Export Plug-In . SVG Version: 6.00 Build 0)  -->
<svg version="1.1" id="Layer_1" xmlns="http://www.w3.org/2000/svg" xmlns:xlink="http://www.w3.org/1999/xlink" x="0px" y="0px"
	 viewBox="0 0 64 64" style="enable-background:new 0 0 64 64;" xml:space="preserve">
<g id="Layer_2_1_">
	<g id="Layer_1-2">
		<path style="fill:#A0CD4E;" d="M34.03,1.331c-0.222-0.021-0.446-0.021-0.669,0H32.46h-0.988c-0.27-0.037-0.544-0.037-0.814,0
			C13.538,2.288,0.434,16.942,1.391,34.063c0.88,15.75,13.432,28.337,29.179,29.262c0.198,0.014,0.398,0.014,0.596,0h2.456h0.378
			c17.119-1.105,30.102-15.878,28.997-32.998C61.994,14.758,49.598,2.35,34.03,1.331z M49.743,15.663
			c-1.63,0.415-3.286,0.721-4.957,0.916c-1.345-2.432-2.871-4.759-4.564-6.962C43.827,10.856,47.088,12.927,49.743,15.663z
			 M41.966,35.867c-0.29,1.657-0.738,3.283-1.337,4.855c-2.427-0.145-5.146-0.145-8.227-0.145s-5.814,0.16-8.169,0.334
			c-0.658-1.616-1.145-3.297-1.454-5.015L41.966,35.867z M22.809,28.948c0.31-1.745,0.797-3.455,1.454-5.102
			c2.384,0.174,5.073,0.291,8.125,0.32h1.744c2.355,0,4.477,0,6.41-0.16c0.652,1.588,1.139,3.24,1.454,4.927L22.809,28.948z
			 M32.388,11.084c1.67,1.901,3.204,3.917,4.593,6.032c-1.381,0-2.907,0-4.491,0s-3.212-0.073-4.637-0.131
			c1.372-2.08,2.887-4.062,4.535-5.93L32.388,11.084z M24.495,9.631c-1.619,2.111-3.076,4.342-4.361,6.672
			c-1.613-0.197-3.215-0.483-4.797-0.858c2.572-2.622,5.716-4.612,9.186-5.814H24.495z M10.992,21.491
			c2.011,0.654,4.072,1.14,6.163,1.454c-0.676,1.915-1.163,3.892-1.454,5.901h-7.05c0.37-2.578,1.161-5.077,2.34-7.398V21.491z
			 M8.651,35.867h7.108c0.261,1.977,0.714,3.924,1.352,5.814c-2.093,0.303-4.155,0.79-6.163,1.454
			C9.793,40.853,9.017,38.398,8.651,35.867z M15.221,49.181c1.592-0.374,3.203-0.665,4.826-0.872
			c1.304,2.379,2.791,4.654,4.448,6.803c-3.504-1.234-6.677-3.259-9.274-5.916L15.221,49.181z M32.373,53.658
			c-1.671-1.904-3.211-3.919-4.608-6.032c1.454-0.073,3.023-0.116,4.724-0.131c1.701-0.015,3.154,0,4.55,0
			C35.634,49.659,34.075,51.719,32.373,53.658z M40.222,55.112c1.724-2.226,3.265-4.589,4.608-7.064
			c1.68,0.202,3.346,0.512,4.986,0.93C47.152,51.757,43.863,53.86,40.222,55.112z M54.016,42.989c-2.04-0.734-4.148-1.26-6.294-1.57
			c0.603-1.821,1.036-3.695,1.294-5.596h7.268c-0.36,2.491-1.111,4.909-2.224,7.166H54.016z M56.24,28.948h-7.268
			c-0.269-1.926-0.711-3.823-1.323-5.669c2.156-0.32,4.274-0.856,6.323-1.599C55.11,23.967,55.875,26.42,56.24,28.948z"/>
	</g>
</g>
</svg>
