<?xml version="1.0" encoding="iso-8859-1"?>
<!-- Generator: Adobe Illustrator 22.0.1, SVG Export Plug-In . SVG Version: 6.00 Build 0)  -->
<svg version="1.1" id="Layer_1" xmlns="http://www.w3.org/2000/svg" xmlns:xlink="http://www.w3.org/1999/xlink" x="0px" y="0px"
	 viewBox="0 0 64 64" style="enable-background:new 0 0 64 64;" xml:space="preserve">
<g>
	<g>
		<defs>
			<rect id="SVGID_3_" x="1.697" y="9.518" width="61.505" height="46.964"/>
		</defs>
		<clipPath id="SVGID_1_">
			<use xlink:href="#SVGID_3_"  style="overflow:visible;"/>
		</clipPath>
		<path style="clip-path:url(#SVGID_1_);fill:#A0CD4E;" d="M59.68,9.518H5.581v39.287H59.59V9.518H59.68z M56.971,44.831h-9.935
			v-1.626c0-1.987-1.716-4.425-3.793-5.419l-4.877-2.348l-3.161,6.593l-1.535-4.245c-0.361,0.09-0.632,0.181-0.993,0.181
			s-0.632-0.09-0.993-0.181l-1.626,4.516l-3.251-6.774l-4.696,2.258c-2.077,0.993-3.793,3.432-3.793,5.419v1.626H8.381V12.137h48.68
			L56.971,44.831L56.971,44.831z M63.564,50.431v4.696H1.697v-4.696h27.817v0.993h6.232v-0.993H63.564z M23.373,29.749
			c0.632,2.348,2.077,4.335,4.064,5.6c0,0.361,0.361,0.813,0.813,1.084c0.632,0.361,1.355,0.271,1.626-0.271
			c0.271-0.452-0.09-1.084-0.723-1.445c-0.361-0.181-0.813-0.271-1.174-0.09c-1.806-1.084-3.071-2.8-3.703-4.877
			c0.632-0.181,0.993-0.723,0.993-1.355v-0.632c0.813,3.974,3.703,7.677,7.225,7.677c3.522,0,6.412-3.703,7.225-7.677v0.632
			c0,0.813,0.632,1.445,1.445,1.445c0.813,0,1.445-0.632,1.445-1.445v-3.071c0-0.542-0.271-0.993-0.632-1.264
			c-0.542-4.787-4.606-8.399-9.483-8.399s-8.941,3.703-9.483,8.399c-0.361,0.271-0.632,0.723-0.632,1.264v3.071
			C22.47,29.026,22.831,29.478,23.373,29.749L23.373,29.749z M32.585,16.562c4.335,0,7.857,3.161,8.49,7.316
			c-0.452,0.09-0.903,0.361-1.084,0.813c-0.452-4.064-3.522-6.232-7.406-6.232c-3.793,0-6.954,2.168-7.406,6.232
			c-0.181-0.271-0.361-0.542-0.723-0.723c-0.09-0.09-0.09-0.181-0.271-0.181c-0.09,0-0.09,0-0.09,0
			C24.818,19.724,28.341,16.562,32.585,16.562L32.585,16.562z"/>
	</g>
</g>
</svg>
