<?xml version="1.0" encoding="iso-8859-1"?>
<!-- Generator: Adobe Illustrator 22.0.1, SVG Export Plug-In . SVG Version: 6.00 Build 0)  -->
<svg version="1.1" id="Capa_1" xmlns="http://www.w3.org/2000/svg" xmlns:xlink="http://www.w3.org/1999/xlink" x="0px" y="0px"
	 viewBox="-49 141 512 512" style="enable-background:new -49 141 512 512;" xml:space="preserve">
<path style="fill:#33CCCC;" d="M-25,637h240c4.418,0,8-3.582,8-8v-32c0-0.104-0.056-0.192-0.064-0.296
	c-0.015-0.888-0.18-1.767-0.488-2.6l-0.08-0.2l0,0l-8.168-21.136c-1.184-3.048-2.28-6.128-3.368-9.208l-0.256-0.712
	c4.02-5.533,5.407-12.554,3.792-19.2l7.68-7.68l0.984,0.408V549c0,4.418,3.582,8,8,8h32c4.418,0,8-3.582,8-8v-12.672l0.984-0.408
	l8.96,8.96c3.124,3.123,8.188,3.123,11.312,0l22.624-22.624c3.123-3.124,3.123-8.188,0-11.312l-8.96-8.96l0.376-0.984H319
	c4.418,0,8-3.582,8-8v-32c0-4.418-3.582-8-8-8h-12.672l-0.408-0.984l8.96-8.952c3.123-3.124,3.123-8.188,0-11.312l-22.624-22.632
	c-3.124-3.123-8.188-3.123-11.312,0l-8.96,8.96L271,417.672V405c0-4.418-3.582-8-8-8h-32c-4.418,0-8,3.582-8,8v12.672l-0.984,0.408
	l-8.96-8.96c-3.174-3.001-8.138-3.001-11.312,0l-22.624,22.632c-1.326,1.373-2.118,3.175-2.232,5.08
	c-6.536-38.136-9.844-76.756-9.888-115.448v-42.496l15.16-30.312h-0.072c0.585-1.102,0.897-2.328,0.912-3.576v-80
	c0-4.418-3.582-8-8-8h-32c-4.418,0-8,3.582-8,8v24h-16v-24c0-4.418-3.582-8-8-8H79c-4.418,0-8,3.582-8,8v24H55v-24
	c0-4.418-3.582-8-8-8H15c-4.418,0-8,3.582-8,8v80c0.022,1.237,0.338,2.452,0.92,3.544H7.848L23,278.888v42.496
	c-0.067,69.458-10.585,138.511-31.2,204.84c-12.563,3.865-19.615,17.183-15.75,29.746c0.756,2.459,1.907,4.779,3.406,6.87
	l-0.256,0.712c-1.088,3.088-2.176,6.168-3.36,9.208l-8.208,21.112l0,0l-0.08,0.2c-0.308,0.833-0.473,1.712-0.488,2.6
	c0,0.104-0.064,0.192-0.064,0.296v32c-0.018,4.418,3.55,8.014,7.968,8.032C-25.021,637-25.011,637-25,637z M207,621H-17v-16h224V621
	z M-9.24,578.6c0.8-2.096,1.6-4.2,2.336-6.32c0.112,0,0.24,0,0.352,0.048C-4.734,572.769-2.871,572.995-1,573h192
	c1.872-0.018,3.736-0.257,5.552-0.712c0.12,0,0.24,0,0.352-0.048c0.76,2.12,1.52,4.224,2.336,6.32l0,0l4.056,10.4h-216.6
	L-9.24,578.6z M-1.328,541.104h0.072L-0.648,541h191.304l0.608,0.072h0.112c4.243,0.199,7.59,3.68,7.624,7.928
	c-0.035,2.706-1.458,5.205-3.768,6.616C194,556.508,192.521,556.992,191,557H-1c-1.521-0.008-3-0.492-4.232-1.384
	c-2.31-1.411-3.733-3.91-3.768-6.616c0.03-4.266,3.402-7.757,7.664-7.936L-1.328,541.104z M203.392,444.736l-7.304-7.296
	l11.312-11.32l7.304,7.304c2.506,2.509,6.364,3.069,9.48,1.376c2.9-1.561,5.954-2.818,9.112-3.752
	c3.397-1.018,5.718-4.15,5.704-7.696V413h16v10.352c0.001,3.536,2.323,6.653,5.712,7.664c3.158,0.934,6.212,2.191,9.112,3.752
	c3.116,1.693,6.974,1.133,9.48-1.376l7.304-7.304l11.312,11.32l-7.304,7.296c-2.509,2.506-3.069,6.364-1.376,9.48
	c1.561,2.9,2.818,5.954,3.752,9.112c1.011,3.389,4.128,5.711,7.664,5.712H311v16h-10.352c-3.536,0.001-6.653,2.323-7.664,5.712
	c-0.934,3.158-2.191,6.212-3.752,9.112c-1.693,3.116-1.133,6.974,1.376,9.48l7.304,7.304L286.6,527.912l-7.304-7.304
	c-2.506-2.509-6.364-3.069-9.48-1.376c-2.9,1.561-5.954,2.818-9.112,3.752c-3.389,1.011-5.711,4.128-5.712,7.664V541H239v-10.352
	c-0.001-3.536-2.323-6.653-5.712-7.664c-3.158-0.934-6.212-2.191-9.112-3.752c-3.116-1.693-6.974-1.133-9.48,1.376l-7.304,7.304
	L196.096,516.6l7.296-7.304c2.509-2.506,3.069-6.364,1.376-9.48c-1.561-2.9-2.818-5.954-3.752-9.112
	c-1.014-3.385-4.13-5.704-7.664-5.704h-6.488c-1.296-5.333-2.531-10.667-3.704-16h10.184c3.536-0.001,6.653-2.323,7.664-5.712
	c0.934-3.158,2.191-6.212,3.752-9.112c1.691-3.112,1.134-6.966-1.368-9.472V444.736z M179.12,443.096l8.96,8.952L187.672,453h-7.952
	c-0.8-4.072-1.424-8.16-2.144-12.24c0.376,0.853,0.898,1.632,1.544,2.304V443.096z M154.056,269H35.944l-8-16h134.112L154.056,269z
	 M39,285h112v16H39V285z M23,173h16v24c0,4.418,3.582,8,8,8h32c4.418,0,8-3.582,8-8v-24h16v24c0,4.418,3.582,8,8,8h32
	c4.418,0,8-3.582,8-8v-24h16v64H23V173z M39,321.384V317h112v4.384c0.041,68.972,10.156,137.568,30.024,203.616H8.976
	C28.844,458.952,38.959,390.356,39,321.384z"/>
<path style="fill:#33CCCC;" d="M247,517c22.091,0,40-17.909,40-40s-17.909-40-40-40s-40,17.909-40,40
	C207.026,499.08,224.92,516.974,247,517z M247,453c13.255,0,24,10.745,24,24s-10.745,24-24,24s-24-10.745-24-24S233.745,453,247,453
	z"/>
<path style="fill:#33CCCC;" d="M367,277c-22.091,0-40,17.909-40,40s17.909,40,40,40s40-17.909,40-40
	C406.974,294.92,389.08,277.026,367,277z M367,341c-13.255,0-24-10.745-24-24s10.745-24,24-24s24,10.745,24,24S380.255,341,367,341z
	"/>
<path style="fill:#33CCCC;" d="M439,293h-12.672l-0.408-0.984l8.96-8.952c3.123-3.124,3.123-8.188,0-11.312l-22.624-22.632
	c-3.124-3.123-8.188-3.123-11.312,0l-8.96,8.96L391,257.672V245c0-4.418-3.582-8-8-8h-32c-4.418,0-8,3.582-8,8v12.672l-0.984,0.408
	l-8.96-8.96c-3.174-3.001-8.138-3.001-11.312,0l-22.624,22.632c-3.123,3.124-3.123,8.188,0,11.312l8.96,8.952L307.672,293H295
	c-4.418,0-8,3.582-8,8v32c0,4.418,3.582,8,8,8h12.672l0.408,0.984l-8.96,8.96c-3.123,3.124-3.123,8.188,0,11.312l22.624,22.624
	c3.124,3.123,8.188,3.123,11.312,0l8.96-8.96l0.984,0.408V389c0,4.418,3.582,8,8,8h32c4.418,0,8-3.582,8-8v-12.672l0.984-0.408
	l8.96,8.96c3.124,3.123,8.188,3.123,11.312,0l22.624-22.624c3.123-3.124,3.123-8.188,0-11.312l-8.96-8.96l0.408-0.984H439
	c4.418,0,8-3.582,8-8v-32C447,296.582,443.418,293,439,293z M431,325h-10.352c-3.536,0.001-6.653,2.323-7.664,5.712
	c-0.934,3.158-2.191,6.212-3.752,9.112c-1.693,3.116-1.133,6.974,1.376,9.48l7.304,7.304L406.6,367.912l-7.304-7.304
	c-2.506-2.509-6.364-3.069-9.48-1.376c-2.9,1.561-5.954,2.818-9.112,3.752c-3.389,1.011-5.711,4.128-5.712,7.664V381H359v-10.352
	c-0.001-3.536-2.323-6.653-5.712-7.664c-3.158-0.934-6.212-2.191-9.112-3.752c-3.116-1.693-6.974-1.133-9.48,1.376l-7.304,7.304
	L316.088,356.6l7.304-7.304c2.509-2.506,3.069-6.364,1.376-9.48c-1.561-2.9-2.818-5.954-3.752-9.112
	c-1.014-3.385-4.13-5.704-7.664-5.704H303v-16h10.352c3.536-0.001,6.653-2.323,7.664-5.712c0.934-3.158,2.191-6.212,3.752-9.112
	c1.693-3.116,1.133-6.974-1.376-9.48l-7.304-7.296l11.312-11.32l7.304,7.304c2.506,2.509,6.364,3.069,9.48,1.376
	c2.9-1.561,5.954-2.818,9.112-3.752c3.383-1.013,5.701-4.125,5.704-7.656V253h16v10.352c0.001,3.536,2.323,6.653,5.712,7.664
	c3.158,0.934,6.212,2.191,9.112,3.752c3.116,1.693,6.974,1.133,9.48-1.376l7.304-7.304l11.312,11.32l-7.304,7.296
	c-2.509,2.506-3.069,6.364-1.376,9.48c1.561,2.9,2.818,5.954,3.752,9.112c1.011,3.389,4.128,5.711,7.664,5.712H431V325z"/>
<path style="fill:#33CCCC;" d="M277.448,619.584l2.016,15.872c5.24-0.672,10.536-1.6,15.736-2.672l-3.328-15.656
	C287.104,618.152,282.24,618.976,277.448,619.584z"/>
<path style="fill:#33CCCC;" d="M306.04,613.488l4.64,15.312c5.096-1.536,10.168-3.312,15.072-5.256l-5.904-14.872
	C315.352,610.456,310.712,612.072,306.04,613.488z"/>
<path style="fill:#33CCCC;" d="M445.808,466.544c0.584-5.264,0.96-10.624,1.12-15.92l-16-0.472
	c-0.144,4.864-0.488,9.784-1.024,14.608L445.808,466.544z"/>
<path style="fill:#33CCCC;" d="M369.696,578.496c-3.68,3.16-7.544,6.208-11.496,9.08l9.408,12.952
	c4.296-3.128,8.504-6.456,12.512-9.888L369.696,578.496z"/>
<path style="fill:#33CCCC;" d="M429.4,420.936c0.664,4.8,1.128,9.704,1.384,14.56l16-0.84c-0.288-5.304-0.8-10.648-1.504-15.888
	L429.4,420.936z"/>
<path style="fill:#33CCCC;" d="M424.248,493.44l15.376,4.408c1.456-5.072,2.712-10.296,3.752-15.528l-15.704-3.096
	C426.728,484.016,425.576,488.8,424.248,493.44z"/>
<path style="fill:#33CCCC;" d="M346.024,595.664c-4.16,2.512-8.48,4.888-12.8,7.056l7.144,14.328c4.744-2.4,9.44-4.952,13.968-7.696
	L346.024,595.664z"/>
<path style="fill:#33CCCC;" d="M380.392,568.504l11.408,11.2c3.736-3.8,7.344-7.784,10.72-11.832l-12.32-10.208
	C387.128,561.376,383.8,565,380.392,568.504z"/>
<path style="fill:#33CCCC;" d="M413.888,520.776l14.4,6.92c2.28-4.752,4.4-9.696,6.296-14.704l-14.968-5.656
	C417.912,511.904,415.976,516.432,413.888,520.776z"/>
<path style="fill:#33CCCC;" d="M399.128,546.032l13.08,9.216c3.04-4.304,5.944-8.8,8.64-13.456L407,533.736
	C404.6,537.96,401.896,542.096,399.128,546.032z"/>
<path style="fill:#33CCCC;" d="M203.048,280.352l14.968,5.656c1.728-4.568,3.664-9.096,5.752-13.44l-14.4-6.92
	C207.064,270.4,204.944,275.344,203.048,280.352z"/>
<path style="fill:#33CCCC;" d="M257.256,224.84l-11.408-11.2c-3.736,3.8-7.344,7.784-10.72,11.832l12.296,10.232
	C250.52,231.968,253.832,228.32,257.256,224.84z"/>
<path style="fill:#33CCCC;" d="M216.808,251.552l13.816,8.064c2.464-4.208,5.128-8.352,7.904-12.304l-13.08-9.216
	C222.4,242.424,219.496,246.944,216.808,251.552z"/>
<path style="fill:#33CCCC;" d="M194.28,311.032l15.704,3.096c0.944-4.8,2.096-9.6,3.424-14.216l-15.376-4.408
	C196.6,300.568,195.32,305.8,194.28,311.032z"/>
<path style="fill:#33CCCC;" d="M360.2,173.76l-2-15.88c-5.24,0.672-10.536,1.6-15.736,2.672l3.32,15.648
	C350.544,175.192,355.408,174.368,360.2,173.76z"/>
<path style="fill:#33CCCC;" d="M190.736,342.72l16,0.472c0.144-4.864,0.488-9.784,1.024-14.608l-15.904-1.784
	C191.264,332.064,190.888,337.424,190.736,342.72z"/>
<path style="fill:#33CCCC;" d="M327,164.544c-5.096,1.536-10.168,3.312-15.072,5.256l5.904,14.872
	c4.496-1.792,9.136-3.408,13.808-4.8L327,164.544z"/>
<path style="fill:#33CCCC;" d="M279.456,205.8l-9.408-12.976c-4.296,3.128-8.504,6.456-12.512,9.888l10.4,12.144
	C271.632,211.696,275.504,208.64,279.456,205.8z"/>
<path style="fill:#33CCCC;" d="M304.464,190.6l-7.128-14.328c-4.736,2.36-9.448,4.944-13.984,7.696l8.28,13.688
	C295.8,195.152,300.12,192.776,304.464,190.6z"/>
<path style="fill:#33CCCC;" d="M190.92,358.688c0.288,5.304,0.8,10.648,1.504,15.888l15.856-2.168
	c-0.664-4.8-1.128-9.704-1.384-14.56L190.92,358.688z"/>
</svg>
