<?xml version="1.0" encoding="iso-8859-1"?>
<!-- Generator: Adobe Illustrator 22.0.1, SVG Export Plug-In . SVG Version: 6.00 Build 0)  -->
<svg version="1.1" id="Layer_1" xmlns="http://www.w3.org/2000/svg" xmlns:xlink="http://www.w3.org/1999/xlink" x="0px" y="0px"
	 viewBox="0 0 24 24" style="enable-background:new 0 0 24 24;" xml:space="preserve">
<path style="fill:#999999;" d="M1.384,22.982h10.982c0.202,0,0.366-0.164,0.366-0.366v-1.464c0-0.005-0.003-0.009-0.003-0.014
	c-0.001-0.041-0.008-0.081-0.022-0.119l-0.004-0.009l0,0l-0.374-0.967c-0.054-0.139-0.104-0.28-0.154-0.421l-0.012-0.033
	c0.184-0.253,0.247-0.574,0.174-0.879l0.351-0.351l0.045,0.019v0.578c0,0.202,0.164,0.366,0.366,0.366h1.464
	c0.202,0,0.366-0.164,0.366-0.366v-0.58l0.045-0.019l0.41,0.41c0.143,0.143,0.375,0.143,0.518,0l1.035-1.035
	c0.143-0.143,0.143-0.375,0-0.518l-0.41-0.41l0.017-0.045h0.58c0.202,0,0.366-0.164,0.366-0.366v-1.464
	c0-0.202-0.164-0.366-0.366-0.366h-0.58l-0.019-0.045l0.41-0.41c0.143-0.143,0.143-0.375,0-0.518l-1.035-1.036
	c-0.143-0.143-0.375-0.143-0.518,0l-0.41,0.41l-0.045-0.019v-0.58c0-0.202-0.164-0.366-0.366-0.366h-1.464
	c-0.202,0-0.366,0.164-0.366,0.366v0.58l-0.045,0.019l-0.41-0.41c-0.145-0.137-0.372-0.137-0.518,0l-1.035,1.036
	c-0.061,0.063-0.097,0.145-0.102,0.232c-0.299-1.745-0.45-3.512-0.452-5.283V6.595l0.694-1.387H10.86
	c0.027-0.05,0.041-0.107,0.042-0.164V1.384c0-0.202-0.164-0.366-0.366-0.366H9.071c-0.202,0-0.366,0.164-0.366,0.366v1.098H7.973
	V1.384c0-0.202-0.164-0.366-0.366-0.366H6.143c-0.202,0-0.366,0.164-0.366,0.366v1.098H5.045V1.384c0-0.202-0.164-0.366-0.366-0.366
	H3.214c-0.202,0-0.366,0.164-0.366,0.366v3.661C2.849,5.101,2.864,5.157,2.89,5.207H2.887L3.58,6.595V8.54
	c-0.003,3.178-0.484,6.338-1.428,9.373c-0.575,0.177-0.898,0.786-0.721,1.361c0.035,0.113,0.087,0.219,0.156,0.314l-0.012,0.033
	c-0.05,0.141-0.1,0.282-0.154,0.421l-0.376,0.966l0,0l-0.004,0.009c-0.014,0.038-0.022,0.078-0.022,0.119
	c0,0.005-0.003,0.009-0.003,0.014v1.464c-0.001,0.202,0.162,0.367,0.365,0.368C1.383,22.982,1.383,22.982,1.384,22.982z M12,22.25
	H1.75v-0.732H12V22.25z M2.105,20.31c0.037-0.096,0.073-0.192,0.107-0.289c0.005,0,0.011,0,0.016,0.002
	c0.083,0.02,0.168,0.031,0.254,0.031h8.786c0.086-0.001,0.171-0.012,0.254-0.033c0.005,0,0.011,0,0.016-0.002
	c0.035,0.097,0.07,0.193,0.107,0.289l0,0l0.186,0.476H1.919L2.105,20.31z M2.467,18.594H2.47l0.028-0.005h8.754l0.028,0.003h0.005
	c0.194,0.009,0.347,0.168,0.349,0.363c-0.002,0.124-0.067,0.238-0.172,0.303c-0.056,0.041-0.124,0.063-0.194,0.063H2.482
	c-0.07,0-0.137-0.023-0.194-0.063c-0.106-0.065-0.171-0.179-0.172-0.303c0.001-0.195,0.156-0.355,0.351-0.363L2.467,18.594z
	 M11.835,14.184l-0.334-0.334l0.518-0.518l0.334,0.334c0.115,0.115,0.291,0.14,0.434,0.063c0.133-0.071,0.272-0.129,0.417-0.172
	c0.155-0.047,0.262-0.19,0.261-0.352v-0.474h0.732v0.474c0,0.162,0.106,0.304,0.261,0.351c0.145,0.043,0.284,0.1,0.417,0.172
	c0.143,0.077,0.319,0.052,0.434-0.063l0.334-0.334l0.518,0.518l-0.334,0.334c-0.115,0.115-0.14,0.291-0.063,0.434
	c0.071,0.133,0.129,0.272,0.172,0.417c0.046,0.155,0.189,0.261,0.351,0.261h0.473v0.732h-0.474c-0.162,0-0.304,0.106-0.351,0.261
	c-0.043,0.145-0.1,0.284-0.172,0.417c-0.077,0.143-0.052,0.319,0.063,0.434l0.334,0.334l-0.518,0.517l-0.334-0.334
	c-0.115-0.115-0.291-0.14-0.434-0.063c-0.133,0.071-0.272,0.129-0.417,0.172c-0.155,0.046-0.261,0.189-0.261,0.351v0.474h-0.732
	v-0.474c0-0.162-0.106-0.304-0.261-0.351c-0.145-0.043-0.284-0.1-0.417-0.172c-0.143-0.077-0.319-0.052-0.434,0.063l-0.334,0.334
	l-0.517-0.518l0.334-0.334c0.115-0.115,0.14-0.291,0.063-0.434c-0.071-0.133-0.129-0.272-0.172-0.417
	c-0.046-0.155-0.189-0.261-0.351-0.261h-0.297c-0.059-0.244-0.116-0.488-0.169-0.732h0.466c0.162,0,0.304-0.106,0.351-0.261
	c0.043-0.145,0.1-0.284,0.172-0.417c0.077-0.142,0.052-0.319-0.063-0.433V14.184L11.835,14.184z M10.724,14.109l0.41,0.41
	l-0.019,0.044h-0.364c-0.037-0.186-0.065-0.373-0.098-0.56c0.017,0.039,0.041,0.075,0.071,0.105L10.724,14.109L10.724,14.109z
	 M9.577,6.143H4.173L3.807,5.411h6.137L9.577,6.143z M4.312,6.875h5.125v0.732H4.312V6.875z M3.58,1.75h0.732v1.098
	c0,0.202,0.164,0.366,0.366,0.366h1.464c0.202,0,0.366-0.164,0.366-0.366V1.75h0.732v1.098c0,0.202,0.164,0.366,0.366,0.366h1.464
	c0.202,0,0.366-0.164,0.366-0.366V1.75h0.732v2.929H3.58V1.75z M4.312,8.54V8.339h5.125V8.54c0.002,3.156,0.465,6.295,1.374,9.317
	H2.939C3.848,14.835,4.311,11.696,4.312,8.54z"/>
<path style="fill:#999999;" d="M13.83,17.491c1.011,0,1.83-0.819,1.83-1.83s-0.819-1.83-1.83-1.83S12,14.65,12,15.661
	C12.001,16.671,12.82,17.49,13.83,17.491z M13.83,14.562c0.607,0,1.098,0.492,1.098,1.098c0,0.607-0.492,1.098-1.098,1.098
	c-0.607,0-1.098-0.492-1.098-1.098C12.732,15.054,13.224,14.562,13.83,14.562z"/>
<path style="fill:#999999;" d="M19.321,6.509c-1.011,0-1.83,0.819-1.83,1.83s0.819,1.83,1.83,1.83c1.011,0,1.83-0.819,1.83-1.83
	C21.151,7.329,20.332,6.51,19.321,6.509z M19.321,9.437c-0.607,0-1.098-0.492-1.098-1.098c0-0.607,0.492-1.098,1.098-1.098
	s1.098,0.492,1.098,1.098C20.42,8.946,19.928,9.437,19.321,9.437z"/>
<path style="fill:#999999;" d="M22.616,7.241h-0.58l-0.019-0.045l0.41-0.41c0.143-0.143,0.143-0.375,0-0.518l-1.035-1.036
	c-0.143-0.143-0.375-0.143-0.518,0l-0.41,0.41L20.42,5.624v-0.58c0-0.202-0.164-0.366-0.366-0.366h-1.464
	c-0.202,0-0.366,0.164-0.366,0.366v0.58l-0.045,0.019l-0.41-0.41c-0.145-0.137-0.372-0.137-0.518,0l-1.035,1.036
	c-0.143,0.143-0.143,0.375,0,0.518l0.41,0.41l-0.019,0.045h-0.58c-0.202,0-0.366,0.164-0.366,0.366v1.464
	c0,0.202,0.164,0.366,0.366,0.366h0.58l0.019,0.045l-0.41,0.41c-0.143,0.143-0.143,0.375,0,0.518l1.035,1.035
	c0.143,0.143,0.375,0.143,0.518,0l0.41-0.41l0.045,0.019v0.58c0,0.202,0.164,0.366,0.366,0.366h1.464
	c0.202,0,0.366-0.164,0.366-0.366v-0.58l0.045-0.019l0.41,0.41c0.143,0.143,0.375,0.143,0.518,0l1.035-1.035
	c0.143-0.143,0.143-0.375,0-0.518l-0.41-0.41l0.019-0.045h0.58c0.202,0,0.366-0.164,0.366-0.366V7.607
	C22.982,7.405,22.818,7.241,22.616,7.241z M22.25,8.705h-0.474c-0.162,0-0.304,0.106-0.351,0.261
	c-0.043,0.145-0.1,0.284-0.172,0.417c-0.077,0.143-0.052,0.319,0.063,0.434l0.334,0.334l-0.518,0.517l-0.334-0.334
	c-0.115-0.115-0.291-0.14-0.434-0.063c-0.133,0.071-0.272,0.129-0.417,0.172c-0.155,0.046-0.261,0.189-0.261,0.351v0.474h-0.732
	v-0.474c0-0.162-0.106-0.304-0.261-0.351c-0.145-0.043-0.284-0.1-0.417-0.172c-0.143-0.077-0.319-0.052-0.434,0.063l-0.334,0.334
	l-0.517-0.518l0.334-0.334c0.115-0.115,0.14-0.291,0.063-0.434c-0.071-0.133-0.129-0.272-0.172-0.417
	c-0.046-0.155-0.189-0.261-0.351-0.261h-0.474V7.973h0.474c0.162,0,0.304-0.106,0.351-0.261c0.043-0.145,0.1-0.284,0.172-0.417
	c0.077-0.143,0.052-0.319-0.063-0.434l-0.334-0.334l0.518-0.518l0.334,0.334c0.115,0.115,0.291,0.14,0.434,0.063
	c0.133-0.071,0.272-0.129,0.417-0.172c0.155-0.046,0.261-0.189,0.261-0.35V5.411h0.732v0.474c0,0.162,0.106,0.304,0.261,0.351
	c0.145,0.043,0.284,0.1,0.417,0.172c0.143,0.077,0.319,0.052,0.434-0.063l0.334-0.334l0.518,0.518l-0.334,0.334
	c-0.115,0.115-0.14,0.291-0.063,0.434c0.071,0.133,0.129,0.272,0.172,0.417c0.046,0.155,0.189,0.261,0.351,0.261h0.473V8.705z"/>
<path style="fill:#999999;" d="M15.224,22.185l0.092,0.726c0.24-0.031,0.482-0.073,0.72-0.122l-0.152-0.716
	C15.665,22.12,15.443,22.157,15.224,22.185z"/>
<path style="fill:#999999;" d="M16.532,21.906l0.212,0.701c0.233-0.07,0.465-0.152,0.69-0.241l-0.27-0.681
	C16.958,21.768,16.746,21.841,16.532,21.906z"/>
<path style="fill:#999999;" d="M22.928,15.182c0.027-0.241,0.044-0.486,0.051-0.728l-0.732-0.022
	c-0.007,0.223-0.022,0.448-0.047,0.668L22.928,15.182z"/>
<path style="fill:#999999;" d="M19.445,20.305c-0.168,0.145-0.345,0.284-0.526,0.415l0.431,0.593
	c0.197-0.143,0.389-0.295,0.573-0.452L19.445,20.305z"/>
<path style="fill:#999999;" d="M22.177,13.095c0.03,0.22,0.052,0.444,0.063,0.666l0.732-0.038c-0.013-0.243-0.037-0.487-0.069-0.727
	L22.177,13.095z"/>
<path style="fill:#999999;" d="M21.941,16.413l0.704,0.202c0.067-0.232,0.124-0.471,0.172-0.711l-0.719-0.142
	C22.055,15.982,22.002,16.201,21.941,16.413z"/>
<path style="fill:#999999;" d="M18.362,21.091c-0.19,0.115-0.388,0.224-0.586,0.323l0.327,0.656c0.217-0.11,0.432-0.227,0.639-0.352
	L18.362,21.091z"/>
<path style="fill:#999999;" d="M19.934,19.848l0.522,0.513c0.171-0.174,0.336-0.356,0.491-0.541l-0.564-0.467
	C20.242,19.522,20.09,19.688,19.934,19.848z"/>
<path style="fill:#999999;" d="M21.467,17.664l0.659,0.317c0.104-0.217,0.201-0.444,0.288-0.673l-0.685-0.259
	C21.651,17.258,21.563,17.465,21.467,17.664z"/>
<path style="fill:#999999;" d="M20.792,18.82l0.599,0.422c0.139-0.197,0.272-0.403,0.395-0.616l-0.634-0.369
	C21.042,18.45,20.918,18.639,20.792,18.82z"/>
<path style="fill:#999999;" d="M11.819,6.662l0.685,0.259c0.079-0.209,0.168-0.416,0.263-0.615l-0.659-0.317
	C12.003,6.207,11.906,6.433,11.819,6.662z"/>
<path style="fill:#999999;" d="M14.3,4.122L13.778,3.61c-0.171,0.174-0.336,0.356-0.491,0.541l0.563,0.468
	C13.991,4.448,14.143,4.281,14.3,4.122z"/>
<path style="fill:#999999;" d="M12.449,5.344l0.632,0.369c0.113-0.193,0.235-0.382,0.362-0.563l-0.599-0.422
	C12.705,4.927,12.572,5.134,12.449,5.344z"/>
<path style="fill:#999999;" d="M11.418,8.066l0.719,0.142c0.043-0.22,0.096-0.439,0.157-0.651L11.59,7.356
	C11.524,7.587,11.465,7.827,11.418,8.066z"/>
<path style="fill:#999999;" d="M19.01,1.785l-0.092-0.727c-0.24,0.031-0.482,0.073-0.72,0.122l0.152,0.716
	C18.568,1.85,18.791,1.813,19.01,1.785z"/>
<path style="fill:#999999;" d="M11.256,9.516l0.732,0.022c0.007-0.223,0.022-0.448,0.047-0.668l-0.728-0.082
	C11.28,9.029,11.263,9.274,11.256,9.516z"/>
<path style="fill:#999999;" d="M17.491,1.363c-0.233,0.07-0.465,0.152-0.69,0.241l0.27,0.681c0.206-0.082,0.418-0.156,0.632-0.22
	L17.491,1.363z"/>
<path style="fill:#999999;" d="M15.315,3.251l-0.431-0.594C14.688,2.8,14.496,2.953,14.312,3.11l0.476,0.556
	C14.957,3.521,15.135,3.381,15.315,3.251z"/>
<path style="fill:#999999;" d="M16.46,2.555L16.134,1.9c-0.217,0.108-0.432,0.226-0.64,0.352l0.379,0.626
	C16.063,2.764,16.261,2.655,16.46,2.555z"/>
<path style="fill:#999999;" d="M11.264,10.247c0.013,0.243,0.037,0.487,0.069,0.727l0.726-0.099c-0.03-0.22-0.052-0.444-0.063-0.666
	L11.264,10.247z"/>
<g>
</g>
<g>
</g>
<g>
</g>
<g>
</g>
<g>
</g>
<g>
</g>
</svg>
