<?xml version="1.0" encoding="iso-8859-1"?>
<!-- Generator: Adobe Illustrator 22.0.1, SVG Export Plug-In . SVG Version: 6.00 Build 0)  -->
<svg version="1.1" id="Layer_1" xmlns="http://www.w3.org/2000/svg" xmlns:xlink="http://www.w3.org/1999/xlink" x="0px" y="0px"
	 viewBox="0 0 24 24" style="enable-background:new 0 0 24 24;" xml:space="preserve">
<g>
	<path style="fill:#999999;" d="M23.243,14.578L23.17,14.45c-0.922-1.614-1.41-3.451-1.41-5.31V8.07h0.729V7.341H21.76V5.618
		c0.452-0.514,0.729-1.186,0.729-1.922c0-1.608-1.308-2.916-2.916-2.916c-1.53,0-2.785,1.184-2.905,2.684
		c-1.452-0.803-3.081-1.226-4.75-1.226c-4.487,0-8.346,2.985-9.497,7.29H0.982v3.111l1.094,0.729v0.899H1.347v0.729h0.729v1.071
		c0,1.859-0.488,3.696-1.41,5.31l-0.073,0.127l0.469,1.876h6.402l0.469-1.876l-0.073-0.127c-0.084-0.147-0.16-0.298-0.237-0.448
		c1.333,0.649,2.797,0.993,4.294,0.993c3.725,0,7.154-2.14,8.81-5.468h2.046L23.243,14.578z M18.115,6.217
		c0.429,0.249,0.927,0.394,1.458,0.394c0.531,0,1.029-0.145,1.458-0.394v1.123h-2.916V6.217z M19.573,1.508
		c1.206,0,2.187,0.981,2.187,2.187s-0.981,2.187-2.187,2.187c-1.206,0-2.187-0.981-2.187-2.187S18.367,1.508,19.573,1.508z
		 M1.712,12.249v-1.992H3.17v1.458h2.187v-1.458h1.458v1.992l-0.839,0.56H2.551L1.712,12.249z M2.805,13.538h2.916v0.729H2.805
		V13.538z M1.632,22.651l-0.182-0.729h3.907v-0.729H1.585c0.739-1.472,1.151-3.091,1.208-4.739h1.47v-0.729H2.805v-0.729h2.916
		v0.729H4.992v0.729h0.741c0.056,1.648,0.469,3.266,1.208,4.739H6.086v0.729h0.991l-0.182,0.729H1.632z M11.918,21.193
		c-1.693,0-3.34-0.472-4.776-1.359C6.69,18.633,6.45,17.356,6.45,16.067v-1.071h0.729v-0.729H6.45v-0.899l1.094-0.729V9.528H4.628
		v1.458H3.899V9.528h-0.72c1.126-3.884,4.651-6.561,8.74-6.561c1.708,0,3.37,0.479,4.815,1.381c0.11,0.479,0.338,0.913,0.653,1.27
		v1.723h-0.729V8.07h0.729v1.071c0,1.859-0.488,3.696-1.41,5.31l-0.073,0.127l0.469,1.876h3.537
		C18.32,19.35,15.246,21.193,11.918,21.193z M16.942,15.725l-0.182-0.729h3.907v-0.729h-3.772c0.739-1.472,1.151-3.091,1.208-4.739
		h1.47V8.799h-1.458V8.07h2.916v0.729h-0.729v0.729h0.741c0.056,1.648,0.469,3.266,1.208,4.739h-0.856v0.729h0.991l-0.182,0.729
		H16.942z"/>
	<path style="fill:#999999;" d="M11.918,18.641c-0.496,0-0.99-0.061-1.477-0.174c0.008-0.063,0.019-0.125,0.019-0.19
		c0-0.804-0.654-1.458-1.458-1.458c-0.804,0-1.458,0.654-1.458,1.458c0,0.804,0.654,1.458,1.458,1.458
		c0.475,0,0.893-0.231,1.159-0.583c0.578,0.145,1.167,0.219,1.757,0.219c1.82,0,3.566-0.681,4.917-1.918l-0.493-0.538
		C15.127,18.027,13.556,18.641,11.918,18.641z M9.002,19.005c-0.402,0-0.729-0.327-0.729-0.729c0-0.402,0.327-0.729,0.729-0.729
		c0.402,0,0.729,0.327,0.729,0.729C9.731,18.678,9.404,19.005,9.002,19.005z"/>
	<path style="fill:#999999;" d="M13.395,5.696c-0.008,0.062-0.019,0.122-0.019,0.186c0,0.804,0.654,1.458,1.458,1.458
		c0.804,0,1.458-0.654,1.458-1.458s-0.654-1.458-1.458-1.458c-0.477,0-0.897,0.233-1.163,0.588
		c-2.433-0.605-4.893,0.065-6.668,1.695l0.494,0.537C9.068,5.801,11.232,5.192,13.395,5.696z M14.834,5.154
		c0.402,0,0.729,0.327,0.729,0.729c0,0.402-0.327,0.729-0.729,0.729s-0.729-0.327-0.729-0.729
		C14.105,5.481,14.432,5.154,14.834,5.154z"/>
	<path style="fill:#999999;" d="M5.728,8.242l0.619,0.385c0.148-0.238,0.315-0.471,0.495-0.691L6.276,7.475
		C6.077,7.719,5.892,7.977,5.728,8.242z"/>
</g>
<g>
</g>
<g>
</g>
<g>
</g>
<g>
</g>
<g>
</g>
<g>
</g>
</svg>
