<?xml version="1.0" encoding="iso-8859-1"?>
<!-- Generator: Adobe Illustrator 22.0.1, SVG Export Plug-In . SVG Version: 6.00 Build 0)  -->
<svg version="1.1" id="Layer_1" xmlns="http://www.w3.org/2000/svg" xmlns:xlink="http://www.w3.org/1999/xlink" x="0px" y="0px"
	 viewBox="0 0 24 24" style="enable-background:new 0 0 24 24;" xml:space="preserve">
<path style="fill:#A753A0;" d="M20.916,0.667H7.693c-0.757,0-1.373,0.616-1.373,1.372v3.072c-2.508,0.718-4.35,3.032-4.35,5.768
	c0,2.736,1.841,5.05,4.35,5.768v5.284c0,0.757,0.616,1.373,1.373,1.373h10.806c0.128,0,0.251-0.051,0.342-0.142l3.306-3.306
	c0.091-0.091,0.142-0.214,0.142-0.342V2.039C22.289,1.282,21.673,0.667,20.916,0.667L20.916,0.667z M7.693,1.633h13.224
	c0.224,0,0.406,0.182,0.406,0.406v1.459H7.287V2.039C7.287,1.815,7.469,1.633,7.693,1.633L7.693,1.633z M2.937,10.878
	c0-2.774,2.257-5.031,5.031-5.031c2.774,0,5.031,2.257,5.031,5.031s-2.257,5.031-5.031,5.031C5.194,15.91,2.937,13.653,2.937,10.878
	L2.937,10.878z M7.287,21.93v-5.093c0.224,0.025,0.451,0.039,0.682,0.039c1.801,0,3.42-0.799,4.521-2.06h2.962
	c0.267,0,0.483-0.216,0.483-0.484c0-0.267-0.216-0.483-0.483-0.483h-2.273c0.42-0.734,0.69-1.565,0.766-2.451h1.507
	c0.267,0,0.483-0.216,0.483-0.483c0-0.267-0.216-0.484-0.483-0.484H13.95c-0.065-0.884-0.323-1.714-0.731-2.451h2.232
	c0.267,0,0.483-0.216,0.483-0.483c0-0.267-0.216-0.483-0.483-0.483h-2.899C11.45,5.71,9.805,4.88,7.968,4.88
	c-0.23,0-0.458,0.014-0.681,0.039V4.465h14.035V19.03h-1.934c-0.757,0-1.373,0.616-1.373,1.372v1.934H7.693
	C7.469,22.336,7.287,22.154,7.287,21.93L7.287,21.93z M18.983,21.652v-1.25c0-0.224,0.182-0.406,0.406-0.406h1.25L18.983,21.652z
	 M18.983,21.652"/>
<path style="fill:#A753A0;" d="M17.35,7.98h1.605c0.267,0,0.484-0.216,0.484-0.483c0-0.267-0.216-0.483-0.484-0.483H17.35
	c-0.267,0-0.484,0.216-0.484,0.483C16.867,7.764,17.083,7.98,17.35,7.98L17.35,7.98z M17.35,7.98"/>
<path style="fill:#A753A0;" d="M17.35,11.398h1.605c0.267,0,0.484-0.216,0.484-0.483c0-0.267-0.216-0.484-0.484-0.484H17.35
	c-0.267,0-0.484,0.216-0.484,0.484C16.867,11.182,17.083,11.398,17.35,11.398L17.35,11.398z M17.35,11.398"/>
<path style="fill:#A753A0;" d="M17.35,14.816h1.605c0.267,0,0.484-0.216,0.484-0.484c0-0.267-0.216-0.483-0.484-0.483H17.35
	c-0.267,0-0.484,0.216-0.484,0.483C16.867,14.6,17.083,14.816,17.35,14.816L17.35,14.816z M17.35,14.816"/>
<path style="fill:#A753A0;" d="M18.955,18.234c0.267,0,0.484-0.216,0.484-0.483c0-0.267-0.216-0.484-0.484-0.484h-4.522
	c-0.267,0-0.484,0.216-0.484,0.484c0,0.267,0.216,0.483,0.484,0.483H18.955z M18.955,18.234"/>
<path style="fill:#A753A0;" d="M11.721,8.44l-0.59-0.59c-0.159-0.159-0.37-0.246-0.595-0.246c-0.225,0-0.436,0.088-0.595,0.246
	l-3.093,3.093l-0.855-0.855C5.835,9.93,5.624,9.842,5.4,9.842c-0.225,0-0.436,0.088-0.595,0.246l-0.59,0.59
	c-0.328,0.328-0.328,0.861,0,1.189l2.039,2.039c0.159,0.159,0.37,0.246,0.595,0.246c0.225,0,0.436-0.087,0.595-0.246l4.278-4.278
	C12.049,9.301,12.049,8.768,11.721,8.44L11.721,8.44z M6.849,13.134l-1.861-1.861L5.4,10.861l1.108,1.108
	c0.189,0.189,0.495,0.189,0.684,0l3.346-3.346l0.412,0.412L6.849,13.134z M6.849,13.134"/>
<g>
</g>
<g>
</g>
<g>
</g>
<g>
</g>
<g>
</g>
<g>
</g>
</svg>
