<svg xml:space="preserve" xmlns:xlink="http://www.w3.org/1999/xlink" id="Layer_1" style="enable-background:new 0 0 28 28;" version="1.1" viewBox="0 0 28 28" x="0px" xmlns="http://www.w3.org/2000/svg" y="0px">
                      <ellipse cx="9.824" cy="6.841" rx="0.597" ry="0.597" style="fill:#AAAAAA;"></ellipse>
                      <ellipse cx="18.179" cy="21.161" rx="0.597" ry="0.597" style="fill:#AAAAAA;"></ellipse>
                      <ellipse cx="6.841" cy="9.824" rx="0.597" ry="0.597" style="fill:#AAAAAA;"></ellipse>
                      <ellipse cx="21.159" cy="18.177" rx="0.597" ry="0.597" style="fill:#AAAAAA;"></ellipse>
                      <ellipse cx="18.176" cy="6.839" rx="0.597" ry="0.597" style="fill:#AAAAAA;"></ellipse>
                      <ellipse cx="9.823" cy="21.16" rx="0.597" ry="0.597" style="fill:#AAAAAA;"></ellipse>
                      <ellipse cx="21.159" cy="9.824" rx="0.597" ry="0.597" style="fill:#AAAAAA;"></ellipse>
                      <ellipse cx="6.841" cy="18.176" rx="0.597" ry="0.597" style="fill:#AAAAAA;"></ellipse>
                      <path d="M14,0.875C6.781,0.875,0.875,6.781,0.875,14S6.781,27.125,14,27.125c0.358,0,0.597-0.239,0.597-0.597
                                           S14.358,25.932,14,25.932C7.438,25.932,2.068,20.563,2.068,14S7.438,2.068,14,2.068S25.932,7.438,25.932,14
                                           c0,5.727-4.057,10.619-9.665,11.693c-0.298,0.06-0.537,0.358-0.477,0.716c0.06,0.358,0.358,0.537,0.716,0.477
                                           C22.651,25.693,27.125,20.264,27.125,14C27.125,6.781,21.219,0.875,14,0.875z" style="fill:#AAAAAA;"></path>
                      <path d="M14,3.261C8.094,3.261,3.261,8.094,3.261,14S8.094,24.739,14,24.739S24.739,19.906,24.739,14
                                           c0-4.952-3.401-9.247-8.233-10.44c-0.298-0.06-0.656,0.119-0.716,0.418c-0.06,0.298,0.119,0.656,0.418,0.716
                                           c4.116,1.014,7.04,4.534,7.338,8.71h-1.193c-0.358,0-0.597,0.239-0.597,0.597s0.239,0.597,0.597,0.597h1.134
                                           c-0.298,4.773-4.116,8.591-8.889,8.889v-1.134c0-0.358-0.239-0.597-0.597-0.597s-0.597,0.239-0.597,0.597v1.134
                                           c-4.773-0.298-8.591-4.116-8.889-8.889h1.134c0.358,0,0.597-0.239,0.597-0.597s-0.239-0.597-0.597-0.597H4.455
                                           c0.298-4.773,4.176-8.651,8.949-8.949v1.193c0,0.358,0.239,0.597,0.597,0.597s0.597-0.239,0.597-0.597v-1.79
                                           C14.597,3.5,14.358,3.261,14,3.261z" style="fill:#AAAAAA;"></path>
                      <path d="M14.597,12.33V9.227c0-0.358-0.239-0.597-0.597-0.597s-0.597,0.239-0.597,0.597v3.102
                                           c-0.716,0.239-1.193,0.895-1.193,1.67c0,1.014,0.776,1.79,1.79,1.79c0.298,0,0.537-0.06,0.776-0.179l0,0l3.58,3.58
                                           c0.119,0.119,0.298,0.179,0.418,0.179s0.298-0.06,0.418-0.179c0.239-0.239,0.239-0.597,0-0.835l-3.58-3.58l0,0
                                           C15.73,14.537,15.79,14.298,15.79,14C15.79,13.224,15.313,12.568,14.597,12.33z M14,14.597c-0.358,0-0.597-0.239-0.597-0.597
                                           s0.239-0.597,0.597-0.597s0.597,0.239,0.597,0.597S14.358,14.597,14,14.597z" style="fill:#AAAAAA;"></path>
                    </svg>