<?xml version="1.0" encoding="utf-8"?>
<!-- Generator: Adobe Illustrator 22.1.0, SVG Export Plug-In . SVG Version: 6.00 Build 0)  -->
<svg version="1.1" id="Layer_1" xmlns="http://www.w3.org/2000/svg" xmlns:xlink="http://www.w3.org/1999/xlink" x="0px" y="0px"
	 viewBox="0 0 1728 1728" style="enable-background:new 0 0 1728 1728;" xml:space="preserve">
<style type="text/css">
	.st0{fill:#999999;}
</style>
<g>
	<path class="st0" d="M864,1684c-69.5,0-145.9-6.9-215.4-27.8c-215.4-55.6-389.2-194.6-500.3-382.2S9.3,864,64.8,648.6
		s194.6-389.2,382.2-500.3l20.8,34.7L454,155.2C641.6,44,864,16.2,1079.4,71.8s389.2,194.6,500.3,382.2
		c111.2,187.6,139,410,83.4,625.4s-194.6,389.2-382.2,500.3C1148.9,1649.3,1009.9,1684,864,1684z M864,127.4
		c-125.1,0-250.2,34.7-368.3,97.3C328.9,322,203.8,481.8,155.2,676.4c-48.6,187.6-27.8,389.2,76.4,555.9
		c97.3,173.7,257.1,291.9,444.7,340.5c187.6,48.6,389.2,27.8,555.9-76.4c173.7-97.3,291.9-257.1,340.5-444.7
		c48.6-187.6,27.8-389.2-76.4-555.9c-97.3-173.7-257.1-291.9-444.7-340.5C989.1,134.3,926.5,127.4,864,127.4z"/>
	<path class="st0" d="M683.3,1260.1c-13.9,0-27.8-6.9-41.7-13.9c-27.8-13.9-41.7-48.6-41.7-76.4V558.2c0-34.7,13.9-62.5,41.7-76.4
		c27.8-13.9,62.5-13.9,90.3,0l528.1,305.8c27.8,13.9,41.7,48.6,41.7,76.4c0,34.7-13.9,62.5-41.7,76.4L732,1246.2
		C718.1,1253.2,697.2,1260.1,683.3,1260.1z M683.3,558.2L683.3,558.2L683.3,558.2l-6.9,611.5l0,0c0,0,0,0,6.9,0L1211.5,864l0,0l0,0
		L683.3,558.2L683.3,558.2L683.3,558.2z"/>
	<path class="st0" d="M1336.5,544.3c-13.9,0-27.8-6.9-34.7-13.9c-90.3-111.2-222.4-187.6-361.4-208.5c-20.8,0-41.7-27.8-34.7-48.6
		c0-20.8,27.8-41.7,48.6-34.7c166.8,20.8,319.7,111.2,416.9,243.2c13.9,20.8,13.9,48.6-6.9,62.5
		C1350.4,537.4,1343.5,544.3,1336.5,544.3z"/>
</g>
</svg>
