<?xml version="1.0" encoding="utf-8"?>
<!-- Generator: Adobe Illustrator 22.1.0, SVG Export Plug-In . SVG Version: 6.00 Build 0)  -->
<svg version="1.1" id="Layer_1" xmlns="http://www.w3.org/2000/svg" xmlns:xlink="http://www.w3.org/1999/xlink" x="0px" y="0px"
	 viewBox="0 0 24 24" style="enable-background:new 0 0 24 24;" xml:space="preserve">
<style type="text/css">
	.st0{fill:#F55269;}
</style>
<g>
	<path class="st0" d="M21.7,8.9H14c-0.3-1.2-1-2.3-2-3.1C10.5,4.4,8.7,3.8,6.8,4c-3.1,0.3-5.6,2.8-5.9,6c-0.2,1.7,0.3,3.4,1.3,4.7
		c1,1.3,2.4,2.2,3.9,2.5l1.7,1.7c0.1,0.1,0.3,0.2,0.5,0.2c0.1,0,0.2,0,0.3-0.1C8.8,18.9,9,18.7,9,18.4v-1.2c0.3-0.1,0.5-0.1,0.8-0.2
		v0c0,0.8,0.7,1.5,1.5,1.5h2.5l1.3,1.3c0.1,0.1,0.3,0.2,0.4,0.2c0.1,0,0.2,0,0.2,0c0.2-0.1,0.4-0.3,0.4-0.6v-0.9h5.6
		c0.8,0,1.5-0.7,1.5-1.5v-6.7C23.2,9.5,22.5,8.9,21.7,8.9z M8.6,16.6c-0.2,0-0.3,0.2-0.3,0.3v1.4c0,0,0,0,0,0c0,0,0,0,0,0l-1.7-1.7
		c0,0-0.1-0.1-0.2-0.1c-1.4-0.3-2.7-1.1-3.6-2.3c-0.9-1.2-1.3-2.7-1.2-4.2c0.1-1.3,0.7-2.6,1.7-3.6c1-1,2.2-1.6,3.6-1.7
		c0.2,0,0.5,0,0.7,0c1.5,0,2.9,0.5,4,1.5c1.3,1.1,2,2.8,2,4.5C13.5,13.6,11.4,16.1,8.6,16.6z M22.5,17c0,0.4-0.3,0.8-0.8,0.8h-6
		c-0.2,0-0.3,0.2-0.3,0.3v1l-1.3-1.3c-0.1-0.1-0.2-0.1-0.2-0.1h-2.6c-0.4,0-0.8-0.3-0.8-0.8v-0.3c2.2-1.1,3.7-3.4,3.7-6
		c0-0.4,0-0.8-0.1-1.1h7.6c0.4,0,0.8,0.3,0.8,0.8V17z"/>
	<path class="st0" d="M19,11.6L15.5,15l-1.6-1.6c-0.1-0.1-0.4-0.1-0.5,0c-0.1,0.1-0.1,0.4,0,0.5l1.9,1.9c0.1,0.1,0.2,0.1,0.2,0.1
		s0.2,0,0.2-0.1l3.7-3.7c0.1-0.1,0.1-0.4,0-0.5C19.3,11.4,19.1,11.4,19,11.6z"/>
	<path class="st0" d="M6.5,13.3C6.5,13.3,6.5,13.3,6.5,13.3c-0.2,0-0.4,0.2-0.4,0.4c0,0,0,0,0,0c0,0,0,0,0,0c0,0.2,0.2,0.4,0.4,0.4
		c0,0,0,0,0,0c0.2,0,0.4-0.2,0.4-0.4c0,0,0,0,0,0c0,0,0,0,0,0C6.9,13.5,6.7,13.3,6.5,13.3z"/>
	<path class="st0" d="M6.5,7.4c-1.2,0-2.2,1-2.2,2.2c0,0.2,0.2,0.3,0.3,0.3S5,9.8,5,9.6c0-0.8,0.7-1.5,1.5-1.5
		c0.4,0,0.8,0.2,1.1,0.5C7.9,8.8,8,9.2,8,9.6C8,10.2,7.6,10.8,7,11c-0.5,0.1-0.8,0.6-0.8,1v0.1c0,0.2,0.2,0.3,0.3,0.3
		s0.3-0.2,0.3-0.3v-0.1c0-0.2,0.1-0.3,0.3-0.4c0.9-0.3,1.6-1.2,1.6-2.1C8.7,9,8.5,8.4,8.1,8C7.7,7.6,7.1,7.4,6.5,7.4z"/>
</g>
</svg>
