<?xml version="1.0" encoding="iso-8859-1"?>
<!-- Generator: Adobe Illustrator 22.0.1, SVG Export Plug-In . SVG Version: 6.00 Build 0)  -->
<svg version="1.1" id="Layer_1" xmlns="http://www.w3.org/2000/svg" xmlns:xlink="http://www.w3.org/1999/xlink" x="0px" y="0px"
	 viewBox="0 0 50 54" style="enable-background:new 0 0 50 54;" xml:space="preserve">
<g>
	<defs>
		<rect id="SVGID_1_" x="1.628" y="1.5" width="46.744" height="51"/>
	</defs>
	<clipPath id="SVGID_2_">
		<use xlink:href="#SVGID_1_"  style="overflow:visible;"/>
	</clipPath>
	<path style="clip-path:url(#SVGID_2_);fill:#A0CD4E;" d="M21.791,43.172c-0.643-0.584-1.021-1.416-1.042-2.286
		c-0.023-0.864,0.317-1.713,0.932-2.327l6.375-6.375c0.593-0.594,1.415-0.934,2.254-0.934h8.5c0.587,0,1.063-0.475,1.063-1.063v-17
		c0-0.294-0.12-0.56-0.313-0.752L28.937,1.813C28.744,1.62,28.479,1.5,28.184,1.5H5.872c-2.343,0-4.25,1.906-4.25,4.25v42.5
		c0,2.344,1.907,4.25,4.25,4.25h23.431c0.44,0,0.832-0.27,0.992-0.68c0.158-0.409,0.048-0.874-0.278-1.169L21.791,43.172
		 M29.247,5.127l6.998,6.998h-4.872c-1.173,0-2.125-0.954-2.125-2.125V5.127z M9.059,18.5h23.375c0.587,0,1.063,0.475,1.063,1.062
		c0,0.587-0.475,1.063-1.063,1.063H9.059c-0.587,0-1.063-0.475-1.063-1.063C7.997,18.975,8.472,18.5,9.059,18.5z M9.059,24.875
		h23.375c0.587,0,1.063,0.475,1.063,1.062c0,0.587-0.475,1.063-1.063,1.063H9.059c-0.587,0-1.063-0.475-1.063-1.063
		C7.997,25.35,8.472,24.875,9.059,24.875z M9.059,31.25h13.812c0.587,0,1.063,0.475,1.063,1.062c0,0.587-0.475,1.063-1.063,1.063
		H9.059c-0.587,0-1.063-0.475-1.063-1.063C7.997,31.725,8.472,31.25,9.059,31.25z M9.059,37.625h8.5
		c0.587,0,1.063,0.475,1.063,1.062c0,0.587-0.475,1.063-1.063,1.063h-8.5c-0.587,0-1.063-0.475-1.063-1.063
		C7.997,38.1,8.472,37.625,9.059,37.625z M18.63,46.101l-9.569,0.024H9.059c-0.585,0-1.06-0.474-1.063-1.059
		C7.995,44.478,8.47,44.001,9.057,44l9.569-0.024h0.002c0.585,0,1.06,0.474,1.063,1.059C19.693,45.623,19.217,46.1,18.63,46.101z"/>
	<path style="clip-path:url(#SVGID_2_);fill:#A0CD4E;" d="M48.061,40.061l-6.375-6.375c-0.199-0.199-0.469-0.311-0.751-0.311H30.309
		c-0.282,0-0.552,0.112-0.751,0.311l-6.375,6.375c-0.205,0.205-0.317,0.486-0.311,0.776c0.006,0.29,0.133,0.565,0.349,0.762
		l11.688,10.625c0.201,0.184,0.459,0.276,0.714,0.276h0c0.255,0,0.513-0.092,0.714-0.276l11.687-10.625
		c0.216-0.196,0.342-0.471,0.349-0.762C48.378,40.547,48.266,40.267,48.061,40.061 M30.654,41.875l2.269,5.672l-6.24-5.672H30.654z
		 M38.322,47.547l2.269-5.672h3.97L38.322,47.547z M36.981,35.5l1.417,4.25h-5.55l1.417-4.25H36.981z"/>
</g>
</svg>
