<?xml version="1.0" encoding="iso-8859-1"?>
<!-- Generator: Adobe Illustrator 22.0.1, SVG Export Plug-In . SVG Version: 6.00 Build 0)  -->
<svg version="1.1" id="Layer_1" xmlns="http://www.w3.org/2000/svg" xmlns:xlink="http://www.w3.org/1999/xlink" x="0px" y="0px"
	 viewBox="0 0 50 54" style="enable-background:new 0 0 50 54;" xml:space="preserve">
<g>
	<path style="fill:#A0CD4E;" d="M16.974,38.791l-1.947-3.155l-4.112,0.739l5.406-9.596H5.78V52h17.964V26.779L16.974,38.791z
		 M16.974,38.791"/>
	<path style="fill:#A0CD4E;" d="M46.54,14.742H34.617c0.694-0.356,1.319-0.73,1.867-1.13c2.122-1.52,3.25-3.451,3.242-5.362
		c0-1.564-0.739-3.807-1.816-4.746C36.833,2.556,35.398,2,33.869,2c-1.635,0-3.155,0.565-4.459,1.435
		c-1.956,1.313-3.486,4.145-4.572,6.31c-0.06,0.113-0.114,0.218-0.165,0.32c-0.401-0.834-0.87-2.512-1.399-3.266
		c-0.921-1.322-2.034-2.494-3.337-3.364C18.633,2.565,17.12,2,15.487,2c-1.626,0.009-3.119,0.688-4.232,1.74
		C10.15,4.781,9.369,7.128,9.369,8.797c-0.009,0.981,0.278,2.007,0.861,2.937c0.739,1.166,1.911,2.183,3.538,3.008H2.781
		l0.027,10.03H23.43v-10.03h2.512v10.03h20.634L46.54,14.742z M14.48,11.614c-0.825-0.532-1.339-1.052-1.635-1.522
		c-0.294-0.469-0.398-1.295-0.398-1.695c0-0.676,0.329-1.86,0.93-2.416c0.581-0.556,1.382-0.903,2.094-0.903h0.018
		c0.921,0.009,1.824,0.314,2.737,0.921c1.366,0.897,2.652,3.337,3.538,5.128c0.47,0.912,0.825,1.869,1.061,2.799
		C18.693,13.498,16.026,12.586,14.48,11.614L14.48,11.614z M28.594,9.431c0.748-1.068,1.624-2.823,2.536-3.433
		c0.903-0.607,1.818-0.912,2.739-0.921h0.009c0.763,0,1.493,0.305,1.998,0.748c0.505,0.452,0.774,1.268,0.774,1.851
		c-0.018,0.687-0.365,2.26-1.974,3.433c-1.513,1.104-4.154,2.243-8.205,3.033C26.854,12.535,27.602,10.831,28.594,9.431
		L28.594,9.431z M28.594,9.431"/>
	<path style="fill:#A0CD4E;" d="M38.466,36.33l-4.112-0.694l-1.938,3.197l-6.692-11.89V52h17.879V26.779H33.06L38.466,36.33z
		 M38.466,36.33"/>
</g>
</svg>
