<?xml version="1.0" encoding="iso-8859-1"?>
<!-- Generator: Adobe Illustrator 22.1.0, SVG Export Plug-In . SVG Version: 6.00 Build 0)  -->
<svg version="1.1" id="Layer_1" xmlns="http://www.w3.org/2000/svg" xmlns:xlink="http://www.w3.org/1999/xlink" x="0px" y="0px"
	 viewBox="0 0 20 20" style="enable-background:new 0 0 20 20;" xml:space="preserve">
<g>
	<path style="fill:#FFFFFF;" d="M17.234,3.839L14.161,2.18l0,0l-2.048-1.106l0,0l-0.574-0.307c-0.553-0.287-1.27-0.082-1.577,0.471
		L6.603,7.445H2.547c-0.512,0-0.922,0.41-0.922,0.922v1.639v8.419c0,0.512,0.41,0.922,0.922,0.922h12.967
		c0.512,0,0.922-0.41,0.922-0.922v-2.356h0.389c0.205,0,0.369-0.164,0.369-0.369v-2.683c0-0.205-0.164-0.369-0.369-0.369h-0.389
		v-2.642c0-0.43-0.307-0.799-0.717-0.901l1.987-3.687C18.013,4.864,17.808,4.147,17.234,3.839z M10.618,1.586
		c0.102-0.205,0.389-0.287,0.594-0.184l0.574,0.307L7.791,9.083H6.562L10.618,1.586z M13.178,2.467L9.614,9.083H8.61l3.81-7.026
		L13.178,2.467z M2.547,8.162h3.687L5.742,9.063H2.547c-0.061,0-0.143,0-0.205,0.02V8.346C2.342,8.264,2.424,8.162,2.547,8.162z
		 M16.456,13.365v1.967h-0.02h-2.13c-0.205,0-0.369-0.164-0.369-0.369v-1.25c0-0.205,0.164-0.369,0.369-0.369h2.13h0.02V13.365z
		 M14.305,12.648c-0.594,0-1.086,0.492-1.086,1.086v1.25c0,0.594,0.492,1.086,1.086,1.086h1.413v2.356
		c0,0.102-0.082,0.205-0.205,0.205H2.547c-0.102,0-0.205-0.082-0.205-0.205v-8.419c0-0.102,0.082-0.205,0.205-0.205h3.4h1.454h2.642
		h5.08h0.389c0.102,0,0.205,0.082,0.205,0.205v2.642H14.305z M17.07,5.069l-2.171,4.015h-4.466l3.38-6.268l3.073,1.659
		C17.111,4.597,17.193,4.864,17.07,5.069z"/>
	<path style="fill:#FFFFFF;" d="M15.677,4.72l-0.184-0.102c-0.451-0.246-1.065-0.061-1.311,0.389l-0.225,0.43
		c-0.123,0.225-0.143,0.492-0.082,0.737c0.082,0.246,0.246,0.451,0.471,0.574l0.184,0.102c0.143,0.082,0.307,0.123,0.451,0.123
		c0.348,0,0.676-0.184,0.86-0.512l0.225-0.43c0.123-0.225,0.143-0.492,0.082-0.737C16.066,5.048,15.903,4.843,15.677,4.72z
		 M15.431,5.683l-0.225,0.43c-0.061,0.123-0.205,0.164-0.328,0.102l-0.184-0.102c-0.061-0.02-0.102-0.082-0.123-0.143
		c-0.02-0.061-0.02-0.123,0.02-0.184l0.225-0.43c0.041-0.082,0.123-0.123,0.205-0.123c0.041,0,0.082,0,0.123,0.02l0.184,0.102
		c0.061,0.02,0.102,0.082,0.123,0.143C15.472,5.56,15.472,5.622,15.431,5.683z"/>
</g>
</svg>
