<?xml version="1.0" encoding="iso-8859-1"?>
<!-- Generator: Adobe Illustrator 22.0.1, SVG Export Plug-In . SVG Version: 6.00 Build 0)  -->
<svg version="1.1" id="Capa_1" xmlns="http://www.w3.org/2000/svg" xmlns:xlink="http://www.w3.org/1999/xlink" x="0px" y="0px"
	 viewBox="176 366 62 62" style="enable-background:new 176 366 62 62;" xml:space="preserve">
<polygon style="fill:#A0CE4E;" points="220.598,367.843 220.598,383.395 236.151,383.395 "/>
<path style="fill:#A0CE4E;" d="M187.55,395.059c-5.358,0-9.72,4.362-9.72,9.72c0,2.764,1.174,5.253,3.033,7.022l-2.978,11.948
	c-0.183,0.735,0.082,1.512,0.673,1.991c0.591,0.474,1.407,0.556,2.084,0.222l6.909-3.456l6.905,3.456
	c0.276,0.132,0.575,0.202,0.871,0.202c0.432,0,0.863-0.144,1.217-0.424c0.591-0.478,0.855-1.252,0.673-1.991l-2.978-11.948
	c1.858-1.769,3.033-4.257,3.033-7.022C197.27,399.422,192.908,395.059,187.55,395.059z M187.55,410.611
	c-3.215,0-5.832-2.617-5.832-5.832c0-3.215,2.617-5.832,5.832-5.832s5.832,2.617,5.832,5.832
	C193.382,407.995,190.766,410.611,187.55,410.611z"/>
<path style="fill:#A0CE4E;" d="M216.71,383.395v-15.552h-23.328c-2.142,0-3.888,1.746-3.888,3.888v19.638
	c6.579,0.953,11.664,6.571,11.664,13.41c0,2.939-0.933,5.731-2.659,8.052l2.356,9.444h31.407c2.146,0,3.888-1.742,3.888-3.888
	v-31.104h-15.552C218.456,387.283,216.71,385.538,216.71,383.395z M197.27,381.451c0-1.073,0.871-1.944,1.944-1.944h11.664
	c1.073,0,1.944,0.871,1.944,1.944s-0.871,1.944-1.944,1.944h-11.664C198.141,383.395,197.27,382.524,197.27,381.451z
	 M226.431,406.723h-19.44c-1.073,0-1.944-0.871-1.944-1.944c0-1.073,0.871-1.944,1.944-1.944h19.44c1.073,0,1.944,0.871,1.944,1.944
	C228.375,405.852,227.504,406.723,226.431,406.723z M228.375,393.115c0,1.073-0.871,1.944-1.944,1.944h-23.328
	c-1.073,0-1.944-0.871-1.944-1.944c0-1.073,0.871-1.944,1.944-1.944h23.328C227.504,391.171,228.375,392.042,228.375,393.115z"/>
</svg>
