<?xml version="1.0" encoding="UTF-8"?>
<svg width="20px" height="18px" viewBox="0 0 20 18" version="1.1" xmlns="http://www.w3.org/2000/svg" xmlns:xlink="http://www.w3.org/1999/xlink">
    <!-- Generator: Sketch 52.5 (67469) - http://www.bohemiancoding.com/sketch -->
    <title>duration</title>
    <desc>Created with Sketch.</desc>
    <g id="Website" stroke="none" stroke-width="1" fill="none" fill-rule="evenodd">
        <g id="Final-Prod-Page-1" transform="translate(-307.000000, -405.000000)" fill="#FFFFFF" fill-rule="nonzero">
            <g id="Group-15" transform="translate(117.000000, 401.000000)">
                <g id="Group-16" transform="translate(190.000000, 0.000000)">
                    <g id="duration" transform="translate(0.000000, 4.000000)">
                        <path d="M20,2.93877551 L20,7.08979592 C20,7.49559949 19.6502686,7.8244898 19.21875,7.8244898 C18.7872314,7.8244898 18.4375,7.49559949 18.4375,7.08979592 L18.4375,2.93877551 C18.4375,2.1286033 17.7365113,1.46938776 16.875,1.46938776 L3.125,1.46938776 C2.26348875,1.46938776 1.5625,2.1286033 1.5625,2.93877551 L1.5625,14.3632653 C1.5625,15.1734375 2.26348875,15.8326531 3.125,15.8326531 L10.390625,15.8326531 C10.8221436,15.8326531 11.171875,16.1615434 11.171875,16.5673469 C11.171875,16.9731505 10.8221436,17.3020408 10.390625,17.3020408 L3.125,17.3020408 C1.40182496,17.3020408 0,15.9837532 0,14.3632653 L0,2.93877551 C0,1.31828764 1.40182496,0 3.125,0 L16.875,0 C18.598175,0 20,1.31828764 20,2.93877551 Z M3.7890625,12.8938776 C3.35754395,12.8938776 3.0078125,13.2227679 3.0078125,13.6285714 C3.0078125,14.034375 3.35754395,14.3632653 3.7890625,14.3632653 C4.22058105,14.3632653 4.5703125,14.034375 4.5703125,13.6285714 C4.5703125,13.2227679 4.22058105,12.8938776 3.7890625,12.8938776 Z M6.9140625,12.8938776 C6.48254395,12.8938776 6.1328125,13.2227679 6.1328125,13.6285714 C6.1328125,14.034375 6.48254395,14.3632653 6.9140625,14.3632653 C7.34558105,14.3632653 7.6953125,14.034375 7.6953125,13.6285714 C7.6953125,13.2227679 7.34558105,12.8938776 6.9140625,12.8938776 Z M10.0390625,12.8938776 C9.60754395,12.8938776 9.2578125,13.2227679 9.2578125,13.6285714 C9.2578125,14.034375 9.60754395,14.3632653 10.0390625,14.3632653 C10.4705811,14.3632653 10.8203125,14.034375 10.8203125,13.6285714 C10.8203125,13.2227679 10.4705811,12.8938776 10.0390625,12.8938776 Z M4.5703125,3.67346939 C4.5703125,3.26766582 4.22058105,2.93877551 3.7890625,2.93877551 C3.35754395,2.93877551 3.0078125,3.26766582 3.0078125,3.67346939 C3.0078125,4.07927296 3.35754395,4.40816327 3.7890625,4.40816327 C4.22058105,4.40816327 4.5703125,4.07927296 4.5703125,3.67346939 Z M7.6953125,3.67346939 C7.6953125,3.26766582 7.34558105,2.93877551 6.9140625,2.93877551 C6.48254395,2.93877551 6.1328125,3.26766582 6.1328125,3.67346939 C6.1328125,4.07927296 6.48254395,4.40816327 6.9140625,4.40816327 C7.34558105,4.40816327 7.6953125,4.07927296 7.6953125,3.67346939 Z M10.8203125,3.67346939 C10.8203125,3.26766582 10.4705811,2.93877551 10.0390625,2.93877551 C9.60754395,2.93877551 9.2578125,3.26766582 9.2578125,3.67346939 C9.2578125,4.07927296 9.60754395,4.40816327 10.0390625,4.40816327 C10.4705811,4.40816327 10.8203125,4.07927296 10.8203125,3.67346939 Z M13.9453125,3.67346939 C13.9453125,3.26766582 13.5955811,2.93877551 13.1640625,2.93877551 C12.7325439,2.93877551 12.3828125,3.26766582 12.3828125,3.67346939 C12.3828125,4.07927296 12.7325439,4.40816327 13.1640625,4.40816327 C13.5955811,4.40816327 13.9453125,4.07927296 13.9453125,3.67346939 Z M17.0703125,3.67346939 C17.0703125,3.26766582 16.7205811,2.93877551 16.2890625,2.93877551 C15.8575439,2.93877551 15.5078125,3.26766582 15.5078125,3.67346939 C15.5078125,4.07927296 15.8575439,4.40816327 16.2890625,4.40816327 C16.7205811,4.40816327 17.0703125,4.07927296 17.0703125,3.67346939 Z M20,10.5306601 L20,11.0051977 C20,11.9825414 18.9561463,12.796301 18.1939697,13.3905134 C18.1015015,13.4626913 18.0133057,13.5314254 17.9368591,13.5929847 C18.008728,13.6503827 18.0900574,13.7138074 18.1750488,13.780102 C18.9451599,14.3800542 20,15.201706 20,16.1784757 L20,16.6530134 C20,17.395743 19.3571472,18 18.5668945,18 L14.1674805,18 C13.3772278,18 12.734375,17.395743 12.734375,16.6530134 L12.734375,16.1784757 C12.734375,15.1870695 13.8180542,14.3288265 14.6095276,13.7021843 C14.6664429,13.6569834 14.7213745,13.6135045 14.7723389,13.5727519 C14.7019959,13.5165019 14.6229553,13.4549426 14.5404053,13.3905134 C13.7782288,12.796301 12.734375,11.9825414 12.734375,11.0051977 L12.734375,10.5306601 C12.734375,9.78793049 13.3772278,9.18367347 14.1674805,9.18367347 L18.5670471,9.18367347 C19.3571472,9.18367347 20,9.78793049 20,10.5306601 Z M18.4375,10.6530612 L14.296875,10.6530612 L14.296875,11.0051977 C14.296875,11.0064892 14.3043518,11.1486926 14.6247864,11.4805963 C14.887085,11.7522321 15.2326965,12.0215721 15.5375671,12.2591996 C15.6530762,12.3493144 15.7620239,12.4342634 15.8601379,12.514477 C16.1729431,12.7700414 16.3671875,13.1751276 16.3671875,13.5714604 C16.3671875,13.9755421 16.1859131,14.3649872 15.8822632,14.6130899 C15.8009338,14.6796715 15.7110596,14.7507015 15.6159973,14.8260363 C15.3173828,15.0625159 14.9458313,15.356824 14.6650696,15.6479751 C14.3078613,16.018479 14.2970276,16.1774713 14.296875,16.1790498 L14.296875,16.5306122 L18.4375,16.5306122 L18.4375,16.1784757 C18.4373474,16.1776148 18.4266663,16.0313935 18.0970764,15.693176 C17.8309631,15.4201052 17.4842834,15.1499043 17.1783447,14.9117028 C17.0613098,14.82044 16.9508362,14.7343431 16.8519592,14.653699 C16.4945984,14.3615434 16.3671875,13.9030772 16.3671875,13.5714604 C16.3671875,13.1751276 16.5614319,12.7701849 16.8742371,12.514477 C16.9723511,12.4342634 17.0812988,12.3493144 17.1968079,12.2593431 C17.5016785,12.0215721 17.84729,11.7522321 18.109436,11.4805963 C18.4298706,11.1486926 18.4375,11.0064892 18.4375,11.0051977 L18.4375,10.6530612 Z" id="Shape"></path>
                    </g>
                </g>
            </g>
        </g>
    </g>
</svg>