<?xml version="1.0" encoding="iso-8859-1"?>
<!-- Generator: Adobe Illustrator 22.0.1, SVG Export Plug-In . SVG Version: 6.00 Build 0)  -->
<svg version="1.1" id="Capa_1" xmlns="http://www.w3.org/2000/svg" xmlns:xlink="http://www.w3.org/1999/xlink" x="0px" y="0px"
	 viewBox="183 373 48 48" style="enable-background:new 183 373 48 48;" xml:space="preserve">
<path style="fill:#7F7F7F;" d="M228.555,391.034c-1.704-1.43-4.253-1.206-5.681,0.495l-3.836,4.539v-13.162
	c0-1.103-0.459-2.172-1.259-2.931l-5.119-4.863c-0.755-0.717-1.744-1.112-2.784-1.112h-21.833c-2.229,0-4.043,1.814-4.043,4.043
	v37.913c0,2.229,1.814,4.043,4.043,4.043h26.953c2.229,0,4.043-1.814,4.043-4.043v-7.364c0.166-0.196,9.984-11.826,10.015-11.862
	C230.489,395.018,230.267,392.471,228.555,391.034z M226.822,393.099c0.576,0.483,0.639,1.334,0.169,1.895l-0.867,1.027
	l-2.058-1.727l0.87-1.029C225.411,392.699,226.257,392.625,226.822,393.099z M214.743,409.502c-0.134,0.159-0.305,0.287-0.496,0.37
	l-2.473,1.072l0.626-2.621c0.048-0.202,0.145-0.394,0.275-0.549l0.462-0.547l2.064,1.732L214.743,409.502z M216.941,406.899
	l-2.063-1.731c0.209-0.248,6.981-8.26,7.449-8.815l2.059,1.728L216.941,406.899z M216.062,382.086h-5.11v-4.879
	C216.344,382.328,215.961,381.954,216.062,382.086z M214.995,417.304h-26.953c-0.743,0-1.348-0.605-1.348-1.348v-37.913
	c0-0.743,0.605-1.348,1.348-1.348h20.214v6.738c0,0.744,0.603,1.348,1.348,1.348h6.738v14.476c-0.579,0.685-5.227,6.185-5.729,6.78
	c-0.401,0.478-0.69,1.052-0.835,1.659l-1.252,5.243c-0.118,0.496,0.054,1.017,0.445,1.345c0.391,0.328,0.934,0.407,1.402,0.204
	l4.946-2.144c0.371-0.161,0.718-0.38,1.024-0.642v4.253C216.343,416.699,215.738,417.304,214.995,417.304z"/>
<path style="fill:#7F7F7F;" d="M190.738,392.957H212.3c0.744,0,1.348-0.603,1.348-1.348c0-0.744-0.603-1.348-1.348-1.348h-21.562
	c-0.744,0-1.348,0.603-1.348,1.348C189.39,392.353,189.994,392.957,190.738,392.957z"/>
<path style="fill:#7F7F7F;" d="M190.738,401.042H212.3c0.744,0,1.348-0.603,1.348-1.348s-0.603-1.348-1.348-1.348h-21.562
	c-0.744,0-1.348,0.603-1.348,1.348S189.994,401.042,190.738,401.042z"/>
<path style="fill:#7F7F7F;" d="M204.214,406.433h-13.476c-0.744,0-1.348,0.603-1.348,1.348c0,0.744,0.603,1.348,1.348,1.348h13.476
	c0.744,0,1.348-0.603,1.348-1.348C205.562,407.036,204.959,406.433,204.214,406.433z"/>
</svg>
