<?xml version="1.0" encoding="iso-8859-1"?>
<!-- Generator: Adobe Illustrator 22.0.1, SVG Export Plug-In . SVG Version: 6.00 Build 0)  -->
<svg version="1.1" id="Layer_1" xmlns="http://www.w3.org/2000/svg" xmlns:xlink="http://www.w3.org/1999/xlink" x="0px" y="0px"
	 viewBox="0 0 130 91" style="enable-background:new 0 0 130 91;" xml:space="preserve">
<path style="opacity:0.28;fill:#A0CD4E;enable-background:new    ;" d="M112.957,89.444H7.043c-2.957,0-5.376-2.419-5.376-5.376
	V16.487c0-2.957,2.419-5.376,5.376-5.376h105.915c2.957,0,5.376,2.419,5.376,5.376v67.581
	C118.333,87.025,115.914,89.444,112.957,89.444z"/>
<path style="fill:#A0CD4E;" d="M122.957,79.444H17.043c-2.957,0-5.376-2.419-5.376-5.376V6.487c0-2.957,2.419-5.376,5.376-5.376
	h105.915c2.957,0,5.376,2.419,5.376,5.376v67.581C128.333,77.025,125.914,79.444,122.957,79.444z"/>
</svg>
