<?xml version="1.0" encoding="utf-8"?>
<!-- Generator: Adobe Illustrator 16.0.0, SVG Export Plug-In . SVG Version: 6.00 Build 0)  -->
<!DOCTYPE svg PUBLIC "-//W3C//DTD SVG 1.1//EN" "http://www.w3.org/Graphics/SVG/1.1/DTD/svg11.dtd">
<svg version="1.1" id="Layer_1" xmlns="http://www.w3.org/2000/svg" xmlns:xlink="http://www.w3.org/1999/xlink" x="0px" y="0px"
	 width="1500px" height="650px" viewBox="0 0 1500 650" enable-background="new 0 0 1500 650" xml:space="preserve">
<path opacity="0.1" fill="#B3C035" d="M1381.873,123.612c-100.121-22.43-190.975-70.562-294.643-77.633
	c-161.4-10.873-308.344,95.405-466.955,97.126c-134.753,1.555-225.481-107.481-357.573-19.146
	c-95.168,63.835-189.32,98.855-282.964,90.748v38.818v309.691c14.212,8.626,26.393,14.147,47.837,21.564
	c35.402,12.248,68.393,18.293,103.034,16.909c40.859-1.725,83.493-10.521,123.717-20.012c39.209-9.146,74.611-32.435,112.933-45.723
	c68.013-23.808,136.151-47.619,206.578-38.646c32.229,4.146,63.823,7.244,95.039,19.494c32.736,12.767,57.732,23.639,97.324,26.052
	c109.887,6.559,214.569-31.915,322.551-52.099c50.501-9.493,101.769-17.253,152.647-11.734
	c45.682,4.997,89.459,21.91,133.237,39.329c42.379,17.084,85.017,32.439,128.027,44.175V253.526V120.158
	C1465.109,130.341,1426.154,133.618,1381.873,123.612z"/>
<path opacity="0.15" fill="#D2E35D" d="M1381.873,88.416c-100.121-22.427-190.975-70.563-294.643-77.636
	c-161.4-10.87-308.343,95.406-466.954,97.133c-134.753,1.556-225.482-107.485-357.573-19.15
	c-95.168,63.835-189.32,98.856-282.964,90.75v35.713c93.644,8.107,187.796-26.916,282.837-90.579
	c132.093-88.506,222.816,20.707,357.576,19.153c158.609-1.725,305.678-108.002,466.951-97.135
	c103.796,7.074,194.524,55.034,294.64,77.637c44.412,10.006,83.241,6.729,120.546-3.449V85.138
	C1465.109,95.145,1426.154,98.423,1381.873,88.416z"/>
</svg>
