<?xml version="1.0" encoding="utf-8"?>
<!-- Generator: Adobe Illustrator 16.0.0, SVG Export Plug-In . SVG Version: 6.00 Build 0)  -->
<!DOCTYPE svg PUBLIC "-//W3C//DTD SVG 1.1//EN" "http://www.w3.org/Graphics/SVG/1.1/DTD/svg11.dtd">
<svg version="1.1" id="Layer_1" xmlns="http://www.w3.org/2000/svg" xmlns:xlink="http://www.w3.org/1999/xlink" x="0px" y="0px"
	 width="1500px" height="650px" viewBox="0 0 1500 650" enable-background="new 0 0 1500 650" xml:space="preserve">
<path opacity="0.05" fill="#4E72CE" enable-background="new    " d="M1381.873,123.257
	c-100.121-22.43-190.975-70.562-294.643-77.633c-161.4-10.873-308.345,95.405-466.955,97.126
	c-134.753,1.556-225.481-107.48-357.573-19.146c-95.168,63.835-189.32,98.854-282.964,90.748v38.817v309.691
	c14.212,8.626,26.393,14.146,47.837,21.563c35.402,12.248,68.393,18.293,103.034,16.909c40.859-1.725,83.493-10.521,123.717-20.012
	c39.209-9.146,74.611-32.436,112.933-45.724c68.014-23.808,136.151-47.618,206.578-38.646c32.229,4.146,63.823,7.244,95.039,19.494
	c32.736,12.767,57.732,23.639,97.324,26.052c109.887,6.559,214.569-31.915,322.551-52.099
	c50.501-9.493,101.769-17.253,152.647-11.734c45.682,4.997,89.459,21.91,133.236,39.329c42.379,17.084,85.018,32.438,128.027,44.175
	V253.171V119.804C1465.109,129.987,1426.154,133.264,1381.873,123.257z"/>
<path opacity="0.1" fill="#789DEA" enable-background="new    " d="M1381.873,87.618c-100.121-22.428-190.975-70.563-294.643-77.637
	c-161.4-10.869-308.344,95.406-466.954,97.134C485.523,108.671,394.794-0.37,262.703,87.965
	c-95.168,63.835-189.32,98.856-282.964,90.75v35.713c93.644,8.107,187.796-26.916,282.837-90.579
	c132.093-88.506,222.815,20.707,357.576,19.153C778.761,141.278,925.83,35,1087.104,45.867
	c103.796,7.073,194.523,55.033,294.64,77.637c44.412,10.006,83.241,6.729,120.546-3.449V84.34
	C1465.109,94.347,1426.154,97.625,1381.873,87.618z"/>
</svg>
