<?xml version="1.0" encoding="utf-8"?>
<!-- Generator: Adobe Illustrator 22.1.0, SVG Export Plug-In . SVG Version: 6.00 Build 0)  -->
<svg version="1.1" id="Layer_1" xmlns="http://www.w3.org/2000/svg" xmlns:xlink="http://www.w3.org/1999/xlink" x="0px" y="0px"
	 viewBox="0 0 24 24" style="enable-background:new 0 0 24 24;" xml:space="preserve">
<style type="text/css">
	.st0{fill:#999999;}
</style>
<g>
	<path class="st0" d="M7.5,20.5c0.1-0.2,0.1-0.4,0.1-0.6c0-0.8-0.6-1.4-1.4-1.4H6.1c-0.2-0.4-0.4-0.9-0.4-1.4s0.1-0.9,0.4-1.4h0.1
		c0.8,0,1.4-0.6,1.4-1.4c0-0.7-0.6-1.4-1.3-1.4L6.8,10c0-0.3,0-0.6-0.3-0.9C6.2,9,5.8,8.8,5.3,8.8H4.8V7.9c0-0.3-0.2-0.5-0.5-0.5
		S3.8,7.6,3.8,7.9v0.9H3.3C2.8,8.8,2.4,9,2.2,9.3s-0.3,0.6-0.3,0.9L2.4,13c-0.7,0-1.3,0.6-1.3,1.4c0,0.8,0.6,1.4,1.4,1.4l0,0
		c0.2,0.4,0.4,0.9,0.4,1.4s-0.1,0.9-0.4,1.4l0,0C1.7,18.6,1,19.2,1,20c0,0.2,0,0.4,0.1,0.6c-0.5,0.2-0.9,0.7-0.9,1.3
		c0,0.8,0.6,1.4,1.4,1.4H7c0.8,0,1.4-0.6,1.4-1.4C8.4,21.2,8,20.7,7.5,20.5L7.5,20.5z M3.3,9.7h2.1c0.5,0,0.5,0.3,0.5,0.3l-0.5,3h-2
		l-0.5-3C2.8,10,2.9,9.7,3.3,9.7L3.3,9.7z M2.4,14.9c-0.3,0-0.5-0.2-0.5-0.5S2.2,14,2.4,14h3.7c0.3,0,0.5,0.2,0.5,0.5S6.4,15,6.1,15
		H2.4V14.9z M5.1,18.6H3.5c0.2-0.4,0.3-0.9,0.3-1.4s-0.1-0.9-0.3-1.4h1.6c-0.2,0.4-0.3,0.9-0.3,1.4C4.8,17.7,4.9,18.1,5.1,18.6
		L5.1,18.6z M2.4,19.5h0.3l0,0h3.1l0,0h0.4c0.3,0,0.5,0.2,0.5,0.5s-0.2,0.5-0.5,0.5H2.4C2.2,20.4,2,20.2,2,20
		C2,19.7,2.2,19.5,2.4,19.5L2.4,19.5z M7,22.3H1.6c-0.3,0-0.5-0.2-0.5-0.5s0.2-0.5,0.5-0.5H7c0.3,0,0.5,0.2,0.5,0.5
		C7.5,22.1,7.3,22.3,7,22.3L7,22.3z M9,9.2c0.2,0.2,0.2,0.5,0,0.7L7.9,11c-0.1,0.1-0.2,0.1-0.3,0.1c-0.1,0-0.2,0-0.3-0.1
		c-0.2-0.2-0.2-0.5,0-0.7l1.1-1.1C8.6,9,8.9,9,9,9.2L9,9.2z M18.1,11.6l2.4-2.4C20.7,9,21,9,21.2,9.2s0.2,0.5,0,0.7l-2.4,2.4
		c-0.1,0.1-0.2,0.1-0.3,0.1c-0.1,0-0.2,0-0.3-0.1C18,12.1,18,11.8,18.1,11.6L18.1,11.6z M17.8,10.6c-0.2-0.2-0.2-0.5,0-0.7l1-1
		c0.2-0.2,0.5-0.2,0.7,0s0.2,0.5,0,0.7l-1,1c-0.1,0.1-0.2,0.1-0.3,0.1C18,10.7,17.9,10.6,17.8,10.6L17.8,10.6z M22.7,1.1H4.3
		C4,1.1,3.8,1.3,3.8,1.6V6c0,0.3,0.2,0.5,0.5,0.5S4.8,6.3,4.8,6V2H10v5.2H7c-0.3,0-0.5,0.2-0.5,0.5S6.7,8.2,7,8.2h3v5.2H8.8
		c-0.3,0-0.5,0.2-0.5,0.5s0.2,0.5,0.5,0.5H10v5.2H8.8c-0.3,0-0.5,0.2-0.5,0.5s0.2,0.5,0.5,0.5h14c0.3,0,0.5-0.2,0.5-0.5V1.6
		C23.2,1.3,23,1.1,22.7,1.1L22.7,1.1z M16.1,19.5h-5.2v-5.2h5.2V19.5z M16.1,13.4h-5.2V8.2h5.2V13.4z M16.1,7.2h-5.2V2h5.2V7.2z
		 M22.3,19.5h-5.2v-5.2h5.2V19.5z M22.3,13.4h-5.2V8.2h5.2V13.4z M22.3,7.2h-5.2V2h5.2V7.2z M15.4,17.2c0.2,0.2,0.2,0.5,0,0.7l-1,1
		C14.3,19,14.2,19,14.1,19s-0.2,0-0.3-0.1c-0.2-0.2-0.2-0.5,0-0.7l1-1C14.9,17.1,15.2,17.1,15.4,17.2L15.4,17.2z M15.4,4.8
		c0.2,0.2,0.2,0.5,0,0.7l-1,1c-0.1,0.1-0.2,0.1-0.3,0.1s-0.2,0-0.3-0.1c-0.2-0.2-0.2-0.5,0-0.7l1-1C14.9,4.7,15.2,4.7,15.4,4.8
		L15.4,4.8z M21.5,10.9c0.2,0.2,0.2,0.5,0,0.7l-1,1c-0.1,0.1-0.2,0.1-0.3,0.1c-0.1,0-0.2,0-0.3-0.1c-0.2-0.2-0.2-0.5,0-0.7l1-1
		C21,10.8,21.3,10.8,21.5,10.9L21.5,10.9z M12,5.5l2.4-2.4c0.2-0.2,0.5-0.2,0.7,0s0.2,0.5,0,0.7l-2.4,2.4c-0.1,0.1-0.2,0.1-0.3,0.1
		s-0.2,0-0.3-0.1C11.8,6,11.8,5.7,12,5.5L12,5.5z M12,17.9l2.4-2.4c0.2-0.2,0.5-0.2,0.7,0s0.2,0.5,0,0.7l-2.4,2.4
		c-0.1,0.1-0.2,0.1-0.3,0.1s-0.2,0-0.3-0.1C11.8,18.4,11.8,18.1,12,17.9L12,17.9z M11.7,4.5c-0.2-0.2-0.2-0.5,0-0.7l1-1
		c0.2-0.2,0.5-0.2,0.7,0s0.2,0.5,0,0.7l-1,1c-0.1,0.1-0.2,0.1-0.3,0.1C11.9,4.6,11.8,4.5,11.7,4.5L11.7,4.5z M9.4,10.9
		c0.2,0.2,0.2,0.5,0,0.7l-1,1c-0.1,0.1-0.2,0.1-0.3,0.1c-0.1,0-0.2,0-0.3-0.1c-0.2-0.2-0.2-0.5,0-0.7l1-1
		C8.9,10.8,9.2,10.8,9.4,10.9L9.4,10.9z M11.7,16.9c-0.2-0.2-0.2-0.5,0-0.7l1-1c0.2-0.2,0.5-0.2,0.7,0s0.2,0.5,0,0.7l-1,1
		c-0.2,0-0.3,0.1-0.4,0.1S11.8,16.9,11.7,16.9L11.7,16.9z"/>
</g>
</svg>
