<?xml version="1.0" encoding="utf-8"?>
<!-- Generator: Adobe Illustrator 22.1.0, SVG Export Plug-In . SVG Version: 6.00 Build 0)  -->
<svg version="1.1" id="Layer_1" xmlns="http://www.w3.org/2000/svg" xmlns:xlink="http://www.w3.org/1999/xlink" x="0px" y="0px"
	 viewBox="0 0 24 24" style="enable-background:new 0 0 24 24;" xml:space="preserve">
<style type="text/css">
	.st0{fill:#999999;}
</style>
<rect x="11.7" y="10.8" class="st0" width="0.7" height="0.7"/>
<rect x="11.7" y="9.4" class="st0" width="0.7" height="0.7"/>
<rect x="11.7" y="8" class="st0" width="0.7" height="0.7"/>
<rect x="11.7" y="15" class="st0" width="0.7" height="0.7"/>
<rect x="11.7" y="13.6" class="st0" width="0.7" height="0.7"/>
<rect x="11.7" y="12.2" class="st0" width="0.7" height="0.7"/>
<rect x="11.7" y="16.4" class="st0" width="0.7" height="0.7"/>
<rect x="11.7" y="6.6" class="st0" width="0.7" height="0.7"/>
<path class="st0" d="M14.2,3.7c-1,0-1.7,0.3-2.1,0.8c0,0,0,0,0,0c0,0,0-0.1-0.1-0.1c0,0,0,0,0,0c0,0-0.1-0.1-0.1-0.1c0,0,0,0,0,0
	c0,0,0,0-0.1-0.1c0,0,0,0,0,0c0,0,0,0-0.1-0.1c0,0,0,0,0,0c0,0-0.1,0-0.1-0.1c0,0,0,0,0,0c0,0-0.1,0-0.1-0.1c0,0,0,0,0,0
	c0,0-0.1,0-0.1,0c0,0,0,0,0,0c0,0-0.1,0-0.1,0c0,0,0,0,0,0c0,0-0.1,0-0.1,0c0,0,0,0,0,0c0,0-0.1,0-0.1,0c0,0,0,0,0,0
	c0,0-0.1,0-0.1,0c0,0,0,0,0,0c0,0-0.1,0-0.1,0c0,0,0,0,0,0c0,0-0.1,0-0.1,0c0,0,0,0,0,0c0,0-0.1,0-0.1,0c0,0,0,0-0.1,0
	c0,0-0.1,0-0.1,0c0,0,0,0,0,0c-0.1,0-0.1,0-0.2,0c-3.9,0-7-1.8-7-1.9L2.4,1.5v13.8l0.1,0.1c0,0,0.7,0.7,2,1.4c0.4,0.2,1,0.5,1.6,0.7
	H0.9V4.4h0.7V3.7H0.2v14.3v0.3v2.9H10c0.5,0,1.8,0.1,1.8,1.3h0.7c0-1.2,1.2-1.3,1.8-1.3h9.5v-2.9v-0.7V3.7L14.2,3.7L14.2,3.7z
	 M10,20.5H0.9v-0.8h6.8v-0.7H0.9v-0.7H10c0.5,0,1.6,0.1,1.7,1.1V21c0,0,0,0-0.1,0C11.3,20.6,10.7,20.5,10,20.5z M23.1,18.9h-6.6v0.7
	h6.6v0.8h-8.8c-0.7,0-1.3,0.2-1.7,0.5c0,0-0.1,0-0.1,0.1v-1.4h0c0-1.2,1.2-1.3,1.8-1.3h8.8V18.9z M14.2,17.6c-0.7,0-1.3,0.2-1.7,0.5
	c0,0-0.1,0.1-0.1,0.1c0,0,0,0,0,0c0,0,0,0-0.1,0.1c0,0,0,0,0,0c0,0-0.1,0.1-0.1,0.1c0,0,0,0,0,0c0,0-0.1,0.1-0.1,0.1c0,0,0,0,0,0
	c0,0,0,0,0,0c0,0-0.1-0.1-0.1-0.1c0,0,0,0,0,0c0,0-0.1-0.1-0.1-0.1c0,0,0,0,0,0c0,0,0,0-0.1-0.1c0,0,0,0,0,0c0,0-0.1-0.1-0.1-0.1
	c-0.4-0.3-1-0.5-1.7-0.5c-2.3,0-4.1-0.7-5.1-1.3c-0.9-0.5-1.5-1-1.7-1.2V2.7C4.2,3.2,6.8,4.4,10,4.4c0.7,0,1.7,0.2,1.7,1.3h0.7
	c0-1.1,1.1-1.3,1.7-1.3h8.9v13.2H14.2z"/>
<rect x="14.7" y="6.1" class="st0" width="6.7" height="0.7"/>
<rect x="14.7" y="7.6" class="st0" width="6.7" height="0.7"/>
<rect x="14.7" y="9.5" class="st0" width="6.7" height="0.7"/>
<rect x="14.7" y="11.4" class="st0" width="6.7" height="0.7"/>
<rect x="14.7" y="13.2" class="st0" width="6.7" height="0.7"/>
<rect x="14.7" y="15.1" class="st0" width="3.3" height="0.7"/>
</svg>
