<?xml version="1.0" encoding="iso-8859-1"?>
<!-- Generator: Adobe Illustrator 22.0.1, SVG Export Plug-In . SVG Version: 6.00 Build 0)  -->
<svg version="1.1" id="Layer_1" xmlns="http://www.w3.org/2000/svg" xmlns:xlink="http://www.w3.org/1999/xlink" x="0px" y="0px"
	 viewBox="-49 141 512 512" style="enable-background:new -49 141 512 512;" xml:space="preserve">
<g>
	<path style="fill:#FF9933;" d="M455.536,451.824l-1.592-2.792C433.704,413.6,423,373.304,423,332.504V309h16v-16h-16v-37.808
		c9.928-11.28,16-26.024,16-42.192c0-35.288-28.712-64-64-64c-33.568,0-61.128,25.992-63.744,58.904
		C279.392,190.288,243.648,181,207,181c-98.464,0-183.168,65.512-208.424,160H-33v68.28l24,16V445h-16v16h16v23.504
		c0,40.808-10.704,81.104-30.944,116.528l-1.592,2.792L-31.248,645h140.504l10.288-41.176l-1.592-2.792
		c-1.84-3.224-3.52-6.536-5.2-9.832C142.016,605.44,174.128,613,207,613c81.76,0,157.016-46.976,193.352-120h44.896L455.536,451.824
		z M343,268.344c9.424,5.472,20.336,8.656,32,8.656s22.576-3.184,32-8.656V293h-64V268.344z M375,165c26.472,0,48,21.528,48,48
		s-21.528,48-48,48s-48-21.528-48-48S348.528,165,375,165z M-17,400.72V357h32v32h48v-32h32v43.72L76.576,413H1.424L-17,400.72z
		 M7,429h64v16H7V429z M-18.752,629l-4-16H63v-16h-82.776c16.208-32.312,25.264-67.84,26.504-104H39v-16H7v-16h64v16H55v16h16.272
		c1.232,36.16,10.296,71.688,26.504,104H79v16h21.752l-4,16H-18.752z M207,597c-37.16,0-73.304-10.352-104.824-29.816
		C92.264,540.824,87,512.808,87,484.504V461h16v-16H87v-19.72l24-16V341H47v32H31v-32H15.192C39.904,255.752,117.272,197,207,197
		c37.488,0,73.952,10.512,105.672,30.304c2.416,10.52,7.424,20.04,14.328,27.88V293h-16v16h16v23.504
		c0,40.808-10.704,81.104-30.944,116.528l-1.592,2.792L304.752,493h77.632C347.496,556.56,280.024,597,207,597z M317.248,477l-4-16
		H399v-16h-82.776c16.208-32.312,25.264-67.84,26.504-104H375v-16h-32v-16h64v16h-16v16h16.272
		c1.232,36.16,10.296,71.688,26.504,104H415v16h21.752l-4,16H317.248z"/>
	<path style="fill:#FF9933;" d="M207,541c-10.88,0-21.736-1.328-32.424-3.824C174.76,535.8,175,534.432,175,533
		c0-17.648-14.352-32-32-32s-32,14.352-32,32s14.352,32,32,32c10.416,0,19.592-5.072,25.44-12.8c12.688,3.176,25.608,4.8,38.56,4.8
		c39.944,0,78.272-14.952,107.912-42.104l-10.816-11.8C277.424,527.536,242.936,541,207,541z M143,549c-8.824,0-16-7.176-16-16
		s7.176-16,16-16s16,7.176,16,16S151.824,549,143,549z"/>
	<path style="fill:#FF9933;" d="M239.416,256.912C239.24,258.264,239,259.6,239,261c0,17.648,14.352,32,32,32s32-14.352,32-32
		s-14.352-32-32-32c-10.464,0-19.688,5.12-25.528,12.912c-53.392-13.272-107.384,1.424-146.344,37.2l10.832,11.784
		C144.456,259.208,191.936,245.848,239.416,256.912z M271,245c8.824,0,16,7.176,16,16s-7.176,16-16,16s-16-7.176-16-16
		S262.176,245,271,245z"/>
	<path style="fill:#FF9933;" d="M71.144,312.776l13.576,8.456c3.256-5.224,6.904-10.328,10.856-15.168l-12.392-10.128
		C78.808,301.304,74.752,306.968,71.144,312.776z"/>
</g>
</svg>
