<?xml version="1.0" encoding="iso-8859-1"?>
<!-- Generator: Adobe Illustrator 22.0.1, SVG Export Plug-In . SVG Version: 6.00 Build 0)  -->
<svg version="1.1" id="Layer_1" xmlns="http://www.w3.org/2000/svg" xmlns:xlink="http://www.w3.org/1999/xlink" x="0px" y="0px"
	 viewBox="0 0 24 24" style="enable-background:new 0 0 24 24;" xml:space="preserve">
<path style="fill:#999999;" d="M19.493,0.682H6.27c-0.757,0-1.373,0.616-1.373,1.372v3.072c-2.508,0.718-4.35,3.032-4.35,5.768
	s1.841,5.05,4.35,5.768v5.284c0,0.757,0.616,1.373,1.373,1.373h10.806c0.128,0,0.251-0.051,0.342-0.142l3.306-3.306
	c0.091-0.091,0.142-0.214,0.142-0.342V2.054C20.866,1.297,20.25,0.682,19.493,0.682L19.493,0.682z M6.27,1.648h13.224
	c0.224,0,0.406,0.182,0.406,0.406v1.459H5.864V2.054C5.864,1.83,6.046,1.648,6.27,1.648L6.27,1.648z M1.514,10.893
	c0-2.774,2.257-5.031,5.031-5.031s5.031,2.257,5.031,5.031s-2.257,5.031-5.031,5.031C3.771,15.925,1.514,13.668,1.514,10.893
	L1.514,10.893z M5.864,21.944v-5.093c0.224,0.025,0.451,0.039,0.682,0.039c1.801,0,3.42-0.799,4.521-2.06h2.962
	c0.267,0,0.483-0.216,0.483-0.484c0-0.267-0.216-0.483-0.483-0.483h-2.273c0.42-0.734,0.69-1.565,0.766-2.451h1.507
	c0.267,0,0.483-0.216,0.483-0.483s-0.216-0.484-0.483-0.484h-1.502c-0.065-0.884-0.323-1.714-0.731-2.451h2.232
	c0.267,0,0.483-0.216,0.483-0.483c0-0.267-0.216-0.483-0.483-0.483h-2.899c-1.102-1.304-2.747-2.134-4.584-2.134
	c-0.23,0-0.458,0.014-0.681,0.039V4.48h14.035v14.565h-1.934c-0.757,0-1.373,0.616-1.373,1.372v1.934H6.27
	C6.046,22.351,5.864,22.168,5.864,21.944L5.864,21.944z M17.56,21.667v-1.25c0-0.224,0.182-0.406,0.406-0.406h1.25L17.56,21.667z"/>
<path style="fill:#999999;" d="M15.927,7.995h1.605c0.267,0,0.484-0.216,0.484-0.483c0-0.267-0.216-0.483-0.484-0.483h-1.605
	c-0.267,0-0.484,0.216-0.484,0.483C15.444,7.779,15.66,7.995,15.927,7.995L15.927,7.995z"/>
<path style="fill:#999999;" d="M15.927,11.413h1.605c0.267,0,0.484-0.216,0.484-0.483s-0.216-0.484-0.484-0.484h-1.605
	c-0.267,0-0.484,0.216-0.484,0.484C15.444,11.197,15.66,11.413,15.927,11.413L15.927,11.413z"/>
<path style="fill:#999999;" d="M15.927,14.831h1.605c0.267,0,0.484-0.216,0.484-0.484c0-0.267-0.216-0.483-0.484-0.483h-1.605
	c-0.267,0-0.484,0.216-0.484,0.483C15.444,14.615,15.66,14.831,15.927,14.831L15.927,14.831z"/>
<path style="fill:#999999;" d="M17.532,18.248c0.267,0,0.484-0.216,0.484-0.483s-0.216-0.484-0.484-0.484H13.01
	c-0.267,0-0.484,0.216-0.484,0.484c0,0.267,0.216,0.483,0.484,0.483H17.532z"/>
<path style="fill:#999999;" d="M10.298,8.455l-0.59-0.59c-0.159-0.159-0.37-0.246-0.595-0.246S8.677,7.707,8.518,7.865l-3.093,3.093
	L4.57,10.102C4.412,9.945,4.201,9.857,3.977,9.857c-0.225,0-0.436,0.088-0.595,0.246l-0.59,0.59c-0.328,0.328-0.328,0.861,0,1.189
	l2.039,2.039c0.159,0.159,0.37,0.246,0.595,0.246s0.436-0.087,0.595-0.246l4.278-4.278C10.626,9.316,10.626,8.783,10.298,8.455
	L10.298,8.455z M5.426,13.149l-1.861-1.861l0.412-0.412l1.108,1.108c0.189,0.189,0.495,0.189,0.684,0l3.346-3.346L9.527,9.05
	L5.426,13.149z"/>
<g>
</g>
<g>
</g>
<g>
</g>
<g>
</g>
<g>
</g>
<g>
</g>
</svg>
