<?xml version="1.0" encoding="utf-8"?>
<!-- Generator: Adobe Illustrator 22.0.1, SVG Export Plug-In . SVG Version: 6.00 Build 0)  -->
<svg version="1.1" id="Layer_1" xmlns="http://www.w3.org/2000/svg" xmlns:xlink="http://www.w3.org/1999/xlink" x="0px" y="0px"
	 viewBox="0 0 1700 300" style="enable-background:new 0 0 1700 300;" xml:space="preserve">
<style type="text/css">
	.st0{fill-rule:evenodd;clip-rule:evenodd;fill:#BCBEC0;}
	.st1{fill:#BCBEC0;}
</style>
<path class="st0" d="M38.4,54.8c-1.2-1.7,0-5.6,3.5-11.6c-1.6-2.9-1.4-6.3,0.5-10.1c-1.1-2.8-0.9-6.1,0.4-9.9c-1.2-2-1.3-4.7-0.5-8
	c3.2,2.2,6.8,6.2,10.8,12.1c6.4,11.4,7.8,22.2,4.3,32.6c2.5,2.7,6.3,3.1,9.7,3.6c4,0.5,4.1,0.8,5.6,4.6c0.1,0.3,0.5,0.6,0.8,1
	c0.7,0.9,2.3,3.3,2.2,4.4c0,0-3.1-1.6-5.4-2.3c-2.6-0.8-5.8,0.3-8.4,0.8c-3.2,0.6-6.6,1.3-8.8,1.3c-9-0.1-17.7-4.6-22.7-11.3
	c-4.4-2-7.5-2.6-12.2-2.7c-2.1,0-3.4-2-1.1-3.3c3.3-1.9-0.1-1.2,0.1-3.1c0.1-0.8,1.4-0.6,1.3-1.3c-0.2-1.1,0.4-2.4,1.6-2.5
	c0.8-0.1,1.5-0.2,2.3,0c2.9,0.7,0.1-2.6,2.1-2c2.6,0.8,4,3.3,5.9,5.4c2,2.2,4.9,2.7,7.7,3.3C39.5,56.1,38.5,55.7,38.4,54.8z"/>
<g>
	<path class="st1" d="M225,272c-6.5,7.1-16.1,6.3-23.8,10.2c-2.2,0.7-4.5,1.4-6.7,2.1c-11.3,3.1-22.7,3.8-33.4-5.2
		c-0.7-0.8,0-1.6,0.7-2.4c9.4,7.9,20.7,7.8,31.7,5.3c2.2-0.5,4.4-1.1,6.6-1.8C208.9,279.1,216.4,273.5,225,272L225,272z"/>
</g>
<g>
	<path class="st1" d="M166.3,261.4c7.4,11.1,18.7,16.2,30.4,19.5c2.3,0.7,4.7,1.3,7,1.9c6.5,1.9,13.4,3.5,20.2,6.7
		c-7.5,0.8-14.4-3.2-21.4-4.6c-2.5-0.6-5.1-1.1-7.6-1.7c-12.7-3.1-25-8.1-30.5-21.5C164.4,260.8,165.8,260.8,166.3,261.4
		L166.3,261.4z"/>
</g>
<g>
	<path class="st1" d="M237.6,275.9c-8.2,8.8-21.9,14.3-32.8,8c11.6,2.4,23.3-1.6,32.8-9.5C237.6,275.1,237.6,275.1,237.6,275.9
		L237.6,275.9z"/>
</g>
<g>
	<path class="st1" d="M269.5,272.2c-1.2,0.2-2.3,0.5-3.5,0.7c-11.3,3.8-24.3,6.2-35.4-0.2c-0.5,0-0.5,0.8-1.1,0.8
		c10.9,8.7,25.3,5.6,36.8,1.1c1.3-0.7,2.5-1.4,3.8-2.3C269.8,272.2,269.7,272.2,269.5,272.2z"/>
</g>
<g>
	<path class="st1" d="M209.8,283.3c0.5-0.5,1.1-1.1,1.6-1.6c1-1.1,1.9-2.3,2.7-3.6c0.4-0.6,0.8-1.3,1.1-2c0.2-0.3,0.3-0.7,0.5-1
		l0.6,0.2l0.6,0.2l-0.6-0.3l-0.6-0.3c-0.2-0.1-0.4-0.2-0.6-0.3c-0.2-0.1-0.4-0.2-0.5-0.3c-0.2-0.1-0.4-0.2-0.5-0.3l-0.3-0.2
		l-0.3-0.2c-0.3-0.2-0.7-0.5-1-0.8c-0.3-0.3-0.6-0.6-0.9-0.9c-0.3-0.3-0.6-0.6-0.8-1c-0.2-0.3-0.5-0.7-0.7-1
		c-0.2-0.4-0.4-0.7-0.5-1.1c-0.3-0.8-0.5-1.6-0.6-2.4c-0.1-0.8-0.1-1.6-0.1-2.5c0.1-0.8,0.2-1.6,0.4-2.4c0.1-0.4,0.2-0.8,0.4-1.2
		c0,0,0,0,0-0.1c0.1,0.2,0.2,0.4,0.3,0.5c0.1,0.3,0.3,0.5,0.5,0.8c0.2,0.2,0.4,0.5,0.5,0.7c0.4,0.5,0.8,0.9,1.3,1.3
		c0.5,0.4,1,0.7,1.5,1c0.3,0.1,0.5,0.3,0.8,0.4c0.3,0.1,0.6,0.2,0.8,0.3c0.3,0.1,0.6,0.2,0.9,0.2c0.1,0,0.3,0.1,0.4,0.1
		c0.1,0,0.3,0.1,0.4,0.1c0.1,0,0.3,0,0.4,0.1c0.1,0,0.3,0,0.4,0c0.3,0,0.6,0,0.9,0c0.1,0,0.3,0,0.4,0c0.1,0,0.3,0,0.4,0l0.4,0l0.4,0
		l-0.4,0l-0.4,0l-0.4,0c-0.1,0-0.3,0-0.4-0.1c-0.3,0-0.6-0.1-0.8-0.1c-0.1,0-0.3-0.1-0.4-0.1c-0.1,0-0.3-0.1-0.4-0.1
		c0-0.1,0-0.1,0-0.2c0.1-0.7,0.3-1.4,0.6-2.1c0.3-0.6,0.7-1.2,1.2-1.7c0.5-0.4,1.1-0.7,1.8-0.9c0.7-0.2,1.4-0.2,2.1-0.2
		c0.7,0,1.4,0.1,2.2,0.3c0.4,0.1,0.7,0.1,1,0.2c-0.2,0.1-0.4,0.3-0.6,0.5c-0.5,0.4-0.8,1-1.1,1.6c-0.2,0.6-0.3,1.3-0.2,1.9
		c0.1,0.6,0.2,1.3,0.5,1.8l0.1,0.2c0,0.1,0,0.1,0.1,0.2c0,0.1,0.1,0.3,0.1,0.4c0.1,0.3,0.1,0.5,0.2,0.8c0.1,0.5,0.1,1.1,0.1,1.7
		c0,0.6-0.1,1.1-0.2,1.7c-0.1,0.3-0.1,0.5-0.2,0.8c-0.1,0.3-0.2,0.5-0.3,0.8c-0.1,0.3-0.2,0.5-0.4,0.8c-0.1,0.3-0.3,0.5-0.4,0.7
		c-0.3,0.5-0.7,0.9-1,1.4c-0.4,0.4-0.8,0.8-1.2,1.2c-0.4,0.4-0.9,0.7-1.4,1.1c-1,0.7-2,1.2-3,1.7c-0.5,0.2-1.1,0.4-1.6,0.6
		c-0.6,0.2-1.1,0.4-1.7,0.5l-5.8,3.8c0,0,0,0,0.1,0C208.7,284.3,209.3,283.8,209.8,283.3z"/>
	<path class="st1" d="M220.6,262.2c0,0.3,0.2,0.5,0.5,0.5c0.3,0,0.5-0.2,0.5-0.5c0-0.3-0.2-0.5-0.5-0.5
		C220.8,261.7,220.6,261.9,220.6,262.2z"/>
</g>
<g>
	<path class="st1" d="M190.9,285.3c0.5-0.5,1.1-1,1.6-1.6c1-1.1,1.9-2.3,2.7-3.5c0.4-0.6,0.8-1.3,1.1-1.9c0.3,0,0.5,0.1,0.8,0.1
		l0.3,0l0.3,0c0.2,0,0.4,0,0.6,0c0.2,0,0.4,0,0.6,0c0.2,0,0.4,0,0.6,0l0.6,0l0.6-0.1l-0.6,0l-0.6,0c-0.2,0-0.4,0-0.6-0.1
		c-0.2,0-0.4,0-0.6-0.1c-0.2,0-0.4-0.1-0.6-0.1l-0.3-0.1L197,278c-0.4-0.1-0.8-0.2-1.2-0.3c-0.4-0.1-0.8-0.3-1.2-0.4
		c-0.4-0.2-0.7-0.3-1.1-0.5c-0.4-0.2-0.7-0.4-1-0.7c-0.3-0.2-0.6-0.5-0.9-0.8c-0.6-0.6-1.1-1.2-1.5-1.9c-0.4-0.7-0.8-1.4-1-2.2
		c-0.3-0.8-0.5-1.5-0.6-2.3c-0.1-0.4-0.1-0.8-0.1-1.2c0,0,0,0,0-0.1c0.1,0.1,0.3,0.3,0.4,0.4c0.2,0.2,0.5,0.4,0.7,0.5
		c0.3,0.2,0.5,0.3,0.8,0.4c0.5,0.3,1.1,0.5,1.7,0.6c0.6,0.2,1.2,0.2,1.7,0.3c0.3,0,0.6,0,0.9,0c0.3,0,0.6,0,0.9-0.1
		c0.3,0,0.6-0.1,0.9-0.1c0.1,0,0.3-0.1,0.4-0.1c0.1,0,0.3-0.1,0.4-0.1c0.1,0,0.3-0.1,0.4-0.1c0.1,0,0.3-0.1,0.4-0.1
		c0.3-0.1,0.5-0.2,0.8-0.3c0.1-0.1,0.3-0.1,0.4-0.2c0.1-0.1,0.3-0.1,0.4-0.2l0.4-0.2l0.4-0.2l-0.4,0.1l-0.4,0.1l-0.4,0.1
		c-0.1,0-0.3,0.1-0.4,0.1c-0.2,0.1-0.5,0.1-0.7,0.2c0-0.5,0.1-1,0.2-1.4c0.1-0.7,0.3-1.4,0.6-2c0.3-0.6,0.7-1.2,1.2-1.6
		c0.5-0.4,1.1-0.7,1.8-0.9c0.7-0.2,1.4-0.2,2.1-0.2c0.7,0,1.4,0.1,2.1,0.3c0.3,0.1,0.7,0.1,1,0.2c-0.2,0.1-0.4,0.3-0.5,0.5
		c-0.5,0.4-0.8,1-1.1,1.6c-0.2,0.6-0.3,1.3-0.2,1.9c0.1,0.6,0.2,1.2,0.5,1.8l0.1,0.2c0,0.1,0,0.1,0.1,0.2c0,0.1,0.1,0.3,0.1,0.4
		c0.1,0.3,0.1,0.5,0.2,0.8c0.1,0.5,0.1,1.1,0.1,1.6c0,0.5-0.1,1.1-0.2,1.6c-0.1,0.3-0.1,0.5-0.2,0.8c-0.1,0.3-0.2,0.5-0.3,0.8
		c-0.1,0.3-0.2,0.5-0.4,0.7c-0.1,0.2-0.3,0.5-0.4,0.7c-0.3,0.5-0.6,0.9-1,1.3c-0.4,0.4-0.8,0.8-1.2,1.2c-0.4,0.4-0.9,0.7-1.3,1
		c-0.9,0.6-2,1.2-3,1.6c-0.5,0.2-1.1,0.4-1.6,0.6c-0.5,0.2-1.1,0.3-1.7,0.5l-5.7,3.7c0,0,0,0,0.1,0
		C189.8,286.3,190.4,285.8,190.9,285.3z"/>
	<path class="st1" d="M197.3,269.1c-0.1,0-0.3,0.1-0.4,0.1c-0.3,0-0.6,0.1-0.8,0.1c-0.3,0-0.6,0-0.8,0.1c-0.6,0-1.1,0-1.6-0.1
		c-0.3,0-0.5-0.1-0.8-0.1c-0.2-0.1-0.5-0.1-0.7-0.2c-0.1-0.7-0.1-1.3-0.1-2c0-0.8,0.2-1.6,0.3-2.4c0.1-0.4,0.2-0.8,0.3-1.2
		c0,0,0,0,0,0c0.1,0.2,0.2,0.3,0.3,0.5c0.2,0.3,0.3,0.5,0.5,0.7c0.2,0.2,0.4,0.5,0.6,0.7c0.4,0.4,0.8,0.8,1.3,1.2
		c0.5,0.4,1,0.6,1.5,0.9c0.2,0.1,0.4,0.2,0.6,0.3C197.4,268.1,197.4,268.6,197.3,269.1C197.3,269,197.3,269.1,197.3,269.1z"/>
	<path class="st1" d="M201.9,264.4c0,0.3,0.2,0.5,0.5,0.5c0.3,0,0.5-0.2,0.5-0.5c0-0.3-0.2-0.5-0.5-0.5
		C202.1,263.9,201.9,264.1,201.9,264.4z"/>
</g>
<g>
	<path class="st1" d="M241.8,278.8c0,0-0.1,0-0.1,0c-0.3,0-0.6,0-1-0.1c-0.3-0.1-0.6-0.1-0.9-0.2c-0.2,0-0.3-0.1-0.5-0.1
		c-0.1-0.1-0.3-0.1-0.4-0.2c-0.1-0.1-0.3-0.1-0.4-0.2c-0.1-0.1-0.3-0.1-0.4-0.2c-0.1-0.1-0.3-0.1-0.4-0.2l-0.4-0.2
		c-0.3-0.2-0.5-0.3-0.8-0.5c-0.3-0.2-0.5-0.4-0.7-0.6c-0.1-0.1-0.2-0.2-0.4-0.3c-0.1-0.1-0.2-0.2-0.3-0.3c0.1,0.1,0.3,0.2,0.4,0.2
		l0.4,0.2c0.3,0.2,0.5,0.3,0.8,0.5l0.4,0.2c0.1,0.1,0.3,0.1,0.4,0.2l0.4,0.2c0.1,0.1,0.3,0.1,0.4,0.2c0.1,0.1,0.3,0.1,0.4,0.2
		c0.1,0,0.1,0.1,0.2,0.1l0.2,0.1c0.1,0,0.3,0.1,0.4,0.1c0.1,0,0.3,0.1,0.4,0.1c0.3,0.1,0.6,0.1,0.9,0.1c0.3,0,0.6,0,0.9,0
		c0.3,0,0.6,0,0.9-0.1c0.3,0,0.6-0.1,0.8-0.2c0.6-0.2,1.1-0.4,1.6-0.7c0.2-0.2,0.5-0.3,0.7-0.5c0.2-0.2,0.4-0.4,0.6-0.6
		c0.2-0.2,0.4-0.4,0.6-0.7c0-0.1,0.1-0.1,0.1-0.2c-0.1,0-0.1,0-0.2,0c-0.3-0.1-0.6-0.1-0.8-0.2c-0.3-0.1-0.5-0.2-0.8-0.3
		c-0.3-0.1-0.5-0.2-0.8-0.4c-0.5-0.3-1-0.6-1.5-0.9c-0.2-0.2-0.4-0.4-0.7-0.5c-0.2-0.2-0.4-0.4-0.6-0.6c-0.4-0.4-0.8-0.9-1.1-1.3
		c-0.1-0.1-0.2-0.2-0.2-0.4c-0.1-0.1-0.2-0.2-0.2-0.4c-0.1-0.2-0.3-0.5-0.4-0.7c-0.1-0.3-0.2-0.5-0.4-0.8c-0.1-0.3-0.2-0.5-0.3-0.8
		c-0.1-0.3-0.2-0.5-0.3-0.8l-0.1-0.4c0-0.1-0.1-0.3-0.1-0.4l0.2,0.4l0.2,0.4c0.1,0.3,0.2,0.5,0.3,0.8c0.1,0.1,0.1,0.2,0.2,0.4
		c0.1,0.1,0.1,0.2,0.2,0.4c0.1,0.2,0.2,0.4,0.4,0.6c-0.1-5.5-1.4-9.1-10-6.9c0,0,3.7,1.6,1.9,5.6c-2,4.5,0.5,11.6,10.3,14l2.9,1.6
		C245.2,283.5,243.3,281.9,241.8,278.8z"/>
	<path class="st1" d="M240.5,269.3c0,0.3,0,0.5,0,0.8c0.1,0.1,0.2,0.3,0.3,0.4c0.2,0.2,0.3,0.4,0.5,0.6c0.1,0.2,0.3,0.3,0.4,0.4
		c0,0,0,0,0,0c0.3-0.1,0.5-0.3,0.8-0.4c0.2-0.1,0.5-0.3,0.7-0.5c0.2-0.2,0.4-0.4,0.6-0.6c0.4-0.4,0.7-0.9,1-1.4
		c0.1-0.3,0.3-0.5,0.4-0.8c0.1-0.3,0.2-0.5,0.3-0.8c0.1-0.3,0.1-0.6,0.2-0.9c0-0.1,0-0.1,0-0.2c-0.1,0-0.1,0-0.2,0.1
		c-0.3,0.1-0.6,0.2-0.8,0.2c-0.3,0.1-0.6,0.1-0.9,0.1c-0.3,0-0.6,0.1-0.9,0.1c-0.6,0-1.2,0-1.7-0.1c-0.3,0-0.6-0.1-0.8-0.1
		c0,0-0.1,0-0.1,0c0.1,0.4,0.1,0.7,0.1,1.1C240.5,268,240.5,268.6,240.5,269.3z"/>
	<path class="st1" d="M235.3,263.6c-0.2,0.1-0.5,0-0.6-0.2c-0.1-0.2,0-0.5,0.2-0.6c0.2-0.1,0.5,0,0.6,0.2
		C235.6,263.2,235.5,263.4,235.3,263.6z"/>
</g>
<g>
	<g>
		<path class="st1" d="M280.1,254.5c-0.2,0.2-0.4,0.3-0.5,0.5c-0.3,0.3-0.6,0.5-0.9,0.8c-0.3,0.3-0.6,0.5-0.9,0.8l-1,0.7
			c-0.6,0.5-1.3,0.9-2,1.4c-0.7,0.4-1.4,0.8-2.1,1.2c-0.4,0.2-0.7,0.4-1.1,0.6c-0.4,0.2-0.7,0.4-1.1,0.5c0.3-0.2,0.6-0.5,1-0.7
			l1-0.7c0.6-0.5,1.3-1,1.9-1.5l0.9-0.8c0.3-0.3,0.6-0.5,0.9-0.8l0.9-0.8c0.3-0.3,0.6-0.5,0.8-0.8c0.3-0.3,0.5-0.6,0.8-0.9
			c0.1-0.1,0.3-0.3,0.4-0.4l0.4-0.4c0.3-0.3,0.5-0.6,0.7-0.9c0.2-0.3,0.5-0.6,0.7-0.9c0.4-0.6,0.8-1.3,1.2-2c0.4-0.7,0.7-1.4,1-2.1
			c0.3-0.7,0.5-1.4,0.7-2.1c0.2-0.7,0.3-1.5,0.4-2.2c0.2-1.5,0.1-3-0.1-4.5c-0.1-0.7-0.3-1.5-0.5-2.2c-0.2-0.7-0.5-1.4-0.8-2.1
			c-0.3-0.7-0.6-1.4-1-2c-0.1-0.2-0.2-0.3-0.3-0.5c-0.1,0.1-0.2,0.3-0.3,0.4c-0.4,0.6-0.9,1.2-1.4,1.8c-0.5,0.6-1,1.1-1.5,1.6
			c-0.5,0.5-1.1,1-1.7,1.5c-1.1,1-2.4,1.8-3.6,2.6c-0.6,0.4-1.3,0.7-2,1c-0.7,0.3-1.3,0.6-2,0.9c-1.4,0.5-2.8,1-4.2,1.3
			c-0.4,0.1-0.7,0.1-1.1,0.2c-0.4,0.1-0.7,0.1-1.1,0.2c-0.7,0.1-1.5,0.2-2.2,0.2c-0.7,0-1.5,0.1-2.2,0.1c-0.7,0-1.5,0-2.2,0
			c-0.7,0-1.4-0.1-2.2-0.2l-1.1-0.1c-0.4-0.1-0.7-0.1-1.1-0.2l1.1,0l1.1,0c0.7,0,1.4,0,2.1-0.1c0.4,0,0.7,0,1.1-0.1
			c0.4,0,0.7-0.1,1.1-0.1c0.7-0.1,1.4-0.2,2.1-0.3c0.2,0,0.3-0.1,0.5-0.1c-10.8-8-19.7-10.2-28.9,9.7c0,0,9.2-5,14.4,5.2
			c5.7,11.4,24.2,17.8,45.1,2.1l8-3.2C299,256.4,290.8,258.2,280.1,254.5z"/>
		<path class="st1" d="M242.4,243.7c-0.1,0.7-0.8,1.1-1.4,1c-0.7-0.1-1.1-0.8-1-1.4c0.1-0.7,0.8-1.1,1.4-1
			C242.1,242.4,242.5,243,242.4,243.7z"/>
	</g>
	<path class="st1" d="M235.1,253.3c-0.2-0.2-0.5-0.4-0.6-0.7c-0.2-0.4-0.3-0.9-0.5-1.2c-0.4-0.5-1-0.5-1.5-0.9
		c-0.3-0.3-0.6-0.7-1-0.6c-0.1,0-0.2,0.2-0.4,0.1c-0.1,0-0.1-0.1-0.2-0.2c-0.2-0.2-0.5-0.3-0.7-0.2c-0.3,0.1-0.4,0.4-0.5,0.6
		c-0.1,0.3-0.1,0.6,0.1,0.8c0,0.1,0.1,0.1,0.2,0.1c0.3,0.1,0.5-0.4,0.8-0.4c0,0.1,0.2,0.2,0.3,0.2c0.3,0.1,0.5,0.2,0.8,0.2
		c0.1,0,0.3,0.1,0.4,0.2c0.1,0.1,0.1,0.2,0.2,0.2c0.1,0.1,0.3,0.1,0.5,0.2c0.4,0.2,0.4,1,0.7,1.2c0.1,0.1,0.2,0.1,0.3,0.2
		c0.1,0.1,0.1,0.2,0.2,0.3c0.1,0.2,0.3,0.5,0.5,0.6c0.2,0.1,0.5,0.1,0.6-0.1C235.5,254,235.3,253.6,235.1,253.3z"/>
</g>
<path class="st0" d="M1458.3,239.2c-2.6,2.2-4.3,3.2-4.7,3c0.2,0.4,2.5,2.2,2.4,3.4c-0.4,3,0.1,0.6-1.7,2.1
	c-0.5,0.4-0.7,1.2-1.1,1.1c-0.7-0.1-5.5-1.2-4.3,0.6c1.1,1.6-1.4,0.2-2.2,0.1c-1-0.2-2.2-0.2-3.2-0.3c-3.7-0.7-6.4,2.8-9-1.6
	c0,0-3.6-0.9-2.7-2.2c1.3-2.1-2.6-1.4-0.9-2.5c0.1,0,2.3-0.9,2.5-0.9c0.6-0.1,3.1-0.2,3.6-0.6c0.6-0.5,1.2-1,1.9-1.2
	c2.4-0.9,3.2-0.7,5.3-2.5c1.4-1.2,2.9-0.5,0.9-2.8c-1.9,0.2-4.2,0.7-5.5-0.8c-0.6-0.6-1.3-0.8-2.1-0.7c-0.9,0.1-1.1-0.7-1.9-0.8
	c-1.2-1.1-1.4-3.4-2.6-4.5c-1.4-1.3-3.4-2.2-4-3.7l-1.6-3.5l-3.2-2.7c-1.3-1.1-1.3-2.5-2.2-4.3c-1-2.1-2.9-4.5-4.6-6.5
	c-1.4-1.7-1.6-3.3-3-4.9c-0.5-0.5-3-3.6-2.8-3.4c3.1,2.1,6.2,4.2,10,5.8c5.1,2.1,8.7,3.6,10.8,5.6c2.8,2.8,4.7,5.9,7.9,9.7
	c0.5,0.7,4.3,5.1,6.9,6.9c1.1,0.6,4.7,2.8,5.5,2.4c2.9-1.4,8.6-3.2,10.2,0.8c0.5,1.1,2,1.2,3.2,0.7c8.9-0.3,19.6,1.8,28.6-0.6
	c1.2-0.3,5.2-2.4,2,0.4c-1.3,1.1-2.8,1.8-4.2,3c-1.7,1.5-4.6,2.5-7.1,4.7c-2,1.7-3.2-0.4-6,0.6c-1.6,0.6-3.4,2-5,2.2
	c-0.5,0.1-2.4-0.7-2.7-1c-1.8-1.6-2.1,1.4-4.4-1.2C1464.2,235.6,1461.3,236.7,1458.3,239.2z"/>
<path class="st0" d="M1656.1,152.7c-1.6-0.1-3.4-2.6-5.4-7.4c-2.5-0.4-4.4-2-5.9-4.9c-2.2-0.7-4.1-2.2-5.8-4.8
	c-1.7-0.2-3.4-1.3-5.1-3.3c2.8-0.9,6.8-1.3,12.2-1c9.8,1.3,17,5.4,21.7,12.3c2.8-0.3,4.8-2.4,6.6-4.3c2.1-2.2,2.4-2.1,5.3-1.3
	c0.3,0.1,0.6,0,1,0c0.9,0,3.1,0.2,3.7,0.7c0,0-2.4,1.2-3.9,2.3c-1.7,1.2-2.5,3.6-3.3,5.4c-1.1,2.2-2.2,4.6-3.2,5.9
	c-4.2,5.4-10.9,8.6-17.2,8.6c-3.2,1.8-5,3.4-7.2,6.1c-1,1.3-2.8,1.2-2.5-0.9c0.4-2.8-0.8-0.4-1.8-1.5c-0.5-0.4,0.3-1.1-0.2-1.4
	c-0.8-0.4-1.2-1.3-0.8-2.1c0.3-0.5,0.5-1,1-1.4c1.7-1.5-1.5-1.3-0.3-2.2c1.6-1.2,3.8-0.9,6-1.1c2.2-0.2,3.9-1.7,5.5-3.1
	C1657.4,152.6,1656.7,153,1656.1,152.7z"/>
<path class="st0" d="M1563.4,42.5c-2-0.1-4.3-3.2-6.8-9.3c-3.1-0.5-5.6-2.5-7.4-6.1c-2.8-0.8-5.2-2.8-7.3-6
	c-2.2-0.3-4.3-1.6-6.4-4.2c3.5-1.2,8.6-1.6,15.4-1.3c12.3,1.7,21.5,6.8,27.4,15.5c3.5-0.4,6-3,8.3-5.4c2.7-2.7,3-2.7,6.7-1.7
	c0.3,0.1,0.8,0,1.2,0c1.1,0,3.8,0.2,4.6,0.8c0,0-3,1.5-4.9,2.8c-2.1,1.6-3.1,4.6-4.2,6.8c-1.4,2.8-2.8,5.8-4,7.4
	c-5.3,6.8-13.7,10.9-21.7,10.9c-4.1,2.3-6.3,4.2-9.1,7.7c-1.3,1.6-3.5,1.5-3.2-1.1c0.5-3.6-1-0.6-2.3-1.9c-0.6-0.5,0.3-1.4-0.3-1.8
	c-1-0.5-1.6-1.7-1-2.6c0.4-0.7,0.7-1.2,1.3-1.7c2.2-1.8-1.9-1.6-0.3-2.7c2.1-1.5,4.8-1.1,7.5-1.4c2.8-0.3,4.9-2.1,6.9-3.9
	C1565.1,42.4,1564.2,42.9,1563.4,42.5z"/>
</svg>
