<?xml version="1.0" encoding="iso-8859-1"?>
<!-- Generator: Adobe Illustrator 22.1.0, SVG Export Plug-In . SVG Version: 6.00 Build 0)  -->
<svg version="1.1" id="Capa_1" xmlns="http://www.w3.org/2000/svg" xmlns:xlink="http://www.w3.org/1999/xlink" x="0px" y="0px"
	 viewBox="-49 141 512 512" style="enable-background:new -49 141 512 512;" xml:space="preserve">
<g>
	<path style="fill:#FF901D;" d="M-12.218,283.418c12.152-13.258,24.886-25.188,38.907-36.264c1.649-1.302,4.023,0.257,3.471,2.284
		c-7.859,28.885-21.59,57.431-42.757,78.652C-13.548,313.234-13.562,298.254-12.218,283.418z"/>
	<path style="fill:#FF901D;" d="M-12.596,328.101c-12.221-14.748-22.723-29.996-32.185-46.458c-1.082-1.882-3.96-1.211-4.07,0.958
		c-1.707,33.721,11.177,73.177,42.567,89.091C-9.412,357.352-11.666,342.759-12.596,328.101z"/>
	<path style="fill:#FF901D;" d="M-6.286,371.681c7.691-15.825,16.3-30.548,26.391-44.819c1.197-1.693,3.882-0.917,3.969,1.155
		c1.229,29.129-3.769,59.921-17.726,85.491C1.174,399.898-3.19,385.918-6.286,371.681z"/>
	<path style="fill:#FF901D;" d="M6.351,413.518c-15.869-10.199-30.365-21.35-44.27-33.876c-1.604-1.445-4.12,0.064-3.577,2.153
		c8.377,32.209,32.333,65.262,66.439,71.1C17.853,440.235,11.502,427.094,6.351,413.518z"/>
	<path style="fill:#FF901D;" d="M24.937,452.886c2.78-17.264,6.756-33.733,12.291-50.198c0.658-1.958,3.439-1.996,4.129-0.048
		c9.68,27.328,13.601,58.159,7.761,86.493C40.24,477.643,32.027,465.568,24.937,452.886z"/>
	<path style="fill:#FF901D;" d="M49.124,489.142c-18.089-5.125-35.179-11.534-52.104-19.39c-1.955-0.908-3.915,1.268-2.788,3.105
		c17.402,28.379,49.982,52.949,84.297,48.715C67.995,511.48,58.041,500.699,49.124,489.142z"/>
	<path style="fill:#FF901D;" d="M78.521,521.565c-2.468-17.394-3.517-34.359-3.032-51.798c0.057-2.067,2.709-2.914,3.937-1.25
		c17.332,23.498,30.262,52.042,33.356,80.981C100.73,541.028,89.158,531.77,78.521,521.565z"/>
	<path style="fill:#FF901D;" d="M426.218,283.418c-12.152-13.258-24.886-25.188-38.907-36.264c-1.649-1.302-4.023,0.257-3.471,2.284
		c7.859,28.885,21.59,57.431,42.757,78.652C427.548,313.234,427.562,298.254,426.218,283.418z"/>
	<path style="fill:#FF901D;" d="M426.596,328.101c12.221-14.748,22.723-29.996,32.185-46.458c1.082-1.882,3.96-1.211,4.07,0.958
		c1.707,33.721-11.177,73.177-42.567,89.091C423.412,357.352,425.666,342.759,426.596,328.101z"/>
	<path style="fill:#FF901D;" d="M420.286,371.681c-7.691-15.825-16.3-30.548-26.391-44.819c-1.197-1.693-3.882-0.917-3.969,1.155
		c-1.229,29.129,3.769,59.921,17.726,85.491C412.826,399.898,417.19,385.918,420.286,371.681z"/>
	<path style="fill:#FF901D;" d="M407.649,413.518c15.869-10.199,30.365-21.35,44.27-33.876c1.604-1.445,4.12,0.064,3.577,2.153
		c-8.377,32.209-32.333,65.262-66.439,71.1C396.147,440.235,402.498,427.094,407.649,413.518z"/>
	<path style="fill:#FF901D;" d="M389.063,452.886c-2.78-17.264-6.756-33.733-12.291-50.198c-0.658-1.958-3.439-1.996-4.129-0.048
		c-9.68,27.328-13.601,58.159-7.761,86.493C373.76,477.643,381.973,465.568,389.063,452.886z"/>
	<path style="fill:#FF901D;" d="M364.876,489.142c18.089-5.125,35.179-11.534,52.104-19.39c1.955-0.908,3.915,1.268,2.788,3.105
		c-17.402,28.379-49.982,52.949-84.297,48.715C346.005,511.48,355.959,500.699,364.876,489.142z"/>
	<path style="fill:#FF901D;" d="M335.479,521.565c2.468-17.394,3.517-34.359,3.032-51.798c-0.057-2.067-2.709-2.914-3.937-1.25
		c-17.332,23.498-30.262,52.042-33.356,80.981C313.27,541.028,324.842,531.77,335.479,521.565z"/>
</g>
<g>
	<path style="fill:#F7BC14;" d="M155.103,565.37c-13.849-6.829-26.508-14.259-37.627-22.081c-0.003-0.002-0.005-0.003-0.008-0.005
		c-0.002-0.001-0.003-0.003-0.005-0.004c-12.409-8.72-23.597-17.839-33.257-27.106c-0.002-0.002-0.004-0.005-0.006-0.007
		c-10.843-10.386-20.451-20.98-28.559-31.489c-0.002-0.003-0.005-0.006-0.007-0.009c-0.001-0.001-0.001-0.002-0.002-0.003
		c-9.146-11.838-17.049-23.681-23.489-35.203c-0.003-0.006-0.007-0.011-0.01-0.017c-7.304-13.047-13.377-25.906-18.049-38.222
		c-0.002-0.005-0.004-0.009-0.006-0.013v-0.001c-5.336-14.041-9.465-27.707-12.274-40.619c0-0.002-0.001-0.003-0.001-0.004
		c-3.225-14.785-5.288-29.022-6.131-42.313c0-0.007-0.002-0.013-0.002-0.019c-0.98-15.307-0.858-29.897,0.363-43.364
		c0.015-0.163,0.015-0.325,0.019-0.487c1.612-20.825,5.467-41.7,11.477-62.057c1.208-4.093-1.131-8.39-5.224-9.598
		c-4.091-1.209-8.39,1.129-9.598,5.224c-6.381,21.615-10.46,43.794-12.123,65.921c-0.011,0.151-0.008,0.299-0.011,0.448
		c-1.222,14.022-1.337,29.12-0.326,44.903c0,0.003,0,0.005,0,0.008c0.892,14.055,3.061,29.055,6.448,44.586
		c0.003,0.012,0.004,0.025,0.006,0.037c2.971,13.66,7.321,28.069,12.93,42.824l0,0c0.001,0.002,0.001,0.004,0.002,0.006
		C4.576,429.734,10.974,443.291,18.65,457c0.001,0.002,0.002,0.004,0.003,0.006c0.003,0.005,0.005,0.009,0.008,0.013
		c0,0,0,0,0.001,0.001l0,0c6.811,12.18,15.134,24.66,24.74,37.094c0.004,0.005,0.008,0.008,0.011,0.013
		c8.571,11.107,18.69,22.271,30.077,33.18c0.003,0.003,0.005,0.006,0.008,0.009c10.225,9.811,22.028,19.436,35.082,28.609
		c0.002,0.001,0.003,0.002,0.005,0.003l0,0c11.768,8.281,25.12,16.121,39.683,23.303c1.1,0.542,2.265,0.799,3.412,0.799
		c2.849,0,5.591-1.583,6.936-4.311C160.503,571.891,158.93,567.258,155.103,565.37z"/>
	<path style="fill:#F7BC14;" d="M433.427,284.342c-0.003-0.149,0-0.296-0.011-0.446c-1.663-22.131-5.742-44.311-12.123-65.922
		c-1.208-4.092-5.504-6.426-9.599-5.223c-4.093,1.208-6.431,5.506-5.223,9.599c6.009,20.352,9.864,41.226,11.477,62.053
		c0.005,0.163,0.005,0.326,0.02,0.49c1.221,13.462,1.343,28.053,0.363,43.366c0,0.003,0,0.006,0,0.008
		c0,0.003-0.001,0.005-0.001,0.008c-0.843,13.285-2.906,27.521-6.132,42.313c0,0.001-0.001,0.003-0.001,0.004
		c-2.807,12.912-6.937,26.578-12.274,40.618c-0.001,0.002-0.001,0.003-0.002,0.005c-0.001,0.004-0.003,0.007-0.005,0.01
		c-4.671,12.315-10.746,25.178-18.056,38.235c-0.001,0.001-0.002,0.003-0.003,0.004c-6.439,11.519-14.342,23.362-23.49,35.203
		c-0.002,0.003-0.004,0.006-0.006,0.009c-0.001,0.001-0.001,0.001-0.002,0.002c-8.105,10.505-17.715,21.099-28.559,31.489
		c-0.002,0.002-0.004,0.005-0.006,0.007c-9.656,9.264-20.846,18.384-33.258,27.106c-0.003,0.002-0.006,0.005-0.01,0.008
		c-0.001,0-0.002,0.001-0.003,0.001c-11.119,7.824-23.778,15.253-37.627,22.081c-3.828,1.887-5.401,6.52-3.513,10.347
		c1.345,2.73,4.086,4.312,6.936,4.312c1.147,0,2.312-0.257,3.411-0.799c14.561-7.18,27.911-15.019,39.679-23.299
		c0.004-0.003,0.008-0.004,0.012-0.007c13.056-9.176,24.859-18.801,35.081-28.609c0.003-0.003,0.005-0.006,0.008-0.009
		c11.392-10.916,21.514-22.082,30.083-33.188c0.001,0,0.001-0.001,0.002-0.002s0.002-0.002,0.003-0.003
		c9.611-12.442,17.939-24.927,24.749-37.108c0.005-0.008,0.008-0.016,0.012-0.024c7.674-13.708,14.069-27.259,19.006-40.275
		c0-0.001,0.001-0.001,0.001-0.003c0-0.001,0.001-0.001,0.001-0.003c5.606-14.747,9.953-29.147,12.924-42.801
		c0.001-0.003,0.002-0.005,0.003-0.008c3.393-15.557,5.566-30.575,6.458-44.639c0.001-0.011,0-0.021,0-0.031
		C434.763,313.441,434.648,298.351,433.427,284.342z"/>
</g>
<g>
	<path style="fill:#FFB125;" d="M163.092,437.011c-22.276,0.001-43.988-7.892-61.265-22.594
		c-21.314-18.138-33.539-44.588-33.539-72.567v-26.128c0-3.02,1.178-5.86,3.316-7.993c2.131-2.125,4.961-3.295,7.969-3.295
		c0.01,0,0.02,0,0.03,0l68.408,0.15c4.267,0.009,7.719,3.476,7.71,7.744c-0.01,4.261-3.468,7.71-7.726,7.71
		c-0.006,0-0.012,0-0.018,0l-64.235-0.141l-0.001,21.952c0,23.44,10.242,45.6,28.1,60.797c17.721,15.08,41.018,21.603,63.905,17.89
		c0.794-0.129,1.593-0.264,2.4-0.405c4.208-0.729,8.208,2.075,8.944,6.278c0.736,4.204-2.075,8.208-6.278,8.944
		c-0.871,0.152-1.736,0.299-2.593,0.438C173.18,436.609,168.12,437.011,163.092,437.011z"/>
	<path style="fill:#FFB125;" d="M250.908,437.011c-5.03,0-10.086-0.402-15.128-1.219c-0.857-0.139-1.722-0.286-2.593-0.438
		c-4.204-0.736-7.014-4.741-6.278-8.944c0.736-4.204,4.745-7.009,8.944-6.278c0.806,0.142,1.606,0.277,2.4,0.405
		c22.892,3.71,46.184-2.81,63.905-17.89c17.858-15.196,28.1-37.356,28.1-60.797v-21.952l-64.235,0.141c-0.006,0-0.012,0-0.018,0
		c-4.259,0-7.717-3.448-7.726-7.71c-0.01-4.268,3.442-7.735,7.71-7.744l68.411-0.15c0.01,0,0.02,0,0.03,0
		c3.006,0,5.835,1.169,7.967,3.295c2.138,2.134,3.316,4.972,3.316,7.993v26.128c0,27.979-12.224,54.429-33.539,72.567
		C294.897,429.118,273.183,437.011,250.908,437.011z"/>
</g>
<path style="fill:#FED130;" d="M156.195,548.992h101.609c-42.089-53.374-37.697-130.296-37.697-130.296H207h-13.107
	C193.893,418.697,198.285,495.619,156.195,548.992z"/>
<path style="fill:#F7BC14;" d="M220.107,418.697H207h-13.107c0,0,0.68,11.943-1.069,29.681
	c-3.334,33.811,5.053,67.919,24.841,95.536c1.228,1.714,2.5,3.408,3.817,5.078h36.323
	C215.715,495.619,220.107,418.697,220.107,418.697z"/>
<path style="fill:#FED130;" d="M130.353,282.292v67.411c0,39.882,18.955,77.39,51.064,101.046l0,0
	c15.214,11.208,35.952,11.208,51.166,0l0,0c32.109-23.655,51.064-61.164,51.064-101.046v-67.411H130.353L130.353,282.292z"/>
<path style="fill:#F7BC14;" d="M247.152,282.292v67.411c0,39.882-18.955,77.39-51.064,101.046l0,0
	c-2.329,1.716-4.788,3.166-7.336,4.356c14.098,6.587,30.945,5.137,43.83-4.356l0,0c32.109-23.655,51.064-61.164,51.064-101.046
	v-67.411H247.152L247.152,282.292z"/>
<path style="fill:#FFB125;" d="M289.138,292.822H124.862c-2.476,0-4.483-2.007-4.483-4.483v-18.578c0-2.476,2.007-4.483,4.483-4.483
	h164.276c2.476,0,4.483,2.007,4.483,4.483v18.578C293.62,290.815,291.613,292.822,289.138,292.822z"/>
<path style="fill:#FF901D;" d="M289.138,265.279h-32.012v27.543h32.012c2.476,0,4.482-2.007,4.482-4.483v-18.578
	C293.62,267.286,291.613,265.279,289.138,265.279z"/>
<path style="fill:#FFB125;" d="M294.164,581.568h-173.64c-2.517,0-4.264-2.507-3.392-4.868l12.895-34.94
	c0.524-1.421,1.878-2.364,3.392-2.364h147.85c1.514,0,2.868,0.943,3.392,2.364l12.895,34.94
	C298.428,579.061,296.681,581.568,294.164,581.568z"/>
<path style="fill:#FF901D;" d="M297.557,576.7l-12.895-34.94c-0.525-1.421-1.878-2.364-3.393-2.364h-35.266l15.564,42.172h32.597
	C296.681,581.568,298.428,579.061,297.557,576.7z"/>
</svg>
