<?xml version="1.0" encoding="iso-8859-1"?>
<!-- Generator: Adobe Illustrator 22.1.0, SVG Export Plug-In . SVG Version: 6.00 Build 0)  -->
<svg version="1.1" id="Layer_1" xmlns="http://www.w3.org/2000/svg" xmlns:xlink="http://www.w3.org/1999/xlink" x="0px" y="0px"
	 viewBox="0 0 260 160" style="enable-background:new 0 0 260 160;" xml:space="preserve">
<g>
	<path style="fill:#999999;" d="M149.902,113.865c-3.93-0.625-4.021-11.434-4.021-11.434s11.551-11.434,14.068-26.81
		c6.771,0,10.953-16.345,4.18-22.097C164.413,47.471,172.835,6,130.199,6C87.564,6,95.985,47.471,96.268,53.525
		c-6.772,5.752-2.59,22.097,4.181,22.097c2.517,15.375,14.068,26.81,14.068,26.81s-0.09,10.809-4.021,11.434
		c-12.661,2.014-59.941,22.868-59.941,45.737h159.289C209.844,136.733,162.564,115.879,149.902,113.865L149.902,113.865z
		 M149.902,113.865"/>
</g>
</svg>
