<?xml version="1.0" encoding="utf-8"?>
<!-- Generator: Adobe Illustrator 22.0.1, SVG Export Plug-In . SVG Version: 6.00 Build 0)  -->
<svg version="1.1" id="Layer_1" xmlns="http://www.w3.org/2000/svg" xmlns:xlink="http://www.w3.org/1999/xlink" x="0px" y="0px"
	 viewBox="0 0 24 24" style="enable-background:new 0 0 24 24;" xml:space="preserve">
<style type="text/css">
	.st0{fill:#FFFFFF;}
</style>
<g>
	<g>
		<path class="st0" d="M12,23.9C5.4,23.9,0.1,18.6,0.1,12C0.1,5.5,5.4,0.1,12,0.1S23.9,5.5,23.9,12C23.9,18.6,18.5,23.9,12,23.9z
			 M12,1.5C6.2,1.5,1.5,6.2,1.5,12c0,5.8,4.7,10.5,10.5,10.5S22.5,17.8,22.5,12C22.5,6.2,17.8,1.5,12,1.5z"/>
	</g>
	<g>
		<path class="st0" d="M15.6,16.3c-0.2,0-0.3-0.1-0.5-0.2l-3.6-3.6c-0.1-0.1-0.2-0.3-0.2-0.5V4.3c0-0.4,0.3-0.7,0.7-0.7
			c0.4,0,0.7,0.3,0.7,0.7v7.4l3.4,3.4c0.3,0.3,0.3,0.7,0,1C16,16.3,15.8,16.3,15.6,16.3z"/>
	</g>
</g>
</svg>
