<?xml version="1.0" encoding="utf-8"?>
<!-- Generator: Adobe Illustrator 22.0.1, SVG Export Plug-In . SVG Version: 6.00 Build 0)  -->
<svg version="1.1" id="Layer_1" xmlns="http://www.w3.org/2000/svg" xmlns:xlink="http://www.w3.org/1999/xlink" x="0px" y="0px"
	 viewBox="0 0 24 24" style="enable-background:new 0 0 24 24;" xml:space="preserve">
<style type="text/css">
	.st0{fill:#FFFFFF;}
</style>
<path class="st0" d="M8.3,20.4c0.1-0.2,0.1-0.3,0.1-0.5c0-0.7-0.6-1.3-1.3-1.3H7c-0.2-0.4-0.3-0.9-0.3-1.3c0-0.4,0.1-0.9,0.3-1.3
	h0.1c0.7,0,1.3-0.6,1.3-1.3c0-0.7-0.6-1.3-1.3-1.3l0.4-2.7c0-0.3,0-0.6-0.2-0.8C7.1,9.4,6.7,9.3,6.3,9.3H5.7V8.4
	C5.7,8.2,5.5,8,5.3,8C5.1,8,4.9,8.2,4.9,8.4v0.8H4.3c-0.4,0-0.8,0.2-1.1,0.5C3,10,3,10.3,3,10.6l0.4,2.7c-0.7,0-1.3,0.6-1.3,1.3
	c0,0.7,0.6,1.3,1.3,1.3h0c0.2,0.4,0.3,0.9,0.3,1.3c0,0.4-0.1,0.9-0.3,1.3h0c-0.7,0-1.3,0.6-1.3,1.3c0,0.2,0,0.4,0.1,0.5
	c-0.5,0.2-0.9,0.7-0.9,1.3C1.4,22.4,2,23,2.7,23h5.1c0.7,0,1.3-0.6,1.3-1.3C9.2,21.1,8.8,20.6,8.3,20.4L8.3,20.4z M4.3,10.1h2
	c0.4,0,0.4,0.3,0.4,0.3l-0.5,2.9H4.3l-0.5-2.9C3.9,10.4,3.9,10.1,4.3,10.1L4.3,10.1z M3.5,15.1c-0.2,0-0.5-0.2-0.5-0.5
	c0-0.2,0.2-0.5,0.5-0.5h3.6c0.2,0,0.5,0.2,0.5,0.5c0,0.2-0.2,0.5-0.5,0.5H3.5z M6,18.6H4.5c0.2-0.4,0.3-0.9,0.3-1.3
	c0-0.4-0.1-0.9-0.3-1.3H6c-0.2,0.4-0.3,0.9-0.3,1.3C5.8,17.7,5.8,18.1,6,18.6L6,18.6z M3.5,19.4h0.3c0,0,0,0,0,0h2.9c0,0,0,0,0,0
	h0.3c0.2,0,0.5,0.2,0.5,0.5c0,0.2-0.2,0.5-0.5,0.5H3.5c-0.2,0-0.5-0.2-0.5-0.5C3.1,19.6,3.3,19.4,3.5,19.4L3.5,19.4z M7.9,22.1H2.7
	c-0.2,0-0.5-0.2-0.5-0.5c0-0.2,0.2-0.5,0.5-0.5h5.1c0.2,0,0.5,0.2,0.5,0.5C8.3,21.9,8.1,22.1,7.9,22.1L7.9,22.1z M9.8,9.7
	c0.2,0.2,0.2,0.4,0,0.6l-1.1,1.1c-0.1,0.1-0.2,0.1-0.3,0.1c-0.1,0-0.2,0-0.3-0.1c-0.2-0.2-0.2-0.4,0-0.6l1.1-1.1
	C9.4,9.5,9.6,9.5,9.8,9.7L9.8,9.7z M18.5,12l2.3-2.3c0.2-0.2,0.4-0.2,0.6,0c0.2,0.2,0.2,0.4,0,0.6l-2.3,2.3
	c-0.1,0.1-0.2,0.1-0.3,0.1c-0.1,0-0.2,0-0.3-0.1C18.3,12.4,18.3,12.1,18.5,12L18.5,12z M18.2,10.9c-0.2-0.2-0.2-0.4,0-0.6l0.9-0.9
	c0.2-0.2,0.4-0.2,0.6,0c0.2,0.2,0.2,0.4,0,0.6l-0.9,0.9c-0.1,0.1-0.2,0.1-0.3,0.1C18.4,11.1,18.2,11,18.2,10.9L18.2,10.9z M22.8,1.9
	H5.3c-0.2,0-0.4,0.2-0.4,0.4v4.3c0,0.2,0.2,0.4,0.4,0.4c0.2,0,0.4-0.2,0.4-0.4V2.8h5v5H7.8C7.6,7.8,7.4,8,7.4,8.2
	c0,0.2,0.2,0.4,0.4,0.4h2.9v5H9.6c-0.2,0-0.4,0.2-0.4,0.4c0,0.2,0.2,0.4,0.4,0.4h1.1v5H9.5c-0.2,0-0.4,0.2-0.4,0.4
	c0,0.2,0.2,0.4,0.4,0.4h13.3c0.2,0,0.4-0.2,0.4-0.4V2.4C23.3,2.1,23.1,1.9,22.8,1.9L22.8,1.9z M16.6,19.5h-5v-5h5V19.5z M16.6,13.6
	h-5v-5h5V13.6z M16.6,7.8h-5v-5h5V7.8z M22.4,19.5h-5v-5h5V19.5z M22.4,13.6h-5v-5h5V13.6z M22.4,7.8h-5v-5h5V7.8z M15.8,17.3
	c0.2,0.2,0.2,0.4,0,0.6l-0.9,0.9c-0.1,0.1-0.2,0.1-0.3,0.1c-0.1,0-0.2,0-0.3-0.1c-0.2-0.2-0.2-0.4,0-0.6l0.9-0.9
	C15.4,17.1,15.7,17.1,15.8,17.3L15.8,17.3z M15.8,5.5c0.2,0.2,0.2,0.4,0,0.6L14.9,7c-0.1,0.1-0.2,0.1-0.3,0.1c-0.1,0-0.2,0-0.3-0.1
	c-0.2-0.2-0.2-0.4,0-0.6l0.9-0.9C15.4,5.3,15.7,5.3,15.8,5.5L15.8,5.5z M21.7,11.3c0.2,0.2,0.2,0.4,0,0.6l-0.9,0.9
	c-0.1,0.1-0.2,0.1-0.3,0.1c-0.1,0-0.2,0-0.3-0.1c-0.2-0.2-0.2-0.4,0-0.6l0.9-0.9C21.2,11.1,21.5,11.1,21.7,11.3L21.7,11.3z
	 M12.6,6.1l2.3-2.3c0.2-0.2,0.4-0.2,0.6,0c0.2,0.2,0.2,0.4,0,0.6l-2.3,2.3c-0.1,0.1-0.2,0.1-0.3,0.1c-0.1,0-0.2,0-0.3-0.1
	C12.4,6.6,12.4,6.3,12.6,6.1L12.6,6.1z M12.6,18l2.3-2.3c0.2-0.2,0.4-0.2,0.6,0c0.2,0.2,0.2,0.4,0,0.6l-2.3,2.3
	c-0.1,0.1-0.2,0.1-0.3,0.1c-0.1,0-0.2,0-0.3-0.1C12.4,18.4,12.4,18.1,12.6,18L12.6,18z M12.3,5.1c-0.2-0.2-0.2-0.4,0-0.6l0.9-0.9
	c0.2-0.2,0.4-0.2,0.6,0C14,3.8,14,4,13.9,4.2l-0.9,0.9c-0.1,0.1-0.2,0.1-0.3,0.1C12.5,5.3,12.4,5.2,12.3,5.1L12.3,5.1z M10.1,11.3
	c0.2,0.2,0.2,0.4,0,0.6l-0.9,0.9C9.1,12.9,9,13,8.9,13c-0.1,0-0.2,0-0.3-0.1c-0.2-0.2-0.2-0.4,0-0.6l0.9-0.9
	C9.7,11.1,9.9,11.1,10.1,11.3L10.1,11.3z M12.3,16.9c-0.2-0.2-0.2-0.4,0-0.6l0.9-0.9c0.2-0.2,0.4-0.2,0.6,0c0.2,0.2,0.2,0.4,0,0.6
	l-0.9,0.9c-0.1,0.1-0.2,0.1-0.3,0.1C12.5,17.1,12.4,17,12.3,16.9L12.3,16.9z M12.3,16.9"/>
</svg>
