<?xml version="1.0" encoding="utf-8"?>
<!-- Generator: Adobe Illustrator 22.0.1, SVG Export Plug-In . SVG Version: 6.00 Build 0)  -->
<svg version="1.1" id="Layer_1" xmlns="http://www.w3.org/2000/svg" xmlns:xlink="http://www.w3.org/1999/xlink" x="0px" y="0px"
	 viewBox="0 0 24 24" style="enable-background:new 0 0 24 24;" xml:space="preserve">
<style type="text/css">
	.st0{fill:#FFFFFF;}
</style>
<g>
	<rect x="6.5" y="13.7" class="st0" width="7.3" height="0.9"/>
	<rect x="6.5" y="11.5" class="st0" width="9" height="0.9"/>
	<rect x="6.5" y="16.2" class="st0" width="4.5" height="0.9"/>
	<rect x="6.5" y="9.2" class="st0" width="7.3" height="0.9"/>
	<rect x="6.5" y="5" class="st0" width="5.4" height="2.9"/>
	<path class="st0" d="M17.3,17.8c0-1.3-1.1-2.4-2.4-2.4c-1.3,0-2.4,1.1-2.4,2.4c0,1.3,1.1,2.4,2.4,2.4
		C16.2,20.2,17.3,19.1,17.3,17.8L17.3,17.8z M17.3,17.8"/>
	<path class="st0" d="M18.4,18.6l-3.5,2.8l1.9,2.4l0.9-2.4l2.6-0.3L18.4,18.6z M18.4,18.6"/>
	<path class="st0" d="M8.8,19.7l2.4,0.9l0.3,2.6l2.4-1.9l-2.8-3.5L8.8,19.7z M8.8,19.7"/>
	<path class="st0" d="M9.2,20.6H4.8V1.3h9.1l0,3.7h3.9v13.2l0.7-0.5l0.3,0.4V3.9h0l0,0l-3.9-3.6v0H3.7v21.5h6.8l-0.1-0.6L9.2,20.6z
		 M14.9,1.7l2.4,2.2h-2.4L14.9,1.7z M14.9,1.7"/>
</g>
</svg>
