<?xml version="1.0" encoding="utf-8"?>
<!-- Generator: Adobe Illustrator 22.0.1, SVG Export Plug-In . SVG Version: 6.00 Build 0)  -->
<svg version="1.1" id="Layer_1" xmlns="http://www.w3.org/2000/svg" xmlns:xlink="http://www.w3.org/1999/xlink" x="0px" y="0px"
	 viewBox="0 0 24 24" style="enable-background:new 0 0 24 24;" xml:space="preserve">
<style type="text/css">
	.st0{clip-path:url(#SVGID_2_);fill:#FFFFFF;}
	.st1{fill:#FFFFFF;}
</style>
<g>
	<defs>
		<rect id="SVGID_1_" x="0.9" y="2.5" width="22.2" height="20"/>
	</defs>
	<clipPath id="SVGID_2_">
		<use xlink:href="#SVGID_1_"  style="overflow:visible;"/>
	</clipPath>
	<path class="st0" d="M22.6,4.4c-0.3,0-0.5,0.2-0.5,0.5v13.4l-9.6,1.5v-1l8.2-1.8c0.2,0,0.4-0.3,0.4-0.5V3c0-0.2-0.1-0.3-0.2-0.4
		c-0.1-0.1-0.3-0.1-0.4-0.1L12,4.3L3.5,2.5c-0.1,0-0.3,0-0.4,0.1C2.9,2.7,2.8,2.8,2.8,3v13.6c0,0.2,0.2,0.4,0.4,0.5l8.2,1.8v1
		l-9.6-1.5V4.9c0-0.3-0.2-0.5-0.5-0.5c-0.3,0-0.5,0.2-0.5,0.5v13.9c0,0.2,0.2,0.5,0.4,0.5l10.6,1.7c0,0,0,0,0,0c0,0,0,0,0,0
		c0,0,0,0,0,0c0,0,0,0,0,0c0,0,0,0,0,0c0,0,0,0,0,0l10.6-1.7c0.2,0,0.4-0.2,0.4-0.5V4.9C23.1,4.6,22.8,4.4,22.6,4.4L22.6,4.4z
		 M20.1,16.2l-7.6,1.6V5.3l7.6-1.6V16.2z M3.8,3.6l7.6,1.6v12.6l-7.6-1.6V3.6z M3.8,3.6"/>
</g>
<path class="st1" d="M10.2,7.3l-5-1.1C4.9,6.2,4.7,6.4,4.6,6.7C4.5,6.9,4.7,7.2,5,7.3l5,1.1c0,0,0.1,0,0.1,0c0.2,0,0.4-0.2,0.5-0.4
	C10.6,7.7,10.4,7.4,10.2,7.3L10.2,7.3z M10.2,7.3"/>
<path class="st1" d="M10.2,10.7l-5-1.1c-0.3-0.1-0.5,0.1-0.6,0.4c-0.1,0.3,0.1,0.5,0.4,0.6l5,1.1c0,0,0.1,0,0.1,0
	c0.2,0,0.4-0.2,0.5-0.4C10.6,11.1,10.4,10.8,10.2,10.7L10.2,10.7z M10.2,10.7"/>
<path class="st1" d="M10.2,14.1l-5-1.1c-0.3-0.1-0.5,0.1-0.6,0.4C4.5,13.7,4.7,14,4.9,14l5,1.1c0,0,0.1,0,0.1,0
	c0.2,0,0.4-0.2,0.5-0.4C10.6,14.5,10.4,14.2,10.2,14.1L10.2,14.1z M10.2,14.1"/>
<path class="st1" d="M13.9,8.3c0,0,0.1,0,0.1,0l5-1.1c0.3-0.1,0.4-0.3,0.4-0.6c-0.1-0.3-0.3-0.4-0.6-0.4l-5,1.1
	c-0.3,0.1-0.4,0.3-0.4,0.6C13.5,8.2,13.7,8.3,13.9,8.3L13.9,8.3z M13.9,8.3"/>
<path class="st1" d="M18.8,9.7l-5,1.1c-0.3,0.1-0.4,0.3-0.4,0.6c0.1,0.2,0.3,0.4,0.5,0.4c0,0,0.1,0,0.1,0l5-1.1
	c0.3-0.1,0.4-0.3,0.4-0.6C19.3,9.8,19.1,9.6,18.8,9.7L18.8,9.7z M18.8,9.7"/>
<g>
	<path class="st1" d="M18.8,13.1l-5,1.1c-0.3,0.1-0.4,0.3-0.4,0.6c0.1,0.2,0.3,0.4,0.5,0.4c0,0,0.1,0,0.1,0l5-1.1
		c0.3-0.1,0.4-0.3,0.4-0.6C19.3,13.2,19.1,13,18.8,13.1L18.8,13.1z M18.8,13.1"/>
	<path class="st1" d="M22.5,19.8L12,21.5L1.5,19.8c-0.3,0-0.5,0.1-0.6,0.4c0,0.3,0.1,0.5,0.4,0.6l10.6,1.7c0,0,0.1,0,0.1,0
		c0,0,0.1,0,0.1,0l10.6-1.7c0.3,0,0.5-0.3,0.4-0.6C23,19.9,22.8,19.7,22.5,19.8L22.5,19.8z M22.5,19.8"/>
</g>
</svg>
