<?xml version="1.0" encoding="utf-8"?>
<!-- Generator: Adobe Illustrator 22.0.1, SVG Export Plug-In . SVG Version: 6.00 Build 0)  -->
<svg version="1.1" id="Layer_1" xmlns="http://www.w3.org/2000/svg" xmlns:xlink="http://www.w3.org/1999/xlink" x="0px" y="0px"
	 viewBox="0 0 24 24" style="enable-background:new 0 0 24 24;" xml:space="preserve">
<style type="text/css">
	.st0{fill:#FFFFFF;}
</style>
<g>
	<path class="st0" d="M20.5,15.8h0.3v-0.8h-0.3c0-0.3,0-0.5,0-0.8h0.4v-0.8h-0.4v-0.8h0.4c1.1,0,1.9-0.9,1.9-1.9
		c0-0.9-0.6-1.6-1.4-1.9L22,5.9h-2.8V3.9h1.5V1.3h-1.5V0.1h-3.1v0.7c-1.1-0.5-2.2-0.7-3.3-0.7c0,0-0.1,0-0.1,0c-4.1,0-7.8,3-8.6,7.1
		c-0.2,1-0.2,2.1-0.1,3.1l-2.6,4.6l2.9,0.8v4.7h3.8v3.5h0.8v-4.2H5v-4.5l-2.5-0.7l2.3-4l0-0.1c-0.2-1-0.2-2,0.1-3
		c0.8-3.8,4.2-6.5,8-6.5c0.8,0,1.6,0.1,2.3,0.4h-0.5v2.7h1.5v0.8c-0.1,0-0.1-0.1-0.2-0.1l-0.3,0.7c0.2,0.1,0.3,0.1,0.4,0.2v0.2h-2.8
		L14.2,9c-0.8,0.2-1.4,1-1.4,1.9c0,1.1,0.9,1.9,1.9,1.9H15v0.8h-0.4v0.8H15c0,0.3,0,0.5,0,0.8h-0.3v0.7c0,0,0,0,0,0l0.1,0.8
		c0,0,0,0,0.1,0c-0.5,2.3-1.6,4.1-1.6,4.1l-0.1,0.1l0.5,3.2h8.3l0.5-3.2l-0.1-0.1C22.2,20.6,20.9,18.5,20.5,15.8z M15.4,3.2V2h1.5
		V0.9h1.5V2H20v1.2h-1.5v2.7h-1.5V3.2H15.4z M14.6,12c-0.6,0-1.2-0.5-1.2-1.2s0.5-1.2,1.2-1.2h0.5h3.7V8.9h-3.9l-0.6-2.3h1.8h3.1
		h1.8l-0.8,3.1h0.5c0.6,0,1.2,0.5,1.2,1.2S21.4,12,20.8,12h-0.4H15H14.6z M15.8,12.8h3.8v0.8h-3.8V12.8z M15.8,14.3h3.8
		c0,0.3,0,0.5,0,0.8h-3.9C15.8,14.8,15.8,14.6,15.8,14.3z M21.2,23.1h-7l-0.3-1.9h5.3v-0.8h-5.1c0.5-0.9,1.2-2.6,1.5-4.6h4.1
		c0.4,2.5,1.5,4.6,1.8,5.1L21.2,23.1z"/>
	<path class="st0" d="M8.6,7.4C8.3,7.9,8.1,8.4,7.9,9l0.7,0.2c0.1-0.5,0.3-1,0.6-1.4L8.6,7.4z"/>
	<path class="st0" d="M9.4,13.4l-0.6,0.4c0.3,0.5,0.7,0.9,1.1,1.3l0.5-0.6C10,14.2,9.7,13.9,9.4,13.4z"/>
	<path class="st0" d="M7.7,10.7c0,0.6,0.1,1.1,0.3,1.7l0.7-0.2c-0.2-0.5-0.2-1-0.3-1.5L7.7,10.7z"/>
	<path class="st0" d="M14.3,5.1l0.1-0.8c-0.6,0-1.1,0-1.7,0.1l0.2,0.8C13.3,5.1,13.8,5.1,14.3,5.1z"/>
	<path class="st0" d="M11.4,5.7L11,5c-0.5,0.3-1,0.6-1.4,1l0.5,0.6C10.5,6.2,10.9,5.9,11.4,5.7z"/>
	<path class="st0" d="M11.7,15.4l-0.3,0.7c0.5,0.2,1.1,0.4,1.6,0.5l0.1-0.8C12.6,15.7,12.1,15.6,11.7,15.4z"/>
</g>
</svg>
