<?xml version="1.0" encoding="utf-8"?>
<!-- Generator: Adobe Illustrator 22.0.1, SVG Export Plug-In . SVG Version: 6.00 Build 0)  -->
<svg version="1.1" id="Layer_1" xmlns="http://www.w3.org/2000/svg" xmlns:xlink="http://www.w3.org/1999/xlink" x="0px" y="0px"
	 viewBox="0 0 24 24" style="enable-background:new 0 0 24 24;" xml:space="preserve">
<style type="text/css">
	.st0{fill:#FFFFFF;}
</style>
<path class="st0" d="M12,23.8c-1,0-2.1-0.1-3.1-0.4c-3.1-0.8-5.6-2.8-7.2-5.5c-1.6-2.7-2-5.9-1.2-9c0.8-3.1,2.8-5.6,5.5-7.2l0.3,0.5
	L6.1,1.8c2.7-1.6,5.9-2,9-1.2c3.1,0.8,5.6,2.8,7.2,5.5c1.6,2.7,2,5.9,1.2,9c-0.8,3.1-2.8,5.6-5.5,7.2C16.1,23.3,14.1,23.8,12,23.8z
	 M12,1.4c-1.8,0-3.6,0.5-5.3,1.4C4.3,4.2,2.5,6.5,1.8,9.3c-0.7,2.7-0.4,5.6,1.1,8c1.4,2.5,3.7,4.2,6.4,4.9c2.7,0.7,5.6,0.4,8-1.1
	c2.5-1.4,4.2-3.7,4.9-6.4c0.7-2.7,0.4-5.6-1.1-8c-1.4-2.5-3.7-4.2-6.4-4.9C13.8,1.5,12.9,1.4,12,1.4z"/>
<path class="st0" d="M9.4,17.7c-0.2,0-0.4-0.1-0.6-0.2c-0.4-0.2-0.6-0.7-0.6-1.1V7.6c0-0.5,0.2-0.9,0.6-1.1c0.4-0.2,0.9-0.2,1.3,0
	l7.6,4.4c0.4,0.2,0.6,0.7,0.6,1.1c0,0.5-0.2,0.9-0.6,1.1l-7.6,4.4C9.9,17.6,9.6,17.7,9.4,17.7z M9.4,7.6C9.4,7.6,9.4,7.6,9.4,7.6
	C9.4,7.6,9.4,7.6,9.4,7.6l-0.1,8.8c0,0,0,0,0,0c0,0,0,0,0.1,0l7.6-4.4c0,0,0,0,0,0c0,0,0,0,0,0L9.4,7.6L9.4,7.6
	C9.4,7.6,9.4,7.6,9.4,7.6z"/>
<path class="st0" d="M18.8,7.4c-0.2,0-0.4-0.1-0.5-0.2c-1.3-1.6-3.2-2.7-5.2-3c-0.3,0-0.6-0.4-0.5-0.7c0-0.3,0.4-0.6,0.7-0.5
	c2.4,0.3,4.6,1.6,6,3.5c0.2,0.3,0.2,0.7-0.1,0.9C19,7.3,18.9,7.4,18.8,7.4z"/>
</svg>
