<?xml version="1.0" encoding="iso-8859-1"?>
<!-- Generator: Adobe Illustrator 22.1.0, SVG Export Plug-In . SVG Version: 6.00 Build 0)  -->
<svg version="1.1" id="Layer_1" xmlns="http://www.w3.org/2000/svg" xmlns:xlink="http://www.w3.org/1999/xlink" x="0px" y="0px"
	 viewBox="0 0 28 28" style="enable-background:new 0 0 28 28;" xml:space="preserve">
<path style="fill:#99CC66;" d="M26.197,10.759C25.899,10.52,18.724,5,14.304,5C9.835,5,2.66,10.52,2.362,10.759
	c-0.143,0.114-0.233,0.287-0.233,0.472s0.084,0.358,0.233,0.472c0.161,0.125,2.204,1.696,4.761,3.172v5.89
	c0,0.239,0.143,0.46,0.364,0.55c0.191,0.078,4.624,1.923,7.174,1.923h0.096c2.258-0.047,6.165-1.858,6.332-1.935
	c0.209-0.096,0.347-0.311,0.347-0.544v-5.89c0.681-0.394,1.332-0.795,1.918-1.177h0.006v5.018c0,0.323,0.239,0.603,0.561,0.621
	c0.347,0.018,0.633-0.257,0.633-0.597v-5.836c0.944-0.651,1.559-1.129,1.643-1.189c0.144-0.113,0.233-0.287,0.233-0.472
	C26.43,11.051,26.347,10.872,26.197,10.759L26.197,10.759z M20.247,20.377h-0.006c-0.992,0.436-3.859,1.631-5.508,1.666
	c-1.899,0.042-5.299-1.242-6.422-1.684v-4.827c0,0,0-0.006,0.006,0c2.025,1.063,4.218,1.93,5.986,1.93
	c1.744,0,3.925-0.86,5.938-1.923h0.006V20.377z M24.823,11.231c-0.836,0.615-2.42,1.72-4.212,2.742
	c-0.048,0.018-0.09,0.042-0.131,0.072c-2.085,1.177-4.427,2.222-6.183,2.222c-1.798,0-4.182-1.069-6.296-2.264l-0.006-0.006
	c-1.81-1.028-3.417-2.144-4.271-2.766v-0.006c1.84-1.338,7.234-5.03,10.574-5.03c3.304,0,8.686,3.698,10.526,5.03v0.006H24.823z"/>
</svg>
