<?xml version="1.0" encoding="iso-8859-1"?>
<!-- Generator: Adobe Illustrator 22.1.0, SVG Export Plug-In . SVG Version: 6.00 Build 0)  -->
<svg version="1.1" id="Layer_1" xmlns="http://www.w3.org/2000/svg" xmlns:xlink="http://www.w3.org/1999/xlink" x="0px" y="0px"
	 viewBox="0 0 24 24" style="enable-background:new 0 0 24 24;" xml:space="preserve">
<path style="fill:#F99E1C;" d="M17.607,2.268c-0.182-0.887-0.967-1.556-1.907-1.556c-0.214,0-0.387,0.175-0.387,0.39
	c0,0.214,0.173,0.39,0.387,0.39c0.644,0,1.169,0.522,1.169,1.166S16.344,3.824,15.7,3.824c-0.214,0-0.387,0.175-0.387,0.39
	c0,0.215,0.173,0.39,0.387,0.39c0.941,0,1.725-0.669,1.907-1.556h5.097v3.501H1.696V3.047h6.613c0.215,0,0.39-0.175,0.39-0.39
	c0-0.214-0.175-0.39-0.39-0.39H7.602c0.161-0.452,0.589-0.777,1.096-0.777c0.644,0,1.166,0.522,1.166,1.166S9.342,3.824,8.698,3.824
	c-0.214,0-0.39,0.175-0.39,0.39c0,0.215,0.175,0.39,0.39,0.39c1.073,0,1.945-0.872,1.945-1.945S9.771,0.712,8.698,0.712
	c-0.939,0-1.725,0.669-1.905,1.556H0.917V22.89h22.565V2.268H17.607z M22.705,22.111H1.696V7.327h21.009V22.111z M22.705,22.111"/>
<path style="fill:#F99E1C;" d="M11.033,1.491c0.644,0,1.166,0.522,1.166,1.166s-0.522,1.166-1.166,1.166
	c-0.215,0-0.39,0.175-0.39,0.39c0,0.215,0.175,0.39,0.39,0.39c1.071,0,1.945-0.872,1.945-1.945s-0.874-1.945-1.945-1.945
	c-0.215,0-0.39,0.175-0.39,0.39C10.643,1.316,10.818,1.491,11.033,1.491L11.033,1.491z M11.033,1.491"/>
<path style="fill:#F99E1C;" d="M13.368,1.491c0.642,0,1.166,0.522,1.166,1.166s-0.524,1.166-1.166,1.166
	c-0.215,0-0.39,0.175-0.39,0.39c0,0.215,0.175,0.39,0.39,0.39c1.071,0,1.945-0.872,1.945-1.945s-0.874-1.945-1.945-1.945
	c-0.215,0-0.39,0.175-0.39,0.39C12.978,1.316,13.153,1.491,13.368,1.491L13.368,1.491z M13.368,1.491"/>
<path style="fill:#F99E1C;" d="M5.973,13.55c1.288,0,2.335-1.047,2.335-2.332c0-1.288-1.047-2.335-2.335-2.335
	c-1.286,0-2.332,1.047-2.332,2.335C3.641,12.504,4.688,13.55,5.973,13.55L5.973,13.55z M5.973,9.66c0.859,0,1.558,0.699,1.558,1.558
	c0,0.856-0.699,1.556-1.558,1.556c-0.856,0-1.556-0.699-1.556-1.556C4.418,10.359,5.117,9.66,5.973,9.66L5.973,9.66z M5.973,9.66"/>
<path style="fill:#F99E1C;" d="M12.199,13.55c1.288,0,2.335-1.047,2.335-2.332c0-1.288-1.047-2.335-2.335-2.335
	c-1.286,0-2.335,1.047-2.335,2.335C9.864,12.504,10.913,13.55,12.199,13.55L12.199,13.55z M12.199,9.66
	c0.859,0,1.556,0.699,1.556,1.558c0,0.856-0.697,1.556-1.556,1.556c-0.858,0-1.556-0.699-1.556-1.556
	C10.643,10.359,11.341,9.66,12.199,9.66L12.199,9.66z M12.199,9.66"/>
<path style="fill:#F99E1C;" d="M18.424,13.55c1.288,0,2.335-1.047,2.335-2.332c0-1.288-1.047-2.335-2.335-2.335
	c-1.288,0-2.335,1.047-2.335,2.335C16.09,12.504,17.137,13.55,18.424,13.55L18.424,13.55z M18.424,9.66
	c0.859,0,1.556,0.699,1.556,1.558c0,0.856-0.697,1.556-1.556,1.556c-0.859,0-1.556-0.699-1.556-1.556
	C16.869,10.359,17.566,9.66,18.424,9.66L18.424,9.66z M18.424,9.66"/>
<path style="fill:#F99E1C;" d="M5.973,19.776c1.288,0,2.335-1.047,2.335-2.335c0-1.286-1.047-2.332-2.335-2.332
	c-1.286,0-2.332,1.047-2.332,2.332C3.641,18.729,4.688,19.776,5.973,19.776L5.973,19.776z M5.973,15.885
	c0.859,0,1.558,0.699,1.558,1.556c0,0.859-0.699,1.558-1.558,1.558c-0.856,0-1.556-0.699-1.556-1.558
	C4.418,16.585,5.117,15.885,5.973,15.885L5.973,15.885z M5.973,15.885"/>
<path style="fill:#F99E1C;" d="M12.199,19.776c1.288,0,2.335-1.047,2.335-2.335c0-1.286-1.047-2.332-2.335-2.332
	c-1.286,0-2.335,1.047-2.335,2.332C9.864,18.729,10.913,19.776,12.199,19.776L12.199,19.776z M12.199,15.885
	c0.859,0,1.556,0.699,1.556,1.556c0,0.859-0.697,1.558-1.556,1.558c-0.858,0-1.556-0.699-1.556-1.558
	C10.643,16.585,11.341,15.885,12.199,15.885L12.199,15.885z M12.199,15.885"/>
<path style="fill:#F99E1C;" d="M18.814,19.386c0,0.217-0.175,0.39-0.39,0.39s-0.39-0.173-0.39-0.39c0-0.214,0.175-0.387,0.39-0.387
	S18.814,19.172,18.814,19.386L18.814,19.386z M18.814,19.386"/>
<path style="fill:#F99E1C;" d="M17.258,18.999c0,0.214-0.175,0.387-0.39,0.387c-0.215,0-0.39-0.173-0.39-0.387
	c0-0.217,0.175-0.39,0.39-0.39C17.083,18.61,17.258,18.782,17.258,18.999L17.258,18.999z M17.258,18.999"/>
<path style="fill:#F99E1C;" d="M20.37,18.999c0,0.214-0.175,0.387-0.39,0.387c-0.214,0-0.39-0.173-0.39-0.387
	c0-0.217,0.175-0.39,0.39-0.39C20.195,18.61,20.37,18.782,20.37,18.999L20.37,18.999z M20.37,18.999"/>
<path style="fill:#F99E1C;" d="M20.37,15.885c0,0.215-0.175,0.39-0.39,0.39c-0.214,0-0.39-0.175-0.39-0.39
	c0-0.214,0.175-0.39,0.39-0.39C20.195,15.496,20.37,15.671,20.37,15.885L20.37,15.885z M20.37,15.885"/>
<path style="fill:#F99E1C;" d="M17.258,15.885c0,0.215-0.175,0.39-0.39,0.39c-0.215,0-0.39-0.175-0.39-0.39
	c0-0.214,0.175-0.39,0.39-0.39C17.083,15.496,17.258,15.671,17.258,15.885L17.258,15.885z M17.258,15.885"/>
<path style="fill:#F99E1C;" d="M18.035,16.664c0,0.214-0.173,0.39-0.39,0.39c-0.214,0-0.387-0.175-0.387-0.39
	c0-0.215,0.173-0.39,0.387-0.39C17.862,16.275,18.035,16.449,18.035,16.664L18.035,16.664z M18.035,16.664"/>
<path style="fill:#F99E1C;" d="M19.591,16.664c0,0.214-0.173,0.39-0.387,0.39c-0.217,0-0.39-0.175-0.39-0.39
	c0-0.215,0.173-0.39,0.39-0.39C19.418,16.275,19.591,16.449,19.591,16.664L19.591,16.664z M19.591,16.664"/>
<path style="fill:#F99E1C;" d="M18.814,17.441c0,0.217-0.175,0.39-0.39,0.39s-0.39-0.173-0.39-0.39c0-0.214,0.175-0.387,0.39-0.387
	S18.814,17.226,18.814,17.441L18.814,17.441z M18.814,17.441"/>
<path style="fill:#F99E1C;" d="M18.035,18.22c0,0.214-0.173,0.39-0.39,0.39c-0.214,0-0.387-0.175-0.387-0.39s0.173-0.39,0.387-0.39
	C17.862,17.83,18.035,18.006,18.035,18.22L18.035,18.22z M18.035,18.22"/>
<path style="fill:#F99E1C;" d="M19.591,18.22c0,0.214-0.173,0.39-0.387,0.39c-0.217,0-0.39-0.175-0.39-0.39s0.173-0.39,0.39-0.39
	C19.418,17.83,19.591,18.006,19.591,18.22L19.591,18.22z M19.591,18.22"/>
<path style="fill:#F99E1C;" d="M20.759,17.441c0,0.217-0.175,0.39-0.39,0.39s-0.39-0.173-0.39-0.39c0-0.214,0.175-0.387,0.39-0.387
	S20.759,17.226,20.759,17.441L20.759,17.441z M20.759,17.441"/>
<path style="fill:#F99E1C;" d="M16.869,17.441c0,0.217-0.175,0.39-0.39,0.39s-0.39-0.173-0.39-0.39c0-0.214,0.175-0.387,0.39-0.387
	S16.869,17.226,16.869,17.441L16.869,17.441z M16.869,17.441"/>
<path style="fill:#F99E1C;" d="M18.814,15.496c0,0.217-0.175,0.39-0.39,0.39s-0.39-0.173-0.39-0.39c0-0.214,0.175-0.387,0.39-0.387
	S18.814,15.281,18.814,15.496L18.814,15.496z M18.814,15.496"/>
</svg>
