<?xml version="1.0" encoding="utf-8"?>
<!-- Generator: Adobe Illustrator 22.1.0, SVG Export Plug-In . SVG Version: 6.00 Build 0)  -->
<svg version="1.1" id="Layer_1" xmlns="http://www.w3.org/2000/svg" xmlns:xlink="http://www.w3.org/1999/xlink" x="0px" y="0px"
	 viewBox="0 0 612 792" style="enable-background:new 0 0 612 792;" xml:space="preserve">
<style type="text/css">
	.st0{fill:#A0CD4E;}
</style>
<g>
	<path class="st0" d="M436.4,424.7c0.2-0.2,0.7-0.5,1-0.7"/>
	<g>
		<path class="st0" d="M470.8,382.6C470.5,382.6,470.5,382.6,470.8,382.6c-2-21.4-19.7-38.2-41.6-38.2c-5.7,0-11,1.2-16,3.2
			C398.7,316.7,364,295,323.6,295s-74.8,21.7-89.5,52.6c-5-2-10.2-3.2-16-3.2c-21.7,0-39.6,16.7-41.4,38.2c0,0,0,0-0.2,0
			c-31.2,0-56.4,25.2-56.4,56.4c0,31.4,24.7,56.4,58.4,56.4h97.3c-3.5-0.5-7.2-1.2-11-2.2c-16.7-4-33.7-10.7-46.6-21.7
			c-7.7-2-15.5-5.7-22.7-12c-1.2-1.5,0-3,1.2-4.5c4.2,3.5,8.7,6.2,13.5,8.2l9.5,3c11.7,2.5,24.2,1.2,36.4-1.5c0.5,0,0.7-0.2,1.2-0.2
			c0.7-1,1.5-2,2-3c0.7-1.2,1.5-2.5,2-3.7c0.5,0,1,0.2,1.5,0.2h0.5h0.5c0.5,0,0.7,0,1.2,0s0.7,0,1.2,0c0.5,0,0.7,0,1.2,0h1.2h1.2
			h-1.2h-1.2c-0.5,0-0.7,0-1.2,0c-0.5,0-0.7,0-1.2-0.2c-0.5,0-0.7,0-1.2-0.2h-0.5h-0.5c-0.7-0.2-1.5-0.2-2.2-0.5
			c-0.7-0.2-1.5-0.5-2.2-0.7s-1.5-0.7-2-1c-0.7-0.2-1.2-0.7-2-1.2c-0.5-0.5-1.2-1-1.7-1.5c-1-1-2-2.2-2.7-3.5s-1.5-2.7-2-4
			c-0.5-1.5-0.7-3-1-4.5c0-0.7-0.2-1.5-0.2-2.2l0,0c0.2,0.2,0.5,0.5,0.7,0.7c0.5,0.2,1,0.7,1.2,1c0.5,0.2,1,0.5,1.5,0.7
			c1,0.5,2,1,3,1.2s2.2,0.5,3.2,0.5c0.5,0,1,0,1.7,0c0.5,0,1,0,1.7,0c0.5,0,1-0.2,1.5-0.2c0.2,0,0.5,0,0.7-0.2
			c0.2,0,0.5-0.2,0.7-0.2s0.5-0.2,0.7-0.2s0.5-0.2,0.7-0.2c0.5-0.2,1-0.2,1.5-0.5c0.2,0,0.5-0.2,0.7-0.2c0.2,0,0.5-0.2,0.7-0.2
			l0.7-0.2l0.7-0.5l-0.7,0.2l-0.7,0.2l-0.7,0.2c-0.2,0-0.5,0.2-0.7,0.2c-0.5,0-0.7,0.2-1.2,0.2c0-1,0.2-1.7,0.2-2.7
			c0.2-1.2,0.5-2.5,1-3.7c0.5-1.2,1.2-2.2,2.2-3c1-0.7,2-1.2,3.2-1.5c1.2-0.2,2.5-0.2,4-0.2c1.2,0,2.7,0.2,4,0.5
			c0.7,0,1.2,0.2,2,0.5c-0.2,0.2-0.7,0.5-1,0.7c-0.7,0.7-1.5,1.7-2,3c-0.5,1.2-0.5,2.2-0.5,3.5s0.5,2.2,1,3.2l0.2,0.2
			c0,0.2,0,0.2,0.2,0.2c0,0.2,0.2,0.5,0.2,0.7c0.2,0.5,0.2,1,0.2,1.5c0.2,1,0.2,2,0.2,3c0,1-0.2,2-0.5,3c0,0.5-0.2,1-0.5,1.5
			c-0.2,0.5-0.2,1-0.5,1.5c-0.2,0.5-0.5,1-0.7,1.5c-0.2,0.5-0.5,1-0.7,1.2c-0.5,1-1.2,1.7-2,2.5s-1.5,1.5-2.2,2.2
			c-0.5,0.5-1,0.7-1.5,1c9.2-1.7,17.5-5.7,25.9-9.2l0,0c-0.2-0.2-0.7-0.5-1-0.5c-0.2-0.2-0.7-0.5-1-0.5c-0.2-0.2-0.7-0.5-1-0.7
			l-0.5-0.2l-0.5-0.2c-0.7-0.5-1.2-1-1.7-1.5c-0.5-0.5-1.2-1-1.7-1.5s-1-1.2-1.5-1.7c-0.5-0.5-1-1.2-1.2-2c-0.5-0.7-0.7-1.2-1-2
			c-0.5-1.5-1-3-1.2-4.5c-0.2-1.5-0.2-3,0-4.5c0-1.5,0.5-3,0.7-4.5c0.2-0.7,0.5-1.5,0.7-2.2l0,0c0.2,0.2,0.2,0.7,0.5,1
			c0.2,0.5,0.5,1,1,1.5c0.2,0.5,0.7,1,1,1.2c0.7,0.7,1.5,1.7,2.5,2.2c1,0.7,1.7,1.2,2.7,1.7c0.5,0.2,1,0.5,1.5,0.7
			c0.5,0.2,1,0.5,1.5,0.5c0.5,0.2,1,0.2,1.5,0.5c0.2,0,0.5,0,0.7,0.2c0.2,0,0.5,0,0.7,0.2c0.2,0,0.5,0,0.7,0c0.2,0,0.5,0,0.7,0
			c0.5,0,1,0,1.7,0c0.2,0,0.5,0,0.7,0c0.2,0,0.5,0,0.7,0h0.7h0.7h-0.7h-0.7h-0.7c-0.2,0-0.5,0-0.7,0c-0.5,0-1-0.2-1.5-0.2
			c-0.2,0-0.5,0-0.7-0.2c-0.2,0-0.5,0-0.7-0.2v-0.2c0.2-1.2,0.5-2.7,1-4c0.5-1.2,1.2-2.2,2.2-3.2c1-0.7,2.2-1.2,3.5-1.7
			c1.2-0.2,2.5-0.2,4-0.2c1.2,0,2.7,0.2,4,0.5c0.7,0,1.2,0.2,2,0.5c-0.2,0.2-0.7,0.5-1,0.7c-0.7,0.7-1.5,1.7-2,3
			c-0.5,1.2-0.5,2.5-0.5,3.5c0,1.2,0.5,2.2,1,3.5l0.2,0.2c0,0.2,0,0.2,0.2,0.2c0,0.2,0.2,0.5,0.2,0.7c0.2,0.5,0.2,1,0.2,1.5
			c0.2,1,0.2,2,0.2,3c0,1-0.2,2-0.5,3c0,0.5-0.2,1-0.5,1.5c-0.2,0.5-0.2,1-0.5,1.5c-0.2,0.5-0.5,1-0.7,1.5c-0.2,0.5-0.5,1-0.7,1.2
			c-0.5,1-1.2,1.7-2,2.5s-1.5,1.5-2.2,2.2c-0.7,0.7-1.7,1.2-2.5,2c-1.7,1.2-3.7,2.2-5.7,3c-1,0.5-2,0.7-3,1.2c-1,0.2-2,0.7-3.2,1
			l-11,7l0,0c1-0.7,2-1.7,3-2.7c1-1,2-2,3-3c1.7-2,3.5-4.2,5-6.7c-8,2.2-16.5,3.7-24.2,7.5c-4.2,1.2-8.2,2.7-12.5,3.7
			c-1.5,0.5-2.7,0.7-4.2,1l-5.5,3.5l0,0c1-0.7,2-1.7,3-2.5c0.2-0.2,0.2-0.2,0.5-0.5c-8,1.7-15.7,2.7-23.7,2.2
			c1.7,1.2,3.5,2.2,5.2,3.2c-0.2-0.5-0.2-1.2-0.2-1.5c4.7,3,14,8.5,31.4,8.5c3.2,0,6.5,0.2,9.7,0.2c24.4,1,46.6-7.2,66.1-21.2
			c-5-2.2-8.2-5.5-10.5-8.7c-2.2-1.2-4.2-2.7-6.5-4.2c1.2,0,1.2-1.5,2.2-1.5c0.7,0.5,1.5,0.7,2,1.2c-1-3.7-0.7-7.2,0.5-10.2
			c3.5-7.5-3.5-10.5-3.5-10.5c16-4,18.5,2.5,18.7,13c-0.2-0.5-0.5-0.7-0.7-1.2c0-0.2-0.2-0.5-0.2-0.7s-0.2-0.5-0.2-0.7
			c-0.2-0.5-0.5-1-0.7-1.5l-0.2-0.7l-0.2-0.7c0,0.2,0,0.5,0.2,0.7l0.2,0.7c0.2,0.5,0.2,1,0.5,1.5c0.2,0.5,0.2,1,0.5,1.5
			c0.2,0.5,0.5,1,0.7,1.5c0.2,0.5,0.5,1,0.7,1.5c0.2,0.2,0.2,0.5,0.5,0.7c0.2,0.2,0.2,0.5,0.5,0.7c0.5,1,1.2,1.7,2,2.5
			c0.2,0.5,0.7,0.7,1.2,1c0.5,0.2,0.7,0.7,1.2,1c0.7,0.7,1.7,1.2,2.7,1.7c0.5,0.2,1,0.5,1.5,0.7c0.2,0,0.5,0.2,0.5,0.2
			c2.7-2.5,5.7-5.2,8.2-8c-2.2,4.2-4.7,8-7.5,11.5c12.7,0.2,25.7-3,37.4-7c2.2-0.5,4.2-1,6.5-1.5c0.2,0,0.7,0.2,1,0.2
			c-2.2,1.7-4.5,3-7,4.2c-12.7,5-27.4,9-41.6,8.2c-0.7,0.7-1.7,1.7-2.5,2.5c2.5,4,4.7,5.7,4.7,5.7l-5.5-3c-0.7-0.2-1.2-0.2-2-0.5
			c-18.5,16-44.1,21.7-67.3,22.9c-3.2,0.2-9.5,1-13,0.7c3.2,0.7,6.5,1.5,9.7,2.2c31.9,7,65.1,5.5,96.3-6.5c3.5-1,7.2-2.5,10.7-4
			c23.2-10,44.6-28.7,54.4-55.1c-38.2,27.2-71.6,15.5-82-5.5c-6.7-13.2-17-12.7-22.7-11.2l0,0c0.5,0.7,0.5,1.5,1,2.2
			c0.2,0.5,0.7,0.7,1.2,1.2c0.5,0.5,0.5,1.2,0.2,1.7s-0.7,0.5-1.2,0.2c-0.5-0.2-0.7-0.5-1-1c0-0.2-0.2-0.5-0.2-0.5
			c-0.2-0.2-0.2-0.2-0.5-0.2c-0.7-0.5-0.5-2-1.2-2.2c-0.2-0.2-0.7-0.2-1-0.2l0,0c-1,0.2-1.5,0.7-1.5,0.7c0.2-0.5,0.5-0.7,0.5-1.2
			h-0.2c-0.5-0.2-1-0.2-1.5-0.5c-0.2,0-0.5-0.2-0.7-0.5c-0.5,0-1,0.7-1.5,0.7l-0.2-0.2c-0.2-0.5-0.2-1-0.2-1.5s0.5-1,1-1.2
			c0.5-0.2,1,0,1.2,0.5c0,0.2,0.2,0.2,0.2,0.2c0.2,0,0.5-0.2,0.7-0.2c0.7-0.2,1.2,0.5,1.7,1c16.7-33.9,33.2-29.7,52.6-15
			c-0.2,0-0.5,0-1,0.2c-1.2,0.2-2.7,0.5-4,0.5c-0.7,0-1.2,0.2-2,0.2s-1.2,0-2,0.2c-1.2,0-2.7,0.2-4,0.2h-2h-2c0.7,0,1.2,0.2,2,0.2
			l2,0.2c1.2,0.2,2.7,0.2,4,0.2c1.2,0,2.7,0,4,0s2.7,0,4-0.2c1.2,0,2.7-0.2,4-0.5c0.7,0,1.2-0.2,2-0.2c0.7-0.2,1.2-0.2,2-0.5
			c2.7-0.5,5.2-1.5,8-2.5c1.2-0.5,2.5-1,3.7-1.7c1.2-0.5,2.5-1.2,3.7-2c2.5-1.5,4.7-3,6.7-4.7c1-1,2-1.7,3-2.7c1-1,2-2,2.7-3
			c1-1,1.7-2.2,2.5-3.2c0.2-0.2,0.2-0.5,0.5-0.7c0.2,0.2,0.2,0.7,0.5,1c0.7,1.2,1.2,2.5,1.7,3.7s1,2.5,1.5,4c0.5,1.2,0.7,2.7,1,4
			c0.5,2.7,0.5,5.5,0.2,8.2c-0.2,1.5-0.5,2.7-0.7,4.2c-0.2,1.2-0.7,2.7-1.2,4c-0.5,1.2-1,2.5-1.7,3.7s-1.5,2.5-2.2,3.7
			c-0.5,0.5-0.7,1.2-1.2,1.7c-0.5,0.5-1,1.2-1.2,1.7l-0.7,0.7c-0.2,0.2-0.5,0.5-0.7,0.7c-0.5,0.5-1,1-1.5,1.5c-0.5,0.5-1,1-1.5,1.5
			l-1.5,1.5c-0.5,0.5-1,1-1.7,1.5l-1.7,1.5c-1.2,1-2.2,1.7-3.5,2.7l-1.7,1.2c-0.5,0.5-1.2,0.7-1.7,1.2c0.7-0.2,1.2-0.7,2-1
			s1.2-0.7,2-1c1.2-0.7,2.5-1.5,3.7-2.2c1.2-0.7,2.5-1.7,3.7-2.5l1.7-1.5c0.5-0.5,1.2-1,1.7-1.5c0.5-0.5,1.2-1,1.7-1.5
			c0.2-0.2,0.7-0.7,1-1c20.2,7,35.4,3.5,35.4,3.5l-15,6c-0.2,0.2-0.7,0.5-1,0.7c-6,32.7-32.9,50.9-59.3,61.1c-4,1.5-8,3-11.7,4.2
			c-9.5,2.5-19.2,4.7-28.9,6h131.2c33.4,0,58.4-24.9,58.4-56.4C527.1,407.7,501.9,382.6,470.8,382.6z M263.6,440.9
			C263.3,440.9,263.3,440.9,263.6,440.9c-0.2,0-0.5,0-0.7,0.2c-0.5,0-1,0.2-1.5,0.2c-0.5,0-1,0-1.5,0c-1,0-2,0-3-0.2
			c-0.5,0-1-0.2-1.5-0.2c-0.5,0-0.7-0.2-1.2-0.2c-0.2-1.2-0.2-2.5-0.2-3.7c0-1.5,0.2-3,0.5-4.5c0.2-0.7,0.2-1.5,0.5-2.2l0,0
			c0.2,0.2,0.2,0.7,0.5,1c0.2,0.5,0.5,1,1,1.5c0.2,0.5,0.7,1,1,1.2c0.7,0.7,1.5,1.5,2.5,2.2c1,0.7,1.7,1.2,2.7,1.7
			c0.5,0.2,0.7,0.2,1.2,0.5C263.6,438.9,263.6,439.9,263.6,440.9z M344.1,435.7c0.5,0,1,0.2,1.5,0.2c1,0.2,2.2,0.2,3.2,0.2
			c0.5,0,1,0,1.5,0c0.5,0,1-0.2,1.5-0.2c0.5,0,1-0.2,1.5-0.5h0.2c0,0.2,0,0.2,0,0.5c0,0.5-0.2,1-0.2,1.5c-0.2,0.5-0.2,1-0.5,1.5
			c-0.2,0.5-0.5,1-0.7,1.5c-0.5,1-1.2,1.7-2,2.5c-0.2,0.5-0.7,0.7-1.2,1c-0.5,0.2-1,0.7-1.2,1c-0.5,0.2-1,0.5-1.5,0.7l0,0
			c-0.2-0.2-0.5-0.5-0.7-0.7c-0.2-0.5-0.7-0.7-1-1.2c-0.2-0.2-0.5-0.5-0.5-0.7c0-0.5,0-1,0-1.5c0-1.2,0-2.5,0-3.7
			C344.1,436.9,343.8,436.2,344.1,435.7C343.8,435.7,344.1,435.7,344.1,435.7z"/>
		<path class="st0" d="M308.7,427.9c0-0.5-0.5-1-1-1c-0.5,0-1,0.5-1,1s0.5,1,1,1C308.4,428.9,308.7,428.4,308.7,427.9z"/>
		<path class="st0" d="M273.8,432.2c0-0.5-0.5-1-1-1c-0.5,0-1,0.5-1,1s0.5,1,1,1C273.5,433.2,273.8,432.7,273.8,432.2z"/>
		<path class="st0" d="M333.6,428.9c-0.5,0.2-0.5,0.7-0.5,1.2c0.2,0.5,0.7,0.5,1.2,0.5c0.5-0.2,0.5-0.7,0.5-1.2
			C334.6,428.9,334.1,428.7,333.6,428.9z"/>
		<path class="st0" d="M343.1,392.5c-0.2,1.2,0.5,2.5,1.7,2.7c1.2,0.2,2.5-0.5,2.7-1.7s-0.5-2.5-1.7-2.7
			C344.6,390.3,343.3,391.3,343.1,392.5z"/>
	</g>
</g>
</svg>
