<?xml version="1.0" standalone="no"?>
<!DOCTYPE svg PUBLIC "-//W3C//DTD SVG 20010904//EN"
 "http://www.w3.org/TR/2001/REC-SVG-20010904/DTD/svg10.dtd">
<svg version="1.0" xmlns="http://www.w3.org/2000/svg"
 width="293.000000pt" height="293.000000pt" viewBox="0 0 293.000000 293.000000"
 preserveAspectRatio="xMidYMid meet">
<metadata>
Created by potrace 1.11, written by Peter Selinger 2001-2013
</metadata>
<g transform="translate(0.000000,293.000000) scale(0.100000,-0.100000)"
fill="#000000" stroke="none">
<path d="M1380 2173 c-207 -26 -397 -140 -501 -298 -39 -59 -44 -63 -68 -54
-14 6 -51 10 -82 10 -127 1 -236 -84 -273 -211 -15 -51 -19 -56 -44 -54 -42 2
-122 -25 -174 -58 -169 -107 -233 -327 -145 -503 47 -95 121 -159 225 -197 53
-19 80 -21 424 -22 201 -1 364 2 362 6 -3 4 -13 8 -24 8 -56 0 -226 68 -305
123 -28 18 -61 37 -75 40 -20 5 -96 49 -129 74 -3 2 0 8 5 13 6 6 22 1 44 -14
77 -52 178 -68 313 -52 52 6 70 12 78 27 6 11 20 24 32 29 21 8 21 9 2 10 -42
2 -94 48 -109 97 -6 20 -5 21 35 12 45 -11 95 -4 105 13 4 7 2 8 -4 4 -20 -12
-14 29 6 47 10 10 32 17 48 17 l29 0 -1 -68 c-1 -96 -1 -97 -31 -127 l-28 -28
25 7 c14 4 56 19 93 33 l68 26 -31 29 c-37 33 -60 83 -53 117 6 35 10 37 30
14 10 -11 33 -25 51 -31 29 -10 32 -9 32 9 0 28 36 60 62 55 13 -3 26 -5 30
-5 4 -1 2 -14 -3 -30 -7 -21 -7 -36 1 -50 11 -22 8 -57 -8 -88 -18 -32 -56
-61 -117 -88 l-59 -26 23 25 c12 13 19 26 14 29 -4 2 -66 -15 -138 -39 -71
-25 -169 -50 -217 -56 -48 -7 -84 -15 -80 -19 4 -4 42 -19 85 -33 68 -23 94
-27 205 -27 171 -1 285 29 415 108 l57 35 -26 21 c-51 40 -88 77 -78 77 15 0
27 109 14 125 -13 16 -3 25 29 25 40 0 74 -28 68 -56 -3 -16 0 -24 9 -24 8 0
14 4 14 8 0 4 14 9 30 10 34 3 37 -4 14 -36 -17 -25 -44 -29 -44 -7 0 8 -4 15
-10 15 -18 0 -11 -15 21 -48 36 -37 45 -39 73 -15 20 18 20 18 4 -8 -9 -15
-14 -29 -11 -32 8 -9 91 4 188 28 49 13 92 22 94 20 7 -8 -92 -46 -154 -60
-33 -8 -82 -15 -110 -17 -61 -4 -81 -14 -65 -33 9 -11 7 -12 -9 -8 -12 3 -33
-5 -53 -20 -91 -68 -254 -120 -414 -132 -49 -4 -90 -8 -92 -10 -3 -3 17 -8
133 -30 49 -10 281 -13 327 -5 24 5 59 11 78 14 186 30 379 124 493 240 48 49
117 145 117 164 0 4 7 17 15 28 13 17 13 13 0 -26 -48 -138 -163 -253 -336
-334 -67 -32 -122 -50 -274 -89 -43 -11 22 -13 440 -11 532 2 521 0 622 60
149 87 220 272 169 443 -43 144 -174 257 -321 276 -27 3 -50 7 -50 8 -1 1 -9
27 -18 58 -43 140 -191 226 -334 194 -50 -12 -52 -11 -63 14 -23 51 -85 124
-147 176 -92 75 -210 129 -333 151 -41 7 -174 11 -210 7z m785 -646 c4 -78
-52 -167 -150 -243 -18 -13 -17 -13 11 0 18 8 46 27 63 42 28 23 34 25 64 15
17 -7 65 -15 107 -18 l74 -6 -39 -14 c-21 -7 -42 -17 -45 -21 -8 -11 -58 -40
-117 -68 -164 -79 -345 -50 -430 67 -71 98 -86 111 -137 116 -47 6 -48 5 -42
-18 6 -21 5 -22 -6 -8 -7 8 -22 21 -33 27 -15 9 -16 12 -3 10 10 -2 31 19 58
60 58 86 104 116 169 110 46 -5 149 -53 137 -65 -3 -3 -20 -9 -38 -14 -23 -5
-8 -7 47 -4 96 6 179 42 240 105 l40 41 14 -33 c8 -18 15 -54 16 -81z m-1121
-359 c-3 -5 -18 -7 -32 -5 -22 3 -28 9 -30 36 l-3 33 35 -28 c19 -15 32 -32
30 -36z"/>
<path d="M1602 1501 c4 -13 18 -16 19 -4 0 4 -5 9 -11 12 -7 2 -11 -2 -8 -8z"/>
</g>
</svg>
