<?xml version="1.0" encoding="iso-8859-1"?>
<!-- Generator: Adobe Illustrator 22.1.0, SVG Export Plug-In . SVG Version: 6.00 Build 0)  -->
<svg version="1.1" id="Layer_1" xmlns="http://www.w3.org/2000/svg" xmlns:xlink="http://www.w3.org/1999/xlink" x="0px" y="0px"
	 viewBox="0 0 28 28" style="enable-background:new 0 0 28 28;" xml:space="preserve">
<path style="fill:#FFFFFF;" d="M26.685,7.461c-0.913,0.405-1.895,0.679-2.923,0.801c1.051-0.63,1.858-1.629,2.24-2.817
	c-0.985,0.582-2.075,1.006-3.235,1.235c-0.929-0.99-2.253-1.608-3.718-1.608c-2.814,0-5.092,2.282-5.092,5.092
	c0,0.398,0.044,0.788,0.132,1.161c-4.231-0.213-7.985-2.24-10.495-5.321c-0.44,0.753-0.69,1.627-0.69,2.561
	c0,1.767,0.9,3.326,2.264,4.239c-0.835-0.026-1.619-0.256-2.306-0.639c0,0.023,0,0.042,0,0.064c0,2.465,1.756,4.525,4.084,4.992
	c-0.426,0.116-0.877,0.181-1.34,0.181c-0.327,0-0.647-0.032-0.959-0.092c0.65,2.024,2.53,3.496,4.758,3.536
	c-1.743,1.367-3.939,2.178-6.326,2.178c-0.413,0-0.818-0.023-1.214-0.071c2.253,1.445,4.929,2.288,7.804,2.288
	c9.367,0,14.49-7.761,14.49-14.49c0-0.221-0.006-0.44-0.015-0.658C25.14,9.379,26.003,8.482,26.685,7.461L26.685,7.461z"/>
</svg>
