<?xml version="1.0" encoding="utf-8"?>
<!-- Generator: Adobe Illustrator 22.0.1, SVG Export Plug-In . SVG Version: 6.00 Build 0)  -->
<svg version="1.1" id="Layer_1" xmlns="http://www.w3.org/2000/svg" xmlns:xlink="http://www.w3.org/1999/xlink" x="0px" y="0px"
	 viewBox="0 0 24 24" style="enable-background:new 0 0 24 24;" xml:space="preserve">
<style type="text/css">
	.st0{clip-path:url(#SVGID_1_);fill:#757575;}
	.st1{fill:#757575;}
</style>
<g>
	<g>
		<defs>
			<rect id="SVGID_3_" x="1.3" y="0.4" width="21.3" height="23.2"/>
		</defs>
		<clipPath id="SVGID_1_">
			<use xlink:href="#SVGID_3_"  style="overflow:visible;"/>
		</clipPath>
		<path class="st0" d="M19.7,5.2C19.7,5.2,19.7,5.2,19.7,5.2c-0.3-0.2-0.6-0.3-0.8-0.4l-0.5,0.5l-0.5-0.5c0,0,0,0,0,0
			c-0.3,0.1-0.5,0.2-0.7,0.3c-0.1,0-0.1,0-0.2,0.1c-0.3,0.2-0.6,0.2-1,0.1c-1.1-0.4-2.2-2.1-2.5-2.7c-0.1-0.2-0.2-0.3-0.4-0.4
			l-0.2-0.1c-0.2,0-0.3,0-0.5,0.1C12,2.4,11.8,2.9,12,3.3c0,0.1,0.2,0.5,0.5,0.9l0.2,0.3c0.6,0.9,1.6,2,2.8,2.4C15.7,7,16,7,16.2,7
			v4.3c0,0.2,0,0.4,0.1,0.6c0,0,0,0.1,0,0.1l0,7.9c0,0.5,0.4,1,1,1c0.5,0,1-0.4,1-1l0-6.8c0,0,0.1,0,0.1,0c0,0,0,0,0,0V20
			c0,0.5,0.4,1,1,1h0c0.5,0,1-0.4,1-1v-7.7c0.1,0,0.1,0.1,0.2,0.1c0.1,0.1,0.3,0.1,0.4,0.1c0.3,0,0.6-0.2,0.7-0.4
			C23.9,7.8,20.8,5.8,19.7,5.2L19.7,5.2z M18.4,9.6L18.4,9.6l-0.5-0.7l0.5-3.4h0l0.5,3.4L18.4,9.6z M20.5,10.5V8.1
			C20.9,8.7,20.9,9.5,20.5,10.5L20.5,10.5z M20.5,10.5"/>
	</g>
	<path class="st1" d="M20.5,2.6c0,1.2-0.9,2.1-2.1,2.1c-1.2,0-2.1-0.9-2.1-2.1c0-1.2,0.9-2.1,2.1-2.1C19.5,0.5,20.5,1.4,20.5,2.6
		L20.5,2.6z M20.5,2.6"/>
	<path class="st1" d="M13.7,12.3H3.3c-0.7,0-1.2-0.5-1.2-1.2V1.6c0-0.7,0.5-1.2,1.2-1.2h10.4c0.7,0,1.2,0.5,1.2,1.2v9.5
		C14.9,11.8,14.4,12.3,13.7,12.3L13.7,12.3z M3.3,1.2c-0.2,0-0.4,0.2-0.4,0.4v9.5c0,0.2,0.2,0.4,0.4,0.4h10.4c0.2,0,0.4-0.2,0.4-0.4
		V1.6c0-0.2-0.2-0.4-0.4-0.4H3.3z M3.3,1.2"/>
	<path class="st1" d="M6.9,15.2c0,0.9-0.8,1.7-1.7,1.7c-0.9,0-1.7-0.8-1.7-1.7c0-0.9,0.8-1.7,1.7-1.7C6.2,13.5,6.9,14.2,6.9,15.2
		L6.9,15.2z M6.9,15.2"/>
	<path class="st1" d="M3.3,20.7c0-0.5,0-0.8,0.2-1.2v1.2h1.7l-0.4-0.5l0.4-2.7h0l0.4,2.7l-0.4,0.5H7v-1.2c0.2,0.3,0.3,0.7,0.2,1.2
		h1.3c0.2-2-1.5-3-2.1-3.4c0,0-0.1,0-0.1,0c-0.2-0.1-0.4-0.2-0.6-0.3l-0.4,0.4l-0.4-0.4c0,0,0,0,0,0c-0.2,0.1-0.4,0.1-0.6,0.3
		c0,0-0.1,0-0.1,0c-0.6,0.4-2.3,1.4-2.1,3.4H3.3z M3.3,20.7"/>
	<path class="st1" d="M13.4,15.2c0,0.9-0.8,1.7-1.7,1.7c-0.9,0-1.7-0.8-1.7-1.7c0-0.9,0.8-1.7,1.7-1.7
		C12.7,13.5,13.4,14.2,13.4,15.2L13.4,15.2z M13.4,15.2"/>
	<path class="st1" d="M9.8,20.7c-0.1-0.5,0-0.8,0.2-1.2v1.2h1.7l-0.4-0.5l0.4-2.7h0l0.4,2.7l-0.4,0.5h1.7v-1.2
		c0.2,0.3,0.3,0.7,0.2,1.2H15c0.2-2-1.5-3-2.1-3.4c0,0-0.1,0-0.1,0c-0.2-0.1-0.4-0.2-0.6-0.3l-0.4,0.4l-0.4-0.4c0,0,0,0,0,0
		c-0.2,0.1-0.4,0.1-0.6,0.3c0,0-0.1,0-0.1,0c-0.6,0.4-2.3,1.4-2.1,3.4H9.8z M9.8,20.7"/>
	<rect x="1.3" y="21.2" class="st1" width="19.2" height="2.4"/>
	<path class="st1" d="M11.4,6.7L11,6.6c0-0.2,0-0.5,0-0.7l0.3-0.1c0.2-0.1,0.3-0.3,0.2-0.5l-0.2-0.4c-0.1-0.2-0.3-0.3-0.5-0.2
		l-0.3,0.1c-0.2-0.2-0.3-0.4-0.5-0.5l0.1-0.3c0.1-0.2,0-0.4-0.2-0.5L9.4,3.2C9.2,3.2,9,3.3,8.9,3.5L8.8,3.8c-0.2,0-0.5,0-0.7,0
		L7.9,3.5C7.8,3.3,7.6,3.2,7.3,3.3L6.9,3.5C6.7,3.6,6.6,3.8,6.7,4l0.1,0.3C6.7,4.5,6.5,4.7,6.4,4.9L6.1,4.8C5.9,4.7,5.6,4.8,5.5,5
		L5.4,5.4c0,0.1,0,0.2,0,0.3c0,0.1,0.1,0.2,0.2,0.2L6,6.1c0,0.2,0,0.5,0,0.7L5.7,7C5.5,7.1,5.4,7.3,5.5,7.5l0.2,0.4
		C5.7,8.1,6,8.2,6.2,8.1L6.5,8c0.2,0.2,0.3,0.4,0.5,0.5L6.9,8.8c0,0.1,0,0.2,0,0.3c0,0.1,0.1,0.2,0.2,0.2l0.4,0.2c0.1,0,0.2,0,0.3,0
		c0.1,0,0.2-0.1,0.2-0.2l0.1-0.3c0.2,0,0.5,0,0.7,0l0.1,0.3c0.1,0.2,0.3,0.3,0.5,0.2l0.4-0.2c0.2-0.1,0.3-0.3,0.2-0.5l-0.1-0.3
		c0.2-0.2,0.4-0.3,0.5-0.5l0.3,0.1c0.1,0,0.2,0,0.3,0c0.1,0,0.2-0.1,0.2-0.2l0.2-0.4C11.7,7,11.6,6.8,11.4,6.7L11.4,6.7z M9.2,7.8
		C9,7.9,8.7,7.9,8.5,7.9C7.9,7.9,7.3,7.6,7.1,7C6.7,6.2,7,5.3,7.8,4.9C8,4.8,8.3,4.8,8.5,4.8c0.6,0,1.2,0.4,1.4,0.9
		C10.3,6.5,10,7.4,9.2,7.8L9.2,7.8z M9.2,7.8"/>
</g>
</svg>
