<?xml version="1.0" encoding="iso-8859-1"?>
<!-- Generator: Adobe Illustrator 22.0.1, SVG Export Plug-In . SVG Version: 6.00 Build 0)  -->
<svg version="1.1" id="Layer_1" xmlns="http://www.w3.org/2000/svg" xmlns:xlink="http://www.w3.org/1999/xlink" x="0px" y="0px"
	 viewBox="0 0 24 24" style="enable-background:new 0 0 24 24;" xml:space="preserve">
<path id="XMLID_1492_" style="fill:#666766;" d="M20.265,11.343c0-0.026,0.001-0.051,0.001-0.077c0-3.467-2.811-6.278-6.278-6.278
	c-2.182,0-4.104,1.114-5.23,2.804C8.424,7.699,8.073,7.648,7.709,7.648c-2.159,0-3.909,1.75-3.909,3.909
	c0,0.056,0.002,0.111,0.004,0.166c-1.693,0.497-2.93,2.061-2.93,3.914c0,0.042,0.001,0.083,0.002,0.125
	c0.08,2.656,3.335,3.902,5.214,2.023l3.473-3.473l-1.778-1.778l6.831-0.717L13.9,18.649l-1.778-1.778l-2.846,2.846h2.846h7.279
	c2.341,0,4.303-1.916,4.286-4.257C23.673,13.415,22.205,11.717,20.265,11.343z"/>
<g>
</g>
<g>
</g>
<g>
</g>
<g>
</g>
<g>
</g>
<g>
</g>
</svg>
