<?xml version="1.0" encoding="utf-8"?>
<!-- Generator: Adobe Illustrator 22.0.1, SVG Export Plug-In . SVG Version: 6.00 Build 0)  -->
<svg version="1.1" id="Layer_1" xmlns="http://www.w3.org/2000/svg" xmlns:xlink="http://www.w3.org/1999/xlink" x="0px" y="0px"
	 viewBox="0 0 24 24" style="enable-background:new 0 0 24 24;" xml:space="preserve">
<style type="text/css">
	.st0{fill:#757576;}
</style>
<path class="st0" d="M20.9,7.3c-0.8-1.5-2-2.7-3.5-3.6c-1.6-1-3.5-1.6-5.4-1.6S8.2,2.6,6.6,3.6C5.1,4.5,3.9,5.8,3.1,7.3h-3v10.1h3
	c0.8,1.5,2,2.7,3.5,3.6c1.6,1,3.5,1.6,5.4,1.6s3.8-0.5,5.4-1.6c1.4-0.9,2.6-2.2,3.5-3.6h3V7.3H20.9z M12.8,3.7c0.1,0,0.1,0,0.2,0
	c0.7,1.2,1.3,2.4,1.8,3.6h-1.9V3.7z M16.7,11.9v0.7h-1.2v0.5h1.5V14h-2.4v-3.4h2.4v0.8h-1.4v0.5L16.7,11.9L16.7,11.9z M11.1,3.7
	c0.1,0,0.1,0,0.2,0v3.6H9.3C9.7,6.1,10.3,4.9,11.1,3.7z M10.8,10.6V14H9.9v-3.4H10.8z M9.5,13.2V14H7.1v-3.4H8v2.6H9.5z M7.4,5
	c0.5-0.3,1-0.6,1.6-0.8c-0.6,1-1,2.1-1.3,3.1H4.9C5.6,6.4,6.4,5.6,7.4,5z M7.4,19.7c-1-0.6-1.8-1.4-2.5-2.3h2.7
	c0.3,1,0.8,2.1,1.3,3.1C8.4,20.3,7.9,20,7.4,19.7z M11.2,21c-0.1,0-0.1,0-0.2,0c-0.7-1.2-1.3-2.4-1.8-3.6h1.9V21z M11,10.6h1
	l0.7,2.2l0.7-2.2h1L13,14h-0.8L11,10.6z M12.9,21c-0.1,0-0.1,0-0.2,0v-3.6h1.9C14.3,18.6,13.7,19.8,12.9,21z M16.6,19.7
	c-0.5,0.3-1,0.6-1.6,0.8c0.6-1,1-2.1,1.3-3.1h2.7C18.4,18.3,17.6,19.1,16.6,19.7z M16.4,7.3c-0.3-1-0.8-2.1-1.3-3.1
	c0.6,0.2,1.1,0.5,1.6,0.8c1,0.6,1.8,1.4,2.5,2.3H16.4z"/>
</svg>
