<?xml version="1.0" encoding="utf-8"?>
<!-- Generator: Adobe Illustrator 22.1.0, SVG Export Plug-In . SVG Version: 6.00 Build 0)  -->
<svg version="1.1" id="Layer_1" xmlns="http://www.w3.org/2000/svg" xmlns:xlink="http://www.w3.org/1999/xlink" x="0px" y="0px"
	 viewBox="0 0 24 24" style="enable-background:new 0 0 24 24;" xml:space="preserve">
<style type="text/css">
	.st0{fill:#666766;}
	.st1{clip-path:url(#SVGID_2_);fill:#FFFFFF;}
	.st2{fill:#FFFFFF;}
</style>
<circle class="st0" cx="12" cy="12" r="11.5"/>
<g>
	<defs>
		<rect id="SVGID_1_" x="4" y="4.5" width="14.1" height="15"/>
	</defs>
	<clipPath id="SVGID_2_">
		<use xlink:href="#SVGID_1_"  style="overflow:visible;"/>
	</clipPath>
	<path class="st1" d="M4.1,11.5c-0.3,0.3-0.3,0.7,0,1l3.2,3.2c0.2,0.1,0.3,0.2,0.5,0.2s0.4-0.1,0.5-0.2c0.3-0.3,0.3-0.7,0-1l-2-2
		h8.4c0.4,0,0.7-0.3,0.7-0.7s-0.3-0.7-0.7-0.7H6.4l2-2c0.3-0.3,0.3-0.7,0-1C8.1,8,7.7,8,7.4,8.3L4.1,11.5z"/>
</g>
<path class="st2" d="M10.7,4.5c-0.4,0-0.7,0.3-0.7,0.7c0,0.4,0.3,0.7,0.7,0.7h5.2v12.2h-5.2c-0.4,0-0.7,0.3-0.7,0.7
	c0,0.4,0.3,0.7,0.7,0.7h5.9c0.3,0,0.6-0.3,0.6-0.7V5.2c0-0.4-0.3-0.7-0.7-0.7H10.7z"/>
</svg>
