<?xml version="1.0" encoding="iso-8859-1"?>
<!-- Generator: Adobe Illustrator 22.1.0, SVG Export Plug-In . SVG Version: 6.00 Build 0)  -->
<svg version="1.1" id="Layer_1" xmlns="http://www.w3.org/2000/svg" xmlns:xlink="http://www.w3.org/1999/xlink" x="0px" y="0px"
	 viewBox="0 0 725.669 725.669" style="enable-background:new 0 0 725.669 725.669;" xml:space="preserve">
<g>
	<rect x="229.992" y="146.494" style="fill:#666766;" width="264.832" height="433.366"/>
	<path style="fill:#666766;" d="M506.863,591.898v6.998l192.641,87.826V39.616L506.863,141.377V591.898z M591.168,137.735
		l72.175-31.332v160.708l-72.175,13.936V137.735z M591.168,295.389l72.175-12.16v160.768l-72.175-5.282V295.389z M591.168,453.057
		l72.175,6.998v160.768l-72.175-24.455V453.057z M530.972,169.233l48.142-23.867v138.917l-48.142,10.76V169.233z M530.972,307.623
		l48.142-9.466v138.902l-48.142-3.641V307.623z M530.972,446.059l48.142,4.876v138.902l-48.142-17.984V446.059z M530.972,446.059"/>
	<path style="fill:#666766;" d="M25.296,686.722l192.642-87.826v-457.52L25.296,39.616V686.722z M145.688,145.365l48.141,23.867
		v125.81l-48.141-10.76V145.365z M145.688,298.157l48.141,9.466v125.795l-48.141,3.641V298.157z M145.688,450.935l48.141-4.937
		v125.855l-48.141,17.984V450.935z M61.384,106.403l72.25,31.332v143.312l-72.25-13.936V106.403z M61.384,283.229l72.25,12.16
		v143.326l-72.25,5.222V283.229z M61.384,460.054l72.25-6.998v143.311l-72.25,24.455V460.054z M61.384,460.054"/>
</g>
<path style="fill:none;stroke:#FFFFFF;stroke-width:18;stroke-linecap:round;stroke-miterlimit:10;" d="M360.011,262.722
	l20.626,41.794c1.829,3.706,5.365,6.275,9.455,6.869l46.122,6.702c1.416,0.206,1.981,1.946,0.957,2.945l-33.374,32.532
	c-2.96,2.885-4.31,7.042-3.611,11.115l7.878,45.936c0.242,1.41-1.238,2.486-2.505,1.82l-41.253-21.688
	c-3.658-1.923-8.029-1.923-11.687,0l-41.253,21.688c-1.266,0.666-2.747-0.41-2.505-1.82l7.878-45.936
	c0.699-4.074-0.652-8.23-3.611-11.115l-33.374-32.532c-1.025-0.999-0.459-2.739,0.957-2.945l46.122-6.702
	c4.09-0.594,7.626-3.163,9.455-6.869l20.626-41.794C357.549,261.439,359.378,261.439,360.011,262.722z"/>
</svg>
