<?xml version="1.0" encoding="iso-8859-1"?>
<!-- Generator: Adobe Illustrator 22.0.1, SVG Export Plug-In . SVG Version: 6.00 Build 0)  -->
<svg version="1.1" id="Layer_1" xmlns="http://www.w3.org/2000/svg" xmlns:xlink="http://www.w3.org/1999/xlink" x="0px" y="0px"
	 viewBox="0 0 28 28" style="enable-background:new 0 0 28 28;" xml:space="preserve">
<g>
	<path style="fill:#A9A9A9;" d="M7.09,14.912c0.115,0,0.228-0.043,0.315-0.131l1.907-1.907v10.034H7.979
		c-0.245,0-0.445,0.2-0.445,0.445c0,0.245,0.2,0.445,0.445,0.445h3.553c0.248,0,0.445-0.2,0.445-0.445
		c0-0.245-0.197-0.445-0.445-0.445h-1.332V11.801c0-0.056-0.011-0.115-0.034-0.169c-0.044-0.109-0.131-0.196-0.241-0.241
		c-0.108-0.046-0.23-0.046-0.338,0c-0.054,0.024-0.104,0.057-0.146,0.098l-2.664,2.664c-0.174,0.173-0.174,0.455,0,0.629
		C6.864,14.868,6.977,14.912,7.09,14.912L7.09,14.912z M7.09,14.912"/>
	<path style="fill:#A9A9A9;" d="M14.644,20.242c0,1.962,1.595,3.556,3.553,3.556c1.962,0,3.556-1.595,3.556-3.556
		c0-1.362-0.775-2.549-1.905-3.143c0.876-0.551,1.46-1.523,1.46-2.631c0-1.714-1.395-3.111-3.111-3.111
		c-1.714,0-3.108,1.397-3.108,3.111c0,1.109,0.584,2.08,1.458,2.631C15.416,17.693,14.644,18.879,14.644,20.242L14.644,20.242z
		 M15.976,14.467c0-1.226,0.998-2.222,2.222-2.222c1.226,0,2.222,0.996,2.222,2.222c0,1.226-0.996,2.222-2.222,2.222
		C16.974,16.688,15.976,15.693,15.976,14.467L15.976,14.467z M18.197,17.578c1.471,0,2.666,1.195,2.666,2.664
		c0,1.471-1.195,2.666-2.666,2.666c-1.468,0-2.664-1.195-2.664-2.666C15.534,18.773,16.729,17.578,18.197,17.578L18.197,17.578z
		 M18.197,17.578"/>
	<path style="fill:#A9A9A9;" d="M12.867,1.138c-0.245,0-0.445,0.199-0.445,0.445c0,0.245,0.199,0.445,0.445,0.445
		c0.577,0,1.067,0.371,1.252,0.887h0.924C14.837,1.901,13.939,1.138,12.867,1.138L12.867,1.138z M12.867,1.138"/>
	<path style="fill:#A9A9A9;" d="M15.534,1.138c-0.248,0-0.445,0.199-0.445,0.445c0,0.245,0.197,0.445,0.445,0.445
		c0.577,0,1.067,0.371,1.25,0.887h0.926C17.503,1.901,16.605,1.138,15.534,1.138L15.534,1.138z M15.534,1.138"/>
	<path style="fill:#A9A9A9;" d="M18.197,1.138c-0.245,0-0.442,0.199-0.442,0.445c0,0.245,0.197,0.445,0.442,0.445
		c0.579,0,1.067,0.371,1.252,0.887h0.926C20.167,1.901,19.271,1.138,18.197,1.138L18.197,1.138z M18.197,1.138"/>
	<path style="fill:#A9A9A9;" d="M20.375,2.914c0.028,0.143,0.043,0.293,0.043,0.445c0,1.226-0.996,2.222-2.222,2.222
		c-0.245,0-0.442-0.199-0.442-0.445c0-0.245,0.197-0.445,0.442-0.445c0.736,0,1.335-0.596,1.335-1.332
		c0-0.156-0.033-0.304-0.083-0.445H17.71c0.028,0.143,0.046,0.293,0.046,0.445c0,1.226-0.998,2.222-2.222,2.222
		c-0.248,0-0.445-0.199-0.445-0.445c0-0.245,0.197-0.445,0.445-0.445c0.733,0,1.332-0.596,1.332-1.332
		c0-0.156-0.033-0.304-0.082-0.445h-1.74c0.03,0.143,0.046,0.293,0.046,0.445c0,1.226-0.998,2.222-2.222,2.222
		c-0.245,0-0.445-0.199-0.445-0.445c0-0.245,0.199-0.445,0.445-0.445c0.735,0,1.332-0.596,1.332-1.332
		c0-0.156-0.032-0.304-0.08-0.445h-1.742c0.031,0.143,0.046,0.293,0.046,0.445c0,1.226-0.996,2.222-2.222,2.222
		c-0.245,0-0.445-0.199-0.445-0.445c0-0.245,0.2-0.445,0.445-0.445c0.735,0,1.332-0.596,1.332-1.332c0-0.156-0.03-0.304-0.08-0.445
		H8.949c0.184-0.516,0.673-0.887,1.252-0.887s1.067,0.371,1.252,0.887h0.924c-0.206-1.013-1.102-1.777-2.176-1.777
		c-1.074,0-1.97,0.764-2.176,1.777h-6.71v23.55h25.769V2.914H20.375z M26.196,25.575H2.204V9.134h23.992V25.575z M26.196,25.575"/>
</g>
</svg>
