<?xml version="1.0" encoding="iso-8859-1"?>
<!-- Generator: Adobe Illustrator 22.0.1, SVG Export Plug-In . SVG Version: 6.00 Build 0)  -->
<svg version="1.1" id="Layer_1" xmlns="http://www.w3.org/2000/svg" xmlns:xlink="http://www.w3.org/1999/xlink" x="0px" y="0px"
	 viewBox="0 0 28 14" style="enable-background:new 0 0 28 14;" xml:space="preserve">
<g>
	<path style="fill:#A9A9A9;" d="M14.56,0.287c-6.11,0-12.028,5.831-12.264,6.089C2.124,6.548,2.038,6.763,2.038,7
		c0,0.236,0.086,0.452,0.258,0.624c0.258,0.257,6.154,6.089,12.264,6.089c6.111,0,12.028-5.832,12.265-6.089
		C26.997,7.452,27.083,7.236,27.083,7c0-0.237-0.086-0.452-0.258-0.624C26.588,6.118,20.692,0.287,14.56,0.287L14.56,0.287z
		 M14.56,11.927c-4.281,0-8.693-3.486-10.35-4.949c1.657-1.463,6.069-4.949,10.35-4.949c4.282,0,8.693,3.486,10.35,4.949
		C23.253,8.441,18.842,11.927,14.56,11.927L14.56,11.927z M14.56,11.927"/>
	<path style="fill:#A9A9A9;" d="M11.398,6.978c0,1.743,1.419,3.184,3.184,3.184c1.764,0,3.184-1.42,3.184-3.184
		c0-1.764-1.42-3.184-3.184-3.184C12.817,3.793,11.398,5.235,11.398,6.978L11.398,6.978z M15.98,6.978c0,0.775-0.624,1.42-1.42,1.42
		c-0.774,0-1.42-0.624-1.42-1.42c0-0.795,0.624-1.419,1.42-1.419C15.335,5.58,15.98,6.204,15.98,6.978L15.98,6.978z M15.98,6.978"/>
</g>
</svg>
