<?xml version="1.0" encoding="iso-8859-1"?>
<!-- Generator: Adobe Illustrator 22.1.0, SVG Export Plug-In . SVG Version: 6.00 Build 0)  -->
<svg version="1.1" id="Layer_1" xmlns="http://www.w3.org/2000/svg" xmlns:xlink="http://www.w3.org/1999/xlink" x="0px" y="0px"
	 viewBox="0 0 236.506 233.01" style="enable-background:new 0 0 236.506 233.01;" xml:space="preserve">
<path style="fill:#FFFFFF;" d="M41.539,204.07l85.942,13.156c1.648,0.289,3.345-0.011,4.794-0.846l80.161-46.285
	c5.055-2.926,6.789-9.39,3.878-14.453c-2.936-5.041-9.388-6.772-14.453-3.878l-43.641,25.204c-1.879,3.269-5.36,5.285-9.13,5.288
	c-0.928,0.004-1.853-0.114-2.75-0.353l-44.522-6.521l44.522,6.521c4.62,1.223,9.486-0.799,11.88-4.935
	c0.466-0.794,0.822-1.648,1.058-2.538c1.515-5.645-1.83-11.451-7.473-12.972l-33.347-5.922c-5.061-1.151-9.938-3.002-14.488-5.499
	c-8.278-4.31-17.494-6.503-26.826-6.38c-9.172-0.122-18.235,1.995-26.403,6.169c-1.461,0.731-2.984,1.33-4.551,1.791
	c-5.909,1.783-12.053,2.665-18.225,2.616H13.691v49.351h21.457C37.288,203.584,39.424,203.746,41.539,204.07L41.539,204.07z"/>
<path style="fill:#A0CD4E;" d="M211.096,126.031V34.379H70.092v91.653L211.096,126.031L211.096,126.031z M126.494,48.479h28.201
	c3.894,0,7.05,3.156,7.05,7.05s-3.156,7.05-7.05,7.05h-28.201c-3.894,0-7.05-3.156-7.05-7.05S122.6,48.479,126.494,48.479z"/>
<path style="fill:#99CC67;" d="M218.147,34.379v-8.374H63.042v8.374h7.05h141.004H218.147z"/>
<g>
	<path style="fill:#666766;" d="M219.363,153.88c-3.931-6.698-12.512-8.997-19.265-5.161l-37.028,21.376
		c-0.72-5.843-4.946-10.648-10.649-12.109l-33.178-5.869c-4.746-1.083-9.318-2.82-13.586-5.161
		c-8.801-4.579-18.594-6.922-28.515-6.825c-9.75-0.138-19.385,2.122-28.056,6.581c-1.268,0.625-2.588,1.139-3.945,1.537
		c-5.569,1.682-11.36,2.514-17.178,2.468H13.691c-1.947,0-3.525,1.578-3.525,3.525v49.341c0,1.947,1.578,3.525,3.525,3.525h21.457
		c1.964,0,3.925,0.15,5.866,0.448l85.861,13.142c2.461,0.433,4.995-0.009,7.163-1.251l80.157-46.285
		c4.388-2.497,7.084-7.17,7.05-12.218C221.247,158.465,220.598,156.029,219.363,153.88L219.363,153.88z M210.673,167.042
		l-80.178,46.295c-0.75,0.42-1.623,0.564-2.468,0.405l-85.942-13.156c-2.296-0.351-4.615-0.528-6.937-0.529H17.216v-42.301h10.748
		c6.528,0.049,13.026-0.886,19.275-2.774c1.781-0.524,3.51-1.211,5.164-2.052c7.662-3.885,16.15-5.857,24.739-5.749
		c8.736-0.107,17.365,1.934,25.127,5.943c4.889,2.679,10.131,4.659,15.57,5.88l33.048,5.859c3.763,1.018,5.992,4.889,4.984,8.654
		c-0.157,0.582-0.394,1.14-0.705,1.657v0.032h-0.018c-1.645,2.687-4.833,4.009-7.896,3.275c-0.134-0.035-44.931-6.603-44.931-6.603
		c-1.917-0.339-3.746,0.941-4.084,2.858c-0.339,1.917,0.941,3.746,2.858,4.084c0.068,0.012,0.136,0.022,0.204,0.03
		c0,0,46.563,6.906,47.733,6.909h0.049c4.647-0.003,8.992-2.305,11.605-6.148l42.922-24.792c3.368-1.955,7.682-0.809,9.637,2.558
		c0.626,1.079,0.955,2.304,0.953,3.551C214.215,163.455,212.867,165.792,210.673,167.042L210.673,167.042z"/>
	<path style="fill:#666766;" d="M218.147,9.703H63.042c-1.947,0-3.525,1.578-3.525,3.525v21.151c0,1.947,1.578,3.525,3.525,3.525
		h3.525v88.128c0,1.947,1.578,3.525,3.525,3.525h141.004c1.947,0,3.525-1.578,3.525-3.525V37.904h3.525
		c1.947,0,3.525-1.578,3.525-3.525V13.228C221.672,11.281,220.093,9.703,218.147,9.703z M207.571,122.506H73.617V37.904h133.954
		L207.571,122.506L207.571,122.506z M214.621,30.854H66.567v-14.1h148.054V30.854z"/>
	<path style="fill:#FFFFFF;" d="M80.668,111.931h7.05v7.05h-7.05V111.931z"/>
	<path style="fill:#FFFFFF;" d="M94.768,111.931h7.05v7.05h-7.05V111.931z"/>
	<path style="fill:#FFFFFF;" d="M108.868,111.931h7.05v7.05h-7.05V111.931z"/>
	<path style="fill:#FFFFFF;" d="M122.969,111.931h7.05v7.05h-7.05V111.931z"/>
	<path style="fill:#FFFFFF;" d="M137.069,111.931h7.05v7.05h-7.05V111.931z"/>
	<path style="fill:#FFFFFF;" d="M151.17,111.931h7.05v7.05h-7.05V111.931z"/>
	<path style="fill:#FFFFFF;" d="M165.27,111.931h7.05v7.05h-7.05V111.931z"/>
	<path style="fill:#FFFFFF;" d="M179.37,111.931h7.05v7.05h-7.05V111.931z"/>
	<path style="fill:#FFFFFF;" d="M193.471,111.931h7.05v7.05h-7.05V111.931z"/>
	<path style="fill:#666766;" d="M154.695,66.105h-28.201c-5.841,0-10.575-4.735-10.575-10.575c0-5.841,4.735-10.575,10.575-10.575
		h28.201c5.841,0,10.575,4.735,10.575,10.575S160.535,66.105,154.695,66.105z M126.494,52.004c-1.947,0-3.525,1.578-3.525,3.525
		s1.578,3.525,3.525,3.525h28.201c1.947,0,3.525-1.578,3.525-3.525s-1.578-3.525-3.525-3.525H126.494z"/>
</g>
</svg>
