<?xml version="1.0" encoding="iso-8859-1"?>
<!-- Generator: Adobe Illustrator 22.1.0, SVG Export Plug-In . SVG Version: 6.00 Build 0)  -->
<svg version="1.1" id="Layer_1" xmlns="http://www.w3.org/2000/svg" xmlns:xlink="http://www.w3.org/1999/xlink" x="0px" y="0px"
	 viewBox="0 0 231.506 256.01" style="enable-background:new 0 0 231.506 256.01;" xml:space="preserve">
<path style="fill:#A0CD4E;" d="M75.864,143.163l55.773-103.128c2.631-4.999,8.945-6.84,13.943-4.209l73.137,39.462
	c4.999,2.631,6.84,8.945,4.209,13.943l-29.202,53.932H75.864z"/>
<g>
	<path style="fill:#666766;" d="M211.351,51.347l-39.462-21.31l0,0l-26.308-14.206l0,0l-7.366-3.946
		c-7.103-3.683-16.311-1.052-20.257,6.051L74.813,97.65h-52.09c-6.577,0-11.839,5.262-11.839,11.839v21.047v108.127
		c0,6.577,5.262,11.839,11.839,11.839h166.531c6.577,0,11.839-5.262,11.839-11.839v-30.254h4.999c2.631,0,4.736-2.105,4.736-4.735
		V169.21c0-2.631-2.105-4.735-4.736-4.735h-4.999v-33.938c0-5.525-3.946-10.26-9.208-11.576l25.519-47.355
		C221.349,64.502,218.718,55.294,211.351,51.347z M126.376,22.408c1.315-2.631,4.999-3.683,7.629-2.368l7.366,3.946l-51.301,94.71
		H74.285L126.376,22.408z M159.261,33.721l-45.776,84.976h-12.891l48.933-90.237L159.261,33.721z M22.722,106.858h47.355
		l-6.314,11.576H22.722c-0.789,0-1.842,0-2.631,0.263v-9.471C20.091,108.173,21.143,106.858,22.722,106.858z M201.354,173.681
		v25.256h-0.263H173.73c-2.631,0-4.735-2.105-4.735-4.735v-16.048c0-2.631,2.105-4.735,4.735-4.735h27.361h0.263V173.681z
		 M173.731,164.473c-7.629,0-13.943,6.314-13.943,13.943v16.048c0,7.629,6.314,13.943,13.943,13.943h18.153v30.254
		c0,1.315-1.052,2.631-2.631,2.631H22.722c-1.315,0-2.631-1.052-2.631-2.631V130.535c0-1.315,1.052-2.631,2.631-2.631h43.672h18.679
		h33.938h65.244h4.999c1.315,0,2.631,1.052,2.631,2.631v33.938H173.731z M209.247,67.132l-27.887,51.564h-57.352l43.409-80.503
		l39.462,21.31C209.773,61.082,210.825,64.502,209.247,67.132z"/>
	<path style="fill:#666766;" d="M191.357,62.66l-2.368-1.315c-5.788-3.157-13.68-0.789-16.837,4.999l-2.894,5.525
		c-1.578,2.894-1.842,6.314-1.052,9.471c1.052,3.157,3.157,5.788,6.051,7.366l2.368,1.315c1.842,1.052,3.946,1.578,5.788,1.578
		c4.472,0,8.682-2.368,11.049-6.577l2.894-5.525c1.578-2.894,1.842-6.314,1.052-9.471C196.356,66.869,194.251,64.239,191.357,62.66z
		 M188.2,75.025l-2.894,5.525c-0.789,1.578-2.631,2.105-4.209,1.315l-2.368-1.315c-0.789-0.263-1.315-1.052-1.578-1.842
		s-0.263-1.578,0.263-2.368l2.894-5.525c0.526-1.052,1.578-1.578,2.631-1.578c0.526,0,1.052,0,1.578,0.263l2.368,1.315
		c0.789,0.263,1.315,1.052,1.578,1.842C188.726,73.446,188.726,74.236,188.2,75.025z"/>
</g>
</svg>
