<?xml version="1.0" encoding="utf-8"?>
<!-- Generator: Adobe Illustrator 22.1.0, SVG Export Plug-In . SVG Version: 6.00 Build 0)  -->
<svg version="1.1" id="Layer_1" xmlns="http://www.w3.org/2000/svg" xmlns:xlink="http://www.w3.org/1999/xlink" x="0px" y="0px"
	 viewBox="0 0 20 20" style="enable-background:new 0 0 20 20;" xml:space="preserve">
<style type="text/css">
	.st0{fill:#A0CE4E;}
</style>
<g>
	<path class="st0" d="M17.2,3.8l-3.1-1.7l0,0l-2-1.1l0,0l-0.6-0.3C11,0.5,10.3,0.7,10,1.2L6.6,7.4H2.5C2,7.4,1.6,7.9,1.6,8.4V10v8.4
		c0,0.5,0.4,0.9,0.9,0.9h13c0.5,0,0.9-0.4,0.9-0.9v-2.4h0.4c0.2,0,0.4-0.2,0.4-0.4V13c0-0.2-0.2-0.4-0.4-0.4h-0.4V10
		c0-0.4-0.3-0.8-0.7-0.9l2-3.7C18,4.9,17.8,4.1,17.2,3.8z M10.6,1.6c0.1-0.2,0.4-0.3,0.6-0.2l0.6,0.3l-4,7.4H6.6L10.6,1.6z
		 M13.2,2.5L9.6,9.1h-1l3.8-7L13.2,2.5z M2.5,8.2h3.7L5.7,9.1H2.5c-0.1,0-0.1,0-0.2,0V8.3C2.3,8.3,2.4,8.2,2.5,8.2z M16.5,13.4v2h0
		h-2.1c-0.2,0-0.4-0.2-0.4-0.4v-1.2c0-0.2,0.2-0.4,0.4-0.4L16.5,13.4L16.5,13.4L16.5,13.4z M14.3,12.6c-0.6,0-1.1,0.5-1.1,1.1V15
		c0,0.6,0.5,1.1,1.1,1.1h1.4v2.4c0,0.1-0.1,0.2-0.2,0.2h-13c-0.1,0-0.2-0.1-0.2-0.2V10c0-0.1,0.1-0.2,0.2-0.2h3.4h1.5H10h5.1h0.4
		c0.1,0,0.2,0.1,0.2,0.2v2.6L14.3,12.6L14.3,12.6z M17.1,5.1l-2.2,4h-4.5l3.4-6.3l3.1,1.7C17.1,4.6,17.2,4.9,17.1,5.1z"/>
	<path class="st0" d="M15.7,4.7l-0.2-0.1C15,4.4,14.4,4.6,14.2,5L14,5.4c-0.1,0.2-0.1,0.5-0.1,0.7c0.1,0.2,0.2,0.5,0.5,0.6l0.2,0.1
		C14.7,6.9,14.8,7,15,7c0.3,0,0.7-0.2,0.9-0.5L16.1,6c0.1-0.2,0.1-0.5,0.1-0.7C16.1,5,15.9,4.8,15.7,4.7z M15.4,5.7l-0.2,0.4
		c-0.1,0.1-0.2,0.2-0.3,0.1l-0.2-0.1c-0.1,0-0.1-0.1-0.1-0.1c0-0.1,0-0.1,0-0.2l0.2-0.4c0-0.1,0.1-0.1,0.2-0.1c0,0,0.1,0,0.1,0
		l0.2,0.1c0.1,0,0.1,0.1,0.1,0.1C15.5,5.6,15.5,5.6,15.4,5.7z"/>
</g>
</svg>
