<?xml version="1.0" encoding="iso-8859-1"?>
<!-- Generator: Adobe Illustrator 22.1.0, SVG Export Plug-In . SVG Version: 6.00 Build 0)  -->
<svg version="1.1" id="Layer_1" xmlns="http://www.w3.org/2000/svg" xmlns:xlink="http://www.w3.org/1999/xlink" x="0px" y="0px"
	 viewBox="0 0 15 15" style="enable-background:new 0 0 15 15;" xml:space="preserve">
<g>
	<g>
		<defs>
			<rect id="SVGID_1_" x="0.396" y="2.136" width="14.311" height="10.972"/>
		</defs>
		<clipPath id="SVGID_2_">
			<use xlink:href="#SVGID_1_"  style="overflow:visible;"/>
		</clipPath>
		<path style="clip-path:url(#SVGID_2_);fill:#FFFFFF;" d="M11.369,7.011H6.249v1.707h3.124c-0.466,1.484-1.852,2.56-3.49,2.56
			c-2.02,0-3.658-1.638-3.658-3.658c0-2.02,1.638-3.658,3.658-3.658c1.017,0,1.937,0.415,2.6,1.086l1.239-1.347
			c-0.99-0.97-2.344-1.568-3.839-1.568c-3.03,0-5.486,2.456-5.486,5.486c0,3.03,2.456,5.486,5.486,5.486
			c2.654,0,4.978-1.885,5.486-4.389V7.011z M11.369,7.011"/>
	</g>
	<path style="fill:#FFFFFF;" d="M14.694,7.008h-1.048V5.96h-0.898v1.047h-1.047v0.898h1.047v1.048h0.898V7.905h1.048V7.008z
		 M14.694,7.008"/>
</g>
</svg>
