<?xml version="1.0" encoding="iso-8859-1"?>
<!-- Generator: Adobe Illustrator 22.0.1, SVG Export Plug-In . SVG Version: 6.00 Build 0)  -->
<svg version="1.1" id="Layer_1" xmlns="http://www.w3.org/2000/svg" xmlns:xlink="http://www.w3.org/1999/xlink" x="0px" y="0px"
	 viewBox="0 0 24 24" style="enable-background:new 0 0 24 24;" xml:space="preserve">
<path style="fill:#A8A9AC;" d="M23.021,10.331c0-1.189-0.967-2.156-2.156-2.156h-5.2l0.757-2.065
	c0.002-0.007,0.005-0.013,0.007-0.02c0.365-1.094,0.273-2.243-0.266-3.321c-0.406-0.813-1.223-1.318-2.132-1.318h-0.253
	c-0.612,0-1.129,0.478-1.178,1.088c-0.086,1.067-0.543,2.077-1.288,2.846L7.147,9.612H6.729V8.894c0-0.397-0.322-0.719-0.719-0.719
	H1.698c-0.397,0-0.719,0.322-0.719,0.719v12.937c0,0.397,0.322,0.719,0.719,0.719h4.312c0.397,0,0.719-0.322,0.719-0.719v-0.719
	h11.979c1.189,0,2.156-0.967,2.156-2.156c0-0.384-0.101-0.745-0.278-1.058c0.599-0.384,0.996-1.055,0.996-1.817
	c0-0.384-0.101-0.745-0.278-1.058c0.599-0.384,0.996-1.055,0.996-1.817c0-0.384-0.101-0.745-0.278-1.058
	C22.623,11.765,23.021,11.093,23.021,10.331z M5.292,21.112H2.417v-11.5h2.875v0.719v10.062V21.112z M20.864,11.05h-0.719h-1.437
	c-0.397,0-0.719,0.322-0.719,0.719s0.322,0.719,0.719,0.719h1.437c0.396,0,0.719,0.322,0.719,0.719c0,0.396-0.322,0.719-0.719,0.719
	h-0.719h-1.437c-0.397,0-0.719,0.322-0.719,0.719c0,0.397,0.322,0.719,0.719,0.719h1.437c0.396,0,0.719,0.322,0.719,0.719
	c0,0.396-0.322,0.719-0.719,0.719h-0.719c-0.038,0-0.074,0.004-0.11,0.009h-1.375c-0.397,0-0.719,0.322-0.719,0.719
	s0.322,0.719,0.719,0.719h1.437c0.032,0,0.064-0.003,0.095-0.007c0.374,0.024,0.672,0.336,0.672,0.716
	c0,0.396-0.322,0.719-0.719,0.719H6.729V11.05h0.719c0.193,0,0.377-0.077,0.512-0.214l4.378-4.444
	c0.001-0.001,0.002-0.002,0.004-0.004c0.924-0.951,1.511-2.186,1.668-3.499h0.021c0.361,0,0.685,0.201,0.846,0.523
	c0.368,0.737,0.432,1.482,0.191,2.214L13.96,8.646c-0.081,0.22-0.049,0.466,0.086,0.659c0.134,0.192,0.354,0.307,0.589,0.307h6.229
	c0.396,0,0.719,0.322,0.719,0.719S21.261,11.05,20.864,11.05z"/>
</svg>
