<?xml version="1.0" encoding="iso-8859-1"?>
<!-- Generator: Adobe Illustrator 22.0.1, SVG Export Plug-In . SVG Version: 6.00 Build 0)  -->
<svg version="1.1" id="Layer_1" xmlns="http://www.w3.org/2000/svg" xmlns:xlink="http://www.w3.org/1999/xlink" x="0px" y="0px"
	 viewBox="0 0 24 24" style="enable-background:new 0 0 24 24;" xml:space="preserve">
<g>
	<path style="fill:#999999;" d="M13.034,19.824H2.883c-1.414,0-2.565-1.151-2.565-2.565V7.109c0-1.414,1.151-2.565,2.565-2.565
		h10.151c1.414,0,2.565,1.151,2.565,2.565v10.15C15.599,18.674,14.448,19.824,13.034,19.824L13.034,19.824z M2.883,5.867
		c-0.685,0-1.242,0.557-1.242,1.242v10.15c0,0.684,0.557,1.242,1.242,1.242h10.151c0.685,0,1.242-0.557,1.242-1.242V7.109
		c0-0.685-0.557-1.242-1.242-1.242H2.883z M2.883,5.867"/>
	<path style="fill:#999999;" d="M22.153,17.571c-0.13,0-0.26-0.038-0.372-0.114l-4.203-2.855c-0.181-0.123-0.29-0.328-0.29-0.547
		v-3.741c0-0.219,0.109-0.424,0.29-0.547l4.203-2.855c0.202-0.138,0.465-0.152,0.682-0.037c0.217,0.115,0.352,0.339,0.352,0.585
		v9.45c0,0.245-0.135,0.47-0.352,0.584C22.366,17.545,22.26,17.571,22.153,17.571L22.153,17.571z M18.612,13.704l2.879,1.956V8.708
		l-2.879,1.956V13.704z M18.612,13.704"/>
	<path style="fill:#999999;" d="M6.101,15.808c-0.076,0-0.153-0.016-0.225-0.05c-0.186-0.087-0.305-0.274-0.305-0.48V9.09
		c0-0.205,0.119-0.392,0.305-0.48C6.063,8.523,6.283,8.552,6.44,8.683l0.925,0.771C7.59,9.641,7.621,9.975,7.433,10.2
		c-0.187,0.224-0.521,0.255-0.746,0.068L6.631,10.22v3.929l2.357-1.965l-1.243-1.036c-0.224-0.187-0.255-0.521-0.068-0.746
		c0.187-0.224,0.521-0.255,0.746-0.068l1.731,1.443c0.121,0.101,0.19,0.249,0.19,0.407c0,0.157-0.07,0.306-0.19,0.407L6.44,15.686
		C6.343,15.766,6.223,15.808,6.101,15.808L6.101,15.808z M6.101,15.808"/>
</g>
<g>
</g>
<g>
</g>
<g>
</g>
<g>
</g>
<g>
</g>
<g>
</g>
</svg>
