<?xml version="1.0" encoding="iso-8859-1"?>
<!-- Generator: Adobe Illustrator 22.0.1, SVG Export Plug-In . SVG Version: 6.00 Build 0)  -->
<svg version="1.1" id="Layer_1" xmlns="http://www.w3.org/2000/svg" xmlns:xlink="http://www.w3.org/1999/xlink" x="0px" y="0px"
	 viewBox="0 0 24 24" style="enable-background:new 0 0 24 24;" xml:space="preserve">
<g>
	<path style="fill:#A7A9AC;" d="M23,12c0-6.065-4.936-11-11-11S1,5.936,1,12c0,3.203,1.377,6.092,3.57,8.104l-0.01,0.01l0.355,0.3
		c0.024,0.02,0.049,0.035,0.073,0.055c0.189,0.156,0.387,0.304,0.586,0.449c0.064,0.047,0.129,0.093,0.195,0.14
		c0.215,0.146,0.433,0.287,0.658,0.418c0.049,0.029,0.098,0.056,0.146,0.086c0.245,0.139,0.497,0.271,0.752,0.391
		c0.02,0.01,0.038,0.017,0.057,0.027c0.836,0.387,1.729,0.672,2.66,0.842c0.026,0.004,0.049,0.008,0.074,0.012
		c0.289,0.051,0.582,0.09,0.879,0.117c0.035,0.004,0.072,0.006,0.107,0.01C11.398,22.985,11.697,23,12,23
		c0.299,0,0.596-0.016,0.889-0.039c0.038-0.004,0.075-0.006,0.112-0.008c0.295-0.027,0.584-0.066,0.871-0.115
		c0.026-0.004,0.051-0.01,0.077-0.014c0.917-0.164,1.797-0.443,2.621-0.822c0.031-0.014,0.062-0.027,0.091-0.041
		c0.248-0.117,0.488-0.242,0.725-0.375c0.059-0.034,0.117-0.067,0.175-0.102c0.215-0.127,0.428-0.258,0.633-0.401
		c0.074-0.049,0.146-0.104,0.218-0.156c0.176-0.125,0.35-0.255,0.516-0.392c0.037-0.029,0.078-0.057,0.115-0.086l0.365-0.307
		l-0.012-0.01C21.61,18.121,23,15.221,23,12L23,12z M1.801,12C1.801,6.375,6.375,1.801,12,1.801S22.199,6.375,22.199,12
		c0,3.031-1.33,5.756-3.436,7.625c-0.117-0.08-0.234-0.155-0.357-0.215l-3.387-1.693c-0.302-0.152-0.492-0.457-0.492-0.797v-1.184
		c0.078-0.096,0.162-0.206,0.246-0.327c0.439-0.619,0.791-1.309,1.047-2.048c0.507-0.24,0.834-0.747,0.834-1.316v-1.418
		c0-0.346-0.127-0.682-0.353-0.948V7.813c0.019-0.207,0.093-1.379-0.754-2.346c-0.736-0.84-1.93-1.268-3.547-1.268
		c-1.617,0-2.81,0.428-3.547,1.268C7.605,6.434,7.679,7.606,7.699,7.813V9.68c-0.227,0.264-0.354,0.602-0.354,0.948v1.418
		c0,0.441,0.198,0.852,0.536,1.129c0.324,1.269,0.99,2.231,1.238,2.555v1.158c0,0.327-0.179,0.627-0.464,0.784L5.49,19.395
		c-0.099,0.054-0.201,0.119-0.301,0.191C3.111,17.717,1.801,15.01,1.801,12L1.801,12z M17.985,20.252
		c-0.141,0.102-0.283,0.201-0.428,0.295c-0.066,0.043-0.132,0.086-0.199,0.129c-0.19,0.117-0.381,0.227-0.578,0.332
		c-0.043,0.021-0.086,0.043-0.129,0.066c-0.452,0.23-0.918,0.43-1.397,0.59c-0.016,0.006-0.034,0.012-0.051,0.017
		c-0.25,0.084-0.504,0.157-0.762,0.221H14.44c-0.26,0.065-0.522,0.117-0.785,0.162c-0.008,0-0.016,0.002-0.021,0.004
		c-0.248,0.039-0.5,0.068-0.75,0.091c-0.045,0.004-0.09,0.006-0.135,0.01C12.5,22.188,12.25,22.199,12,22.199
		c-0.254,0-0.506-0.012-0.758-0.031c-0.043-0.002-0.087-0.006-0.13-0.01c-0.254-0.021-0.506-0.053-0.756-0.091l-0.033-0.006
		c-0.529-0.09-1.049-0.218-1.557-0.388c-0.016-0.006-0.031-0.012-0.047-0.018c-0.252-0.084-0.5-0.18-0.744-0.286
		c-0.002,0-0.004,0-0.006-0.002c-0.23-0.1-0.458-0.209-0.682-0.326c-0.029-0.016-0.059-0.03-0.088-0.045
		c-0.205-0.11-0.404-0.227-0.601-0.35c-0.059-0.037-0.117-0.074-0.174-0.113c-0.182-0.117-0.361-0.242-0.535-0.373
		c-0.018-0.014-0.035-0.027-0.053-0.041l0.037-0.022l3.164-1.725c0.543-0.297,0.881-0.867,0.881-1.486v-1.441l-0.092-0.111
		c-0.01-0.01-0.873-1.061-1.201-2.486L8.59,12.69l-0.137-0.088c-0.193-0.125-0.309-0.332-0.309-0.556v-1.418
		c0-0.186,0.08-0.359,0.223-0.491L8.5,10.018V7.791L8.496,7.739c0-0.01-0.119-0.973,0.558-1.745C9.633,5.334,10.625,5,12,5
		c1.371,0,2.359,0.332,2.938,0.987c0.677,0.764,0.566,1.744,0.566,1.752L15.5,10.02l0.133,0.119
		c0.143,0.129,0.222,0.303,0.222,0.489v1.418c0,0.285-0.195,0.545-0.473,0.631l-0.199,0.061l-0.064,0.199
		c-0.236,0.733-0.572,1.41-0.998,2.012c-0.106,0.148-0.207,0.279-0.295,0.38l-0.098,0.112v1.481c0,0.645,0.358,1.224,0.934,1.513
		l3.387,1.694c0.021,0.009,0.043,0.021,0.064,0.033C18.07,20.192,18.028,20.221,17.985,20.252L17.985,20.252z M17.985,20.252"/>
</g>
<g>
</g>
<g>
</g>
<g>
</g>
<g>
</g>
<g>
</g>
<g>
</g>
</svg>
