<?xml version="1.0" encoding="utf-8"?>
<!-- Generator: Adobe Illustrator 22.0.1, SVG Export Plug-In . SVG Version: 6.00 Build 0)  -->
<svg version="1.1" id="Layer_1" xmlns="http://www.w3.org/2000/svg" xmlns:xlink="http://www.w3.org/1999/xlink" x="0px" y="0px"
	 viewBox="0 0 24 24" style="enable-background:new 0 0 24 24;" xml:space="preserve">
<style type="text/css">
	.st0{fill:#757575;}
	.st1{clip-path:url(#SVGID_1_);fill:#757575;}
</style>
<path class="st0" d="M13.2,14.9c2.6,0,4.6-2.1,4.6-4.6c0-2.6-2.1-4.6-4.6-4.6c-2.6,0-4.6,2.1-4.6,4.6C8.5,12.8,10.6,14.9,13.2,14.9
	L13.2,14.9z M13.2,14.9"/>
<g>
	<defs>
		<rect id="SVGID_3_" x="0.7" y="0.6" width="22.4" height="22.7"/>
	</defs>
	<clipPath id="SVGID_1_">
		<use xlink:href="#SVGID_3_"  style="overflow:visible;"/>
	</clipPath>
	<path class="st1" d="M9.2,15.9c-1.8,0-3.2,1.4-3.2,3.2v3.6c0,0.3,0.3,0.6,0.6,0.6h13.1c0.3,0,0.6-0.3,0.6-0.6v-3.5
		c0.1-0.1,0.1-0.2,0.1-0.3l2.5-6.7c0.1-0.2,0.1-0.5,0.1-0.7V3.9c0-1.1-0.9-2-2-2c-1.1,0-2,0.9-2,2v7.2l-1.8,4.8H9.2z M9.2,15.9"/>
	<path class="st1" d="M1.4,5h1.5c0.3,0,0.6-0.2,0.6-0.5C3.5,4,3.7,3.6,4,3.3C4.2,3.1,4.5,3,5,3C5.4,3,5.8,3.1,6,3.4
		c0.3,0.3,0.4,0.6,0.4,1c0,0.2,0,0.4-0.1,0.5c0,0.1-0.2,0.4-0.9,1C4.7,6.4,4.2,6.9,4,7.4C3.7,8,3.6,8.7,3.6,9.8
		c0,0.3,0.3,0.6,0.6,0.6h1.3c0.3,0,0.6-0.3,0.6-0.6c0-0.8,0.1-1.1,0.2-1.3c0-0.1,0.2-0.4,1-1C8,6.9,8.4,6.4,8.7,5.9
		C9,5.4,9.1,4.8,9.1,4.2c0-1.1-0.4-1.9-1.2-2.6c-0.8-0.7-1.8-1-3-1c-1.2,0-2.1,0.3-2.9,1C1.3,2.3,0.8,3.2,0.7,4.4C0.7,4.7,1,5,1.4,5
		L1.4,5z M1.4,5"/>
</g>
<path class="st0" d="M5.5,13.9c0.3,0,0.6-0.3,0.6-0.6V12c0-0.3-0.3-0.6-0.6-0.6H4.2c-0.3,0-0.6,0.3-0.6,0.6v1.3
	c0,0.3,0.3,0.6,0.6,0.6H5.5z M5.5,13.9"/>
</svg>
