<?xml version="1.0" encoding="utf-8"?>
<!-- Generator: Adobe Illustrator 22.1.0, SVG Export Plug-In . SVG Version: 6.00 Build 0)  -->
<svg version="1.1" id="Layer_1" xmlns="http://www.w3.org/2000/svg" xmlns:xlink="http://www.w3.org/1999/xlink" x="0px" y="0px"
	 viewBox="0 0 24 24" style="enable-background:new 0 0 24 24;" xml:space="preserve">
<style type="text/css">
	.st0{fill:#757576;}
</style>
<path class="st0" d="M11.9,2.7H8.6c-0.2,0-0.4,0.2-0.4,0.4c0,0.2,0.2,0.4,0.4,0.4h3C11.7,3.2,11.8,3,11.9,2.7z"/>
<path class="st0" d="M22.4,0.2H6.6c-0.3,0-0.5,0.2-0.5,0.5v10.6c0,0.3,0.2,0.5,0.5,0.5h2.6l0-1H7.1V1.2h14.8v9.6h-5.2v1h5.8
	c0.3,0,0.5-0.2,0.5-0.5V0.7C22.9,0.4,22.7,0.2,22.4,0.2z"/>
<path class="st0" d="M15.5,4c0-0.9-0.7-1.6-1.6-1.6c-0.9,0-1.6,0.7-1.6,1.6c0,0.4,0.2,0.9,0.5,1.2c0.3,0,2,0,2.2,0
	C15.3,4.9,15.5,4.5,15.5,4z"/>
<path class="st0" d="M11.4,13.5l0-1.7l0-4.1c0-0.1,0.1-0.2,0.2-0.2c0.1,0,0.2,0.1,0.2,0.2c0,7.3,0,1.7,0,11.8
	c0.3-0.1,0.6-0.2,0.9-0.2v-0.2c-0.2-0.3-0.2-0.7-0.2-1.1c0-0.9,0.5-1.6,1.2-2.1v-2.7h0.4v2.5c0.2-0.1,0.5-0.1,0.8-0.1
	c0.4,0,0.8,0.1,1.1,0.3l0-8.6c0.5-0.1,2.4-0.3,2.8-0.3c0.2,0,0.4-0.1,0.5-0.2l1.9-2c0.3-0.3,0.3-0.8,0-1.1c-0.1-0.1-0.2-0.1-0.3-0.2
	l-0.2-0.8c-0.1-0.2-0.3-0.4-0.5-0.4c-0.2,0-0.3,0.2-0.4,0.4h-3.8C15.9,3,16,3.2,16.1,3.5h3.6l0.1,0.4l-1.6,1.7
	c-0.3,0-2.5,0.3-2.9,0.3c0,0-2.8,0-3.6,0c-1,0-1.8,0.8-1.8,1.8l0,5.7c0,0.5,0.4,0.8,0.8,0.8c0,0,0,0,0,0
	C11.1,14.2,11.4,13.9,11.4,13.5z"/>
<path class="st0" d="M16.9,20.1c-0.5,0-3.5,0-4,0c-1,0-1.8,0.8-1.8,1.8l0,1.8h0.7c0-1,0.8-1.8,1.8-1.8h2.7c1,0,1.8,0.8,1.8,1.8h0.6
	l0-1.8C18.7,20.9,17.8,20.1,16.9,20.1z"/>
<path class="st0" d="M13.3,18.1c0,0.9,0.7,1.6,1.6,1.6c0.9,0,1.6-0.7,1.6-1.6c0-0.9-0.7-1.6-1.6-1.6C14,16.5,13.3,17.2,13.3,18.1z"
	/>
<path class="st0" d="M4.4,19.6c0.9,0,1.6-0.7,1.6-1.6c0-0.9-0.7-1.6-1.6-1.6c-0.9,0-1.6,0.7-1.6,1.6C2.8,19,3.5,19.6,4.4,19.6z"/>
<path class="st0" d="M16.2,22.4h-2.7c-0.7,0-1.3,0.6-1.3,1.3h5.3C17.5,23,16.9,22.4,16.2,22.4z"/>
<path class="st0" d="M5.6,22.4H3c-0.7,0-1.3,0.6-1.3,1.3c0.5,0,4.8,0,5.3,0C7,23,6.4,22.4,5.6,22.4z"/>
<path class="st0" d="M9.7,14.8c-0.4-0.1-0.7,0.1-0.8,0.5l-0.8,3.5c-0.2,0.1-1.7,1.2-1.9,1.4c-0.4,0-3.6,0-3.8,0
	c-1,0-1.8,0.8-1.8,1.8l0,1.8h0.5c0-1,0.8-1.8,1.8-1.8h2.7c0.3,0,0.7,0.1,0.9,0.3l0-0.6l2.5-1.8c0.1-0.1,0.2-0.2,0.3-0.4l0.8-3.7
	C10.3,15.2,10,14.9,9.7,14.8z"/>
</svg>
