<?xml version="1.0" encoding="utf-8"?>
<!-- Generator: Adobe Illustrator 22.0.1, SVG Export Plug-In . SVG Version: 6.00 Build 0)  -->
<svg version="1.1" id="Layer_1" xmlns="http://www.w3.org/2000/svg" xmlns:xlink="http://www.w3.org/1999/xlink" x="0px" y="0px"
	 viewBox="0 0 24 24" style="enable-background:new 0 0 24 24;" xml:space="preserve">
<style type="text/css">
	.st0{fill:#666666;}
</style>
<g>
	<g>
		<path class="st0" d="M22.1,1.8c-0.7-0.7-1.7-1.1-2.8-1.1H4.9c-2.2,0-4.1,1.8-4.1,4c0,0,0,0.1,0,0.1v14.3c0,2.3,1.8,4.1,4.1,4.1
			h14.4c2.3,0,4.1-1.8,4.1-4.1V4.9C23.4,3.7,22.9,2.6,22.1,1.8L22.1,1.8z M15.9,8c0,2.1-1.7,3.8-3.8,3.8c-2.1,0-3.8-1.7-3.8-3.8
			c0-2.1,1.7-3.8,3.8-3.8C14.2,4.1,15.9,5.9,15.9,8L15.9,8z M7.7,20.3c-1,0-1.8-0.8-1.8-1.8v-1c0-2.2,1.8-3.9,3.9-3.9h4.5
			c2.2,0,3.9,1.7,3.9,3.9v1c0,1-0.8,1.8-1.8,1.8H7.7z M7.7,20.3"/>
	</g>
</g>
</svg>
