<?xml version="1.0" encoding="utf-8"?>
<!-- Generator: Adobe Illustrator 22.1.0, SVG Export Plug-In . SVG Version: 6.00 Build 0)  -->
<svg version="1.1" id="Layer_1" xmlns="http://www.w3.org/2000/svg" xmlns:xlink="http://www.w3.org/1999/xlink" x="0px" y="0px"
	 viewBox="0 0 24 24" style="enable-background:new 0 0 24 24;" xml:space="preserve">
<style type="text/css">
	.st0{fill:#F55269;}
</style>
<g>
	<path class="st0" d="M12.4,18V7.4C12.4,7.2,12.2,7,12,7c-0.2,0-0.4,0.2-0.4,0.4V18c0,0.2,0.2,0.4,0.4,0.4
		C12.2,18.4,12.4,18.2,12.4,18L12.4,18z M12.4,18"/>
	<path class="st0" d="M22.6,4.7c-0.8,0-1.7-0.3-2.7-0.7c-1.3-0.4-2.7-0.9-4.1-0.9c-1.7,0-2.7,0.7-3.3,1.4C12.3,4.8,12.1,5,12,5.2
		c-0.1-0.2-0.3-0.4-0.5-0.7c-0.6-0.6-1.6-1.4-3.3-1.4C6.7,3.1,5.3,3.6,4,4.1C3,4.4,2.1,4.7,1.4,4.7C1.2,4.7,1,4.9,1,5.1v14.3
		c0,0.2,0.2,0.4,0.4,0.4c0.9,0,1.9-0.3,2.9-0.7c1.2-0.4,2.6-0.9,3.9-0.9c1.2,0,2.1,0.4,2.8,1.1c0.1,0.1,0.4,0.2,0.5,0
		c0.1-0.1,0.2-0.4,0-0.5c-0.6-0.6-1.6-1.4-3.3-1.4c-1.5,0-2.9,0.5-4.1,0.9c-0.8,0.3-1.6,0.6-2.3,0.6V5.4c0.8-0.1,1.6-0.4,2.6-0.7
		c1.2-0.4,2.6-0.9,3.9-0.9c2.7,0,3.5,2.2,3.5,2.3c0,0.1,0.2,0.3,0.3,0.3c0.2,0,0.3-0.1,0.3-0.3c0,0,0.7-2.3,3.5-2.3
		c1.4,0,2.7,0.5,3.9,0.9c0.9,0.3,1.8,0.6,2.6,0.7V19c-0.7-0.1-1.5-0.4-2.3-0.6c-1.3-0.4-2.7-0.9-4.1-0.9c-1.7,0-2.7,0.7-3.3,1.4
		c-0.1,0.1-0.1,0.4,0,0.5c0.1,0.1,0.4,0.1,0.5,0c0.7-0.8,1.6-1.1,2.8-1.1c1.4,0,2.7,0.5,3.9,0.9c1,0.4,2,0.7,2.9,0.7
		c0.2,0,0.4-0.2,0.4-0.4V5.1C23,4.9,22.8,4.7,22.6,4.7L22.6,4.7z M22.6,4.7"/>
	<path class="st0" d="M22.6,20.4c-0.8,0-1.7-0.3-2.7-0.7c-1.3-0.4-2.7-0.9-4.1-0.9c-1.6,0-2.6,0.7-3.2,1.3h-1.2
		c-0.6-0.6-1.6-1.3-3.2-1.3c-1.5,0-2.9,0.5-4.1,0.9c-1,0.3-1.9,0.7-2.7,0.7c-0.2,0-0.4,0.2-0.4,0.4c0,0.2,0.2,0.4,0.4,0.4
		c0.9,0,1.9-0.3,2.9-0.7c1.2-0.4,2.6-0.9,3.9-0.9c1.2,0,2.1,0.4,2.8,1.1c0.1,0.1,0.2,0.1,0.3,0.1h1.5c0.1,0,0.2,0,0.3-0.1
		c0.7-0.8,1.6-1.1,2.8-1.1c1.4,0,2.7,0.5,3.9,0.9c1,0.4,2,0.7,2.9,0.7c0.2,0,0.4-0.2,0.4-0.4C23,20.6,22.8,20.4,22.6,20.4L22.6,20.4
		z M22.6,20.4"/>
</g>
</svg>
