<?xml version="1.0" encoding="utf-8"?>
<!-- Generator: Adobe Illustrator 22.1.0, SVG Export Plug-In . SVG Version: 6.00 Build 0)  -->
<svg version="1.1" id="Layer_1" xmlns="http://www.w3.org/2000/svg" xmlns:xlink="http://www.w3.org/1999/xlink" x="0px" y="0px"
	 viewBox="0 0 24 24" style="enable-background:new 0 0 24 24;" xml:space="preserve">
<style type="text/css">
	.st0{fill:#F55269;}
</style>
<g>
	<g>
		<path class="st0" d="M23,8c-0.3-3.6-2.9-6.2-6-6.2c-2.1,0-4,1.1-5.1,3c-1.1-1.8-2.9-3-5-3c-3.2,0-5.7,2.6-6,6.2
			c0,0.2-0.1,1,0.2,2.3c0.5,2,1.5,3.7,3.1,5.1l7.7,7l7.9-7c1.6-1.4,2.6-3.2,3.1-5.1C23.1,9,23,8.2,23,8L23,8z M22,10.1
			c-0.4,1.8-1.4,3.4-2.8,4.7l-7.3,6.5l-7.2-6.5c-1.4-1.3-2.4-2.9-2.8-4.7c-0.3-1.3-0.2-2-0.2-2l0,0C1.9,5,4.1,2.7,6.8,2.7
			c2,0,3.8,1.2,4.6,3.2l0.4,0.9l0.4-0.9c0.8-2,2.7-3.2,4.7-3.2c2.7,0,4.9,2.3,5.2,5.4C22.1,8.1,22.3,8.9,22,10.1L22,10.1z M22,10.1"
			/>
	</g>
</g>
</svg>
